<?xml version="1.0" standalone="no"?>
<!DOCTYPE svg PUBLIC "-//W3C//DTD SVG 1.1//EN" "http://www.w3.org/Graphics/SVG/1.1/DTD/svg11.dtd" >
<svg>
<metadata>
Created by FontForge 20090622 at Mon Apr  4 16:53:08 2016
 By ffonts
Vecna &#194;&#169; (Neale Davidson). 2014. All Rights Reserved
</metadata>
<defs>
<font id="Vecna" horiz-adv-x="1600" >
  <font-face 
    font-family="Vecna"
    font-weight="400"
    font-stretch="normal"
    units-per-em="2048"
    panose-1="2 0 5 0 0 0 0 0 0 0"
    ascent="1638"
    descent="-410"
    x-height="966"
    cap-height="1396"
    bbox="-57 -397 2073 1854"
    underline-thickness="150"
    underline-position="-142"
    unicode-range="U+001D-U+F002"
  />
<missing-glyph horiz-adv-x="1650" 
d="M0 200v1100q0 200 200 200h1100q200 0 200 -200v-1100q0 -200 -200 -200h-1100q-200 0 -200 200zM1475 201v1099q0 175 -175 175h-1100q-174 0 -175 -175v-1100q1 -175 175 -175h1101q174 0 174 176z" />
    <glyph glyph-name=".notdef" horiz-adv-x="1650" 
d="M0 200v1100q0 200 200 200h1100q200 0 200 -200v-1100q0 -200 -200 -200h-1100q-200 0 -200 200zM1475 201v1099q0 175 -175 175h-1100q-174 0 -175 -175v-1100q1 -175 175 -175h1101q174 0 174 176z" />
    <glyph glyph-name=".null" horiz-adv-x="0" 
 />
    <glyph glyph-name=".null" horiz-adv-x="0" 
 />
    <glyph glyph-name="nonmarkingreturn" horiz-adv-x="508" 
 />
    <glyph glyph-name="space" unicode=" " horiz-adv-x="800" 
 />
    <glyph glyph-name="space" unicode="&#xa0;" horiz-adv-x="800" 
 />
    <glyph glyph-name="exclam" unicode="!" horiz-adv-x="317" 
d="M70 357l-70 914l178 126l39 -123l-62 -860zM22 39v101l86 52l88 -52v-101l-88 -49z" />
    <glyph glyph-name="quotedbl" unicode="&#x22;" horiz-adv-x="657" 
d="M218 1124l-233 -300l93 280l-78 47v125l109 65l109 -65v-152zM557 1124l-234 -300l96 280l-81 47v125l110 65l109 -65v-152z" />
    <glyph glyph-name="numbersign" unicode="#" horiz-adv-x="1086" 
d="M378 978h38v-1h184v16q0 47 -1.5 96t-8 94t-19 80t-34.5 51l-7 7l75 38l52.5 -45l52.5 -46l60 -55l-6 -3q-22 -7 -33.5 -28.5t-17 -50.5t-5.5 -64v-90l53 2q42 1 79.5 9t67 22.5t45.5 39.5l33 -88l-120 -168q-7 22 -25 35t-43 19t-55 7q-17 1 -35 1v-106h-1v-173l54 2
q42 1 79.5 9t67 22.5t45.5 39.5l33 -88l-120 -168q-7 22 -25 35t-43 19t-55 7q-18 1 -36 1v-40q0 -47 1.5 -96t8 -94t19 -80t34.5 -51l7 -7l-75 -38l-52.5 45l-52.5 46l-60 55l6 3q22 7 33.5 28.5t17 50.5t5.5 65v113h-222v-40q0 -47 1.5 -96t8 -94t19 -80t34.5 -51l7 -7
l-75 -38l-52.5 45l-52.5 46l-60 55l6 3q22 7 33.5 28.5t17 50.5t5.5 65v114q-22 -1 -44 -1q-42 -2 -79.5 -10t-67 -22.5t-45.5 -39.5l-33 88l120 168q7 -22 25 -35t43 -19t56 -7q12 0 25 -1v181h1v98q-22 -1 -45 -1q-42 -2 -79.5 -10t-67 -22.5t-45.5 -39.5l-33 88l120 168
q7 -22 25 -35t43 -19t56 -7q13 0 26 -1v15q0 47 -1.5 96t-8 94t-19 80t-34.5 51l-7 7l75 38l52.5 -45l52.5 -46l60 -55l-6 -3q-22 -7 -33.5 -28.5t-17 -50.5t-5.5 -64v-89zM600 856h-222v-106h-1v-172h39v-1h183v182h1v97z" />
    <glyph glyph-name="dollar" unicode="$" horiz-adv-x="953" 
d="M517 1284l233 -86q4 -30 7 -60.5t7 -60.5q3 -17 5 -34.5t3 -34.5l-50 -27q-16 48 -34 89t-47.5 68.5t-75.5 43.5q-33 11 -78 14q-2 -7 -3 -15q-6 -29 -6 -64v-323q20 -10 40 -19q66 -27 124.5 -55.5t103 -64.5t73.5 -82.5t34 -112.5v-7q0 -52 -44.5 -106.5t-105 -103
t-120.5 -85.5l-81 -50q1 -6 4 -12q12 -35 34 -51l7 -7l-75 -38l-52.5 45l-52.5 46l-60 55l6 3q9 3 17 8l-250 83q-19 68 -39.5 133l-40.5 132l20 -10l25.5 -12.5t11.5 -8.5q63 -118 156 -175q66 -41 153 -53q3 22 3 47v375q-44 20 -86 44q-59 32 -104.5 73t-73.5 92t-28 115
q0 12 1.5 27t5.5 31q9 42 64 82.5t121 74.5q46 23 89 41q-6 36 -16 65q-13 35 -35 51l-7 7l75 38l52.5 -45l52.5 -46zM480 244q26 5 58 15q55 17 93 52q32 37 40 67.5t8 65.5q-6 35 -30 63.5t-61.5 53t-84.5 46.5l-26 12v-253q0 -47 2 -96q0 -13 1 -26zM366 1187
q-29 -7 -54 -21q-34 -19 -57.5 -50t-23.5 -81q0 -43 24.5 -81t63.5 -69q23 -19 51 -36v194q0 47 -1 96q-1 24 -3 48z" />
    <glyph glyph-name="percent" unicode="%" horiz-adv-x="1137" 
d="M159 1026q0 -27 4 -58.5t11.5 -63t19.5 -60.5t29 -51.5t40 -35.5t51 -13q55 0 90 48q14 20 24 46t16 52.5t8.5 52.5t2.5 49q0 56 -12 108.5t-33.5 92.5t-51 64t-65.5 24q-37 0 -62.5 -24t-41.5 -61t-23 -82t-7 -88zM568 376q0 -27 4 -58.5t11.5 -63t19.5 -60.5t29 -51.5
t40 -35.5t51 -13q55 0 90 48q14 20 24 46t16 52.5t8.5 52.5t2.5 49q0 56 -12 108.5t-33.5 92.5t-51 64t-65.5 24q-37 0 -62.5 -24t-41.5 -61t-23 -82t-7 -88zM511 762q-2 -1 -4 -3q-36 -27 -85 -43t-113 -16q-73 0 -130.5 22t-97 63t-60.5 99t-21 128q0 63 15 115t49.5 93.5
t88.5 71.5t132 49q6 2 20.5 5t33 6.5t37 6.5l31.5 5q6 -3 21.5 -14.5t38 -30t46.5 -42.5t46 -52.5t38.5 -60t22.5 -62.5q4 -20 6 -41t2 -37q0 -28 -6 -63q-2 -14 -6 -27l276 446h112l-96 -133l-142 -229l-52.5 -85l-45.5 -75.5t-33 -53.5q-12 -25 -125 -197q23 19 52 35
q54 30 132 49q6 2 20.5 5t33 6.5t37 6.5l31.5 5q6 -3 21.5 -14.5t38 -30t46.5 -42.5t46 -52.5t38.5 -60t22.5 -62.5q4 -20 6 -41t2 -37q0 -28 -6 -63t-20 -71.5t-37 -70t-58.5 -60.5t-84.5 -43t-113 -16q-73 0 -130.5 22t-97 63t-60.5 99t-21 128q0 54 11 99l-100 -166
l-183 -305l-42.5 52.5l-41.5 50.5l14 15l11.5 9.5t7.5 5.5l29 33.5t43.5 57l66 96.5l97.5 149q38 63 70 111q12 22 25 41.5t22.5 35.5t17 26t7.5 11z" />
    <glyph glyph-name="ampersand" unicode="&#x26;" horiz-adv-x="1418" 
d="M1125 -12l-262 274q-59 -79 -113 -139l-47 -49.5t-47 -44t-42.5 -30t-33.5 -11.5h-13q-148 0 -269 39q-53 18 -105.5 46.5t-93.5 73.5t-67.5 106.5t-31.5 146.5q0 16 31.5 68t82 115.5t111.5 124.5t118 97l-14 14q-27 27 -55.5 59t-51 68t-38 75.5t-15.5 81.5q0 29 19 66
t47.5 73t63.5 69t66.5 58t55.5 40q21 12 31 12h3q99 -36 176 -82q33 -20 64.5 -44t55.5 -53t38 -60q11 -28 11 -58v-7q-5 -56 -28.5 -94.5t-57.5 -68t-76.5 -52l-83.5 -45.5l-19 -11l373 -396q37 43 68 95q25 45 47 106.5t27 136.5l94 -147q-9 -8 -37.5 -48.5l-63.5 -86.5
l-85 -121q46 -66 106 -116q48 -43 113.5 -79t140.5 -36zM644 1104q0 38 -10 74.5t-30.5 66t-53 48.5t-76.5 19q-36 0 -64.5 -16.5t-49 -41.5t-30.5 -58t-10 -67q0 -59 29.5 -97.5t69.5 -75.5l65 -63l56 43.5t52.5 47.5t37.5 54t14 66zM811 319q-103 122 -203 229t-223 206
q-40 -21 -75 -52.5t-62 -70t-42 -81t-15 -88.5q0 -67 24 -122.5t66 -96.5t100.5 -62.5t126.5 -21.5q97 0 168.5 46t134.5 114z" />
    <glyph glyph-name="quotesingle" unicode="'" horiz-adv-x="320" 
d="M-13 824l95 280l-81 47v125l110 65l109 -65v-152z" />
    <glyph glyph-name="parenleft" unicode="(" horiz-adv-x="496" 
d="M335 -110q-69 71 -131 150t-107 166t-71 182t-26 296q0 199 26 296t71.5 188t107 175t130.5 153l61 -61q-203 -269 -205 -751q2 -482 195 -733z" />
    <glyph glyph-name="parenright" unicode=")" horiz-adv-x="496" 
d="M10 -49q193 251 195 733q-2 482 -205 751l61 61q69 -69 130.5 -153t107 -175t71.5 -188t26 -296q0 -201 -26 -296t-71 -182t-107 -166t-131 -150z" />
    <glyph glyph-name="asterisk" unicode="*" horiz-adv-x="613" 
d="M245 1332q-4 62 -33 114q-32 58 -32 74q0 28 20.5 45t54.5 17q33 0 54.5 -16t21.5 -41q0 -19 -32 -78q-29 -53 -32 -114q57 22 99 66q44 48 60 53q10 3 18 3q16 0 31 -9q23 -15 33 -46q5 -17 5 -32q0 -13 -3 -24q-9 -27 -33 -34q-6 -1 -17 -1q-22 0 -66 8q-25 4 -49 4
q-35 0 -70 -10q38 -48 91 -72q60 -28 70 -41q11 -16 11 -34q0 -8 -2 -15q-7 -26 -34 -46q-25 -19 -52 -19v1q-28 0 -42 20q-11 15 -20 82q-8 59 -41 109q-33 -50 -40 -108q-8 -66 -18 -79q-16 -22 -42 -23h-5q-24 0 -50 18t-34 45q-3 8 -3 17q0 15 9 28q12 15 73 45
q53 25 92 71q-36 10 -70 10q-24 0 -47 -4q-47 -10 -68 -10q-8 0 -12 2q-26 8 -36 33q-5 11 -5 25q0 15 5 32q10 31 32 46q14 11 29 11q8 0 16 -3q18 -5 65 -54q41 -43 98 -66z" />
    <glyph glyph-name="plus" unicode="+" horiz-adv-x="1087" 
d="M449 611h-118v1h-23q-40 0 -82 -1.5t-79.5 -9.5t-67 -22.5t-45.5 -39.5l-33 88l120 168q7 -22 25 -35t43 -19t55.5 -7t63.5 -1h109v-1h33v111q0 47 -1.5 96t-8 94t-19 80t-34.5 51l-7 7l75 38l52.5 -45l52.5 -46l60 -55l-6 -3q-22 -7 -33.5 -28.5t-17 -50.5t-5.5 -64
v-185h122q40 0 82 1.5t79.5 9.5t67 22.5t45.5 39.5l33 -88l-120 -168q-7 22 -25 35t-43 19t-55.5 7t-63.5 1h-123v-145q0 -47 1.5 -96t8 -94t19 -80t34.5 -51l7 -7l-75 -38l-52.5 45l-52.5 46l-60 55l6 3q22 7 33.5 28.5t17 50.5t5.5 65v218z" />
    <glyph glyph-name="comma" unicode="," horiz-adv-x="320" 
d="M-13 -296l93 282l-79 45v127l109 61l110 -61v-154z" />
    <glyph glyph-name="hyphen" unicode="-" horiz-adv-x="1087" 
d="M680 732q40 0 82 1.5t79.5 9.5t67 22.5t45.5 39.5l33 -88l-120 -168q-7 22 -25 35t-43 19t-55.5 7t-63.5 1h-349v1h-23q-40 0 -82 -1.5t-79.5 -9.5t-67 -22.5t-45.5 -39.5l-33 88l120 168q7 -22 25 -35t43 -19t55.5 -7t63.5 -1z" />
    <glyph glyph-name="hyphen" unicode="&#xad;" horiz-adv-x="1087" 
d="M680 732q40 0 82 1.5t79.5 9.5t67 22.5t45.5 39.5l33 -88l-120 -168q-7 22 -25 35t-43 19t-55.5 7t-63.5 1h-349v1h-23q-40 0 -82 -1.5t-79.5 -9.5t-67 -22.5t-45.5 -39.5l-33 88l120 168q7 -22 25 -35t43 -19t55.5 -7t63.5 -1z" />
    <glyph glyph-name="period" unicode="." horiz-adv-x="319" 
d="M0 45v127l109 63l110 -63v-127l-110 -65z" />
    <glyph glyph-name="slash" unicode="/" horiz-adv-x="1054" 
d="M528 872l314 508h112l-96 -133l-142 -229l-52.5 -85l-45.5 -75.5t-33 -53.5q-12 -26 -130 -205l-185 -304l-183 -305l-42.5 52.5l-41.5 50.5l14 15l11.5 9.5t7.5 5.5l29 33.5t43.5 57l66 96.5l97.5 149q38 63 70 111q12 22 25 41.5t22.5 35.5t17 26t7.5 11
q113 190 114 188z" />
    <glyph glyph-name="zero" unicode="0" horiz-adv-x="972" 
d="M569 1397q75 -73 136 -159q52 -75 99.5 -172.5t60.5 -207.5q3 -42 5 -91.5t2 -90.5q0 -103 -21.5 -222t-72.5 -223t-134.5 -172.5t-207.5 -68.5q-99 0 -178.5 47t-137 134t-89 209.5t-31.5 271.5q0 268 96.5 440t307.5 257q9 4 35 12l53.5 16t51 14t25.5 6zM166 694
q0 -88 15 -193.5t48 -197t87 -153.5t132 -62t128 57t79 140t39.5 172.5t10.5 153.5v9q0 107 -22.5 217.5t-62 200t-94 146t-119.5 56.5t-112 -51t-75.5 -131t-41 -176.5t-12.5 -187.5z" />
    <glyph glyph-name="one" unicode="1" horiz-adv-x="476" 
d="M111 1190q-14 0 -26.5 -7.5t-22 -17t-16.5 -18.5l-12 -15l-34 111l274 154v-1035q0 -37 0.5 -71.5t8 -62.5t21.5 -47.5t41 -26.5l31 -7l-246 -157l-130 46l25 14q28 17 45 50t26.5 76t12 91t2.5 95v828z" />
    <glyph glyph-name="two" unicode="2" horiz-adv-x="975" 
d="M261 274q-23 -23 -37 -46.5t-14 -49.5q0 -19 7 -38h299q18 0 35 -1t35 -1q32 0 62.5 6.5t57.5 27t48.5 60.5t37.5 110l83 -94l-65 -248h-568l-242 156l25 7q18 9 28.5 19.5t19.5 24.5l554 696q31 36 47 74.5t16 84.5v19q-5 53 -27.5 88t-53 54t-63 26.5t-56.5 7.5h-19
q-66 -6 -107.5 -30.5t-65.5 -64.5t-37.5 -95t-22.5 -121l-77 47v247l260 156q102 -4 188 -36q38 -14 75 -34.5t70 -50.5t59 -71t40 -94q5 -24 7 -43.5t2 -37.5q0 -59 -21.5 -102t-53.5 -90z" />
    <glyph glyph-name="three" unicode="3" horiz-adv-x="887" 
d="M294 756q17 0 39 -2l160 192q25 31 40.5 66t15.5 76v18q-4 50 -24 82.5t-47.5 50.5t-58.5 24t-53 6h-17q-60 -5 -98.5 -27.5t-62.5 -59.5t-35 -87t-20 -111l-72 43v226l242 143q93 -4 174 -32q34 -13 69 -32t64.5 -46.5t53.5 -65t37 -86.5q12 -50 12 -98q0 -54 -16 -98.5
t-43 -82.5l-141 -131q51 -16 100.5 -42.5t88 -68.5t62 -97.5t23.5 -125.5q0 -89 -41.5 -162.5t-108 -126.5t-148.5 -82t-164 -29q-44 0 -96.5 9.5t-100.5 31t-83 55.5t-45 83l186 127v-33q0 -41 14.5 -80t39.5 -69t62 -48t79 -18q56 0 101.5 23.5t78 63t49.5 88.5t17 102
q0 65 -31.5 120t-81 94.5t-110 60t-121.5 20.5q-34 0 -69.5 -0.5t-71.5 -8.5l96 145h56z" />
    <glyph glyph-name="four" unicode="4" horiz-adv-x="1036" 
d="M666 1104v-485h270l-191 -135h-79v-122q0 -37 1 -71.5t8.5 -62.5t23 -47.5t41.5 -26.5l32 -7l-238 -157l-138 46l25 14q29 17 48 50t27.5 76t12 91t3.5 95v122h-388l-89 -58l-35 145l32 31q20 63 45 125q21 54 52.5 116t71.5 114q91 120 167 204t134 137q66 60 120 99
l97 -150q-79 -34 -152 -79q-63 -37 -132.5 -89t-115.5 -116q-45 -60 -75.5 -113t-49.5 -95t-27.5 -72.5t-8.5 -42.5q0 -4 1 -5.5t1 -3.5q1 -7 14 -11q5 -1 8 -1h330v347z" />
    <glyph glyph-name="five" unicode="5" horiz-adv-x="931" 
d="M213 816q23 3 60 6.5t84 3.5q62 0 135.5 -11.5t140 -45.5t117.5 -96t72 -160q9 -45 9 -81q0 -81 -32 -160t-87.5 -142t-131 -101.5t-161.5 -38.5h-21q-176 0 -267.5 42t-130.5 131l171 135l7 -38q8 -43 34 -79t63.5 -62t82 -41t86.5 -15h18q8 0 17 2q48 7 85.5 32.5
t62.5 61.5t37.5 82t12.5 94q0 36 -9 77q-14 65 -47 113t-79 80.5t-101.5 48.5t-110.5 16q-34 0 -67 -5l-72.5 -13.5t-70.5 -20.5h-27l30 541l-37 32l109 116l22 -5l75 38q33 15 71.5 26t73.5 15q14 0 27 1t27 1q72 0 126.5 -8t92.5 -17q44 -11 75 -25l-101 -163
q-36 28 -75 50q-34 20 -77 36t-88 16h-8q-48 -4 -79 -12t-52.5 -19t-34 -21.5t-17.5 -17.5q-5 -6 -10 -18q-2 -5 -2 -9z" />
    <glyph glyph-name="six" unicode="6" horiz-adv-x="950" 
d="M741 1320q-88 -1 -164 -59.5t-140 -144t-114 -182.5t-84 -176l126 46t123 39l153 33q57 -66 103 -139q40 -63 73 -143.5t33 -167.5q0 -96 -35 -175.5t-95 -138.5t-140.5 -90.5t-172.5 -31.5q-96 0 -171 41t-127.5 109t-80.5 156.5t-28 183.5q0 113 31 224.5t83 213
t123 189t151.5 151.5t166.5 101t172 37h14v-76zM180 431q0 -62 14.5 -130t46 -124.5t81 -93.5t123.5 -37q63 0 104 33.5t66.5 83t35 108.5t9.5 111q0 71 -13.5 140.5t-44.5 124t-82 87.5t-128 33h-14q-36 -2 -74 -27t-78 -48q-24 -70 -35 -129.5t-11 -131.5z" />
    <glyph glyph-name="seven" unicode="7" horiz-adv-x="981" 
d="M397 208q-5 -20 -5 -34q0 -23 8.5 -41t20.5 -27l20 -15l-224 -101l-111 99l16 8q43 23 67 55.5t53 96.5l401 907q7 14 7 45q0 16 -1.5 32t-5.5 31l-274 -9q-9 0 -18.5 -1t-18.5 -1q-46 0 -84.5 -5t-69.5 -25.5t-56.5 -63t-42.5 -123.5l-79 96l62 248h581l238 -163
q-10 -4 -21 -9q-8 -4 -18.5 -11t-18.5 -17z" />
    <glyph glyph-name="eight" unicode="8" horiz-adv-x="929" 
d="M294 708q-35 24 -75.5 57.5t-74.5 75t-57.5 90.5t-23.5 105q0 53 28 113q3 9 27 48l53 84q32 53 74 115q49 -11 91 -18q35 -7 67.5 -12.5t43.5 -7.5q63 -10 125.5 -28t113.5 -50.5t82.5 -81.5t31.5 -121q0 -66 -22 -114.5t-59 -87t-84.5 -70t-97.5 -61.5l17 -14
q49 -38 98 -85.5t87.5 -103t64 -117.5t25.5 -132q0 -8 -19.5 -52.5t-43.5 -94.5l-61 -131q-75 -3 -138 -7q-54 -3 -102 -6.5t-58 -5.5q-29 -5 -60 -5q-65 0 -127.5 23t-111 64t-78.5 100t-30 133q0 72 28 130t73 105.5t101.5 84.5t112.5 66zM631 1050q0 50 -7.5 94
t-28.5 77.5t-57.5 55t-96.5 24.5h-12q-39 0 -76 -15t-65 -40t-45 -59.5t-17 -71.5q0 -63 28 -113.5t70 -92.5t92.5 -78l93.5 -68q57 53 89 126.5t32 150.5v10zM168 346q0 -57 19.5 -112t54.5 -97t85.5 -68t112.5 -26q46 0 86 18t67.5 49.5t43.5 71.5t16 85q0 72 -30.5 130
t-76 107.5t-100 89.5l-103.5 78q-37 -25 -68.5 -62t-55 -80.5t-37.5 -91.5t-14 -92z" />
    <glyph glyph-name="nine" unicode="9" horiz-adv-x="943" 
d="M94 67q81 0 162 61.5t154 154t131 199t92 195.5l-68.5 -35t-78 -37t-74 -28t-56.5 -11q-65 0 -127.5 27t-114 74.5t-83 114t-31.5 145.5q0 53 21 118q1 3 13 21t31 43l42 56.5l48 63.5l131 167q48 -7 89 -14l69 -12t48 -12q82 -34 147.5 -72.5t111.5 -89.5t69 -116.5
t23 -151.5v-14q-3 -165 -61.5 -325.5t-160 -289t-237.5 -213t-293 -96.5zM189 963q0 -91 27 -152.5t67 -100t88 -55.5t89 -17q16 0 40 12t50 28t50 35.5t41 35.5q7 24 10.5 42t4.5 34t1.5 33.5t0.5 44.5v17q0 53 -10.5 118t-36.5 119t-70 91t-110 37q-63 0 -108.5 -28.5
t-75.5 -72.5t-44 -99.5t-14 -109.5v-12z" />
    <glyph glyph-name="colon" unicode=":" horiz-adv-x="319" 
d="M0 45v127l109 63l110 -63v-127l-110 -65zM0 765v128l109 63l110 -63v-128l-110 -64z" />
    <glyph glyph-name="semicolon" unicode=";" horiz-adv-x="319" 
d="M0 765v128l109 63l110 -63v-128l-110 -64zM-14 -296l93 282l-79 45v127l109 61l110 -61v-154z" />
    <glyph glyph-name="semicolon" unicode="&#x37e;" horiz-adv-x="319" 
d="M0 765v128l109 63l110 -63v-128l-110 -64zM-14 -296l93 282l-79 45v127l109 61l110 -61v-154z" />
    <glyph glyph-name="less" unicode="&#x3c;" horiz-adv-x="808" 
d="M173 844l375 296h160q-185 -124 -260 -182l-198 -167l-49 -51l72 -72l67.5 -67.5l75.5 -76.5q102 -99 127 -120q37 -42 149 -137l-178 -89q-53 58 -138 128l-159 162l-54 57.5l-49 50.5t-35 37t-16 18q-62 65 -62 66q171 148 172 147z" />
    <glyph glyph-name="equal" unicode="=" horiz-adv-x="1086" 
d="M416 927h263q40 0 82 1.5t79.5 9.5t67 22.5t45.5 39.5l33 -88l-120 -168q-7 22 -25 35t-43 19t-55.5 7t-63.5 1h-349v1h-23q-40 0 -82 -1.5t-79.5 -9.5t-67 -22.5t-45.5 -39.5l-33 88l120 168q7 -22 25 -35t43 -19t55.5 -7t63.5 -1h109v-1zM416 527h263q40 0 82 1.5
t79.5 9.5t67 22.5t45.5 39.5l33 -88l-120 -168q-7 22 -25 35t-43 19t-55.5 7t-63.5 1h-349v1h-23q-40 0 -82 -1.5t-79.5 -9.5t-67 -22.5t-45.5 -39.5l-33 88l120 168q7 -22 25 -35t43 -19t55.5 -7t63.5 -1h109v-1z" />
    <glyph glyph-name="greater" unicode="&#x3e;" horiz-adv-x="808" 
d="M708 697q0 -1 -62 -66q-3 -3 -16 -18t-35 -37l-49 -50.5l-55 -57.5l-159 -162q-85 -70 -138 -128l-177 89q112 95 149 137q25 21 126 120l76 76.5l67 67.5l72 72l-48 51l-198 167q-75 58 -260 182h159l375 -296q2 1 173 -147z" />
    <glyph glyph-name="question" unicode="?" horiz-adv-x="827" 
d="M215 1402q4 0 35.5 -4t76 -12t98.5 -21.5t104 -32.5t90.5 -44.5t57.5 -59.5q49 -88 50 -160v-5q0 -70 -27 -131q-28 -63 -76 -119.5l-97 -109.5q-31 -33 -64.5 -65t-64 -66.5t-54 -70t-30.5 -77.5l-134 -92q-1 16 -1 33q0 51 12 100q16 64 45 123t68.5 112t78.5 95
l77.5 89.5t63 88.5t32.5 93q2 13 2 27q0 35 -13 72q-20 56 -53 83.5t-71 38.5q-29 8 -55 8q-9 0 -17 -1q-35 -3 -57 -11q-61 -19 -93.5 -50.5t-46.5 -74.5q-13 -41 -13 -90v-6q1 -53 10 -118l-86 26l-63 229l210 203h5zM183 20v103l89 53l92 -53v-103l-92 -52z" />
    <glyph glyph-name="at" unicode="@" horiz-adv-x="1659" 
d="M763 544q-73 -8 -132.5 -69.5t-59.5 -174.5q0 -93 56 -169.5t160 -76.5q85 5 110 146v417q-47 -55 -134 -73zM1102 25q-55 1 -88 16t-54 47q-25 -32 -71.5 -56t-116.5 -24q-126 0 -224.5 88t-98.5 204q1 76 46.5 145.5t116 101t151.5 43.5q59 14 96.5 37t37.5 65
q-1 61 -35.5 110t-112.5 49q-63 0 -106.5 -52t-44.5 -109h-39v139q0 17 63 35q64 17 155 17q96 -2 170 -56.5t74 -137.5v-515q0 -103 82 -103q162 31 233.5 168t71.5 334q-17 294 -203 473q-172 164 -420 164q-179 0 -343 -120t-236 -311q-59 -156 -59 -316
q0 -274 113.5 -447.5t267 -254t278.5 -80.5q240 0 503 182v-66q-230 -161 -499 -161q-210 0 -403.5 107.5t-300 299.5t-106.5 404q0 211 108.5 406t302 299.5t399.5 104.5q317 0 533 -201.5t216 -495.5q0 -236 -154 -384q-153 -147 -303 -149z" />
    <glyph glyph-name="A" unicode="A" horiz-adv-x="1333" 
d="M595 1131l-261 -671h511zM524 1181q-23 52 -36.5 64.5t-34.5 12.5q-15 0 -30.5 -12.5t-15.5 -32.5q0 -21 15.5 -32t30.5 -11h16q8 0 12 3l-43 -98l-161 98l108 221l160 -25l158 -25l463 -1238q16 -39 67 -74q-8 -3 -25.5 -10.5t-36.5 -14.5q-22 -9 -46 -17q-47 24 -91 51
l-90 56q-19 9 -35 20.5t-34 22.5q23 5 40 14t34 27l-60 163h-605l-106 -265q-14 -31 -26 -47t-28 -29t-33 -13q-28 0 -52 12t-39 22l12 12q28 0 56 26t51 80l199 513l73.5 189l64 166.5l47.5 120.5t21 50z" />
    <glyph glyph-name="B" unicode="B" horiz-adv-x="1283" 
d="M395 626v-303q0 -239 263 -239q54 0 109.5 18t102.5 50.5t78.5 77t41.5 100.5q2 9 2 18v18q0 36 -7.5 81.5t-23 91.5t-39.5 86t-56 65q-41 32 -95 32q-25 0 -49 -5zM395 708l378 111q41 12 66 41t37.5 62.5t16 65t3.5 52.5q0 41 -23 82t-60.5 77t-82.5 61.5t-88 38.5
q-26 7 -64 7q-111 0 -183 -97v-501zM173 1249q-15 11 -31 11q-20 0 -35 -14q-13 -13 -13 -31v-4q2 -16 13.5 -24.5t24.5 -8.5q12 0 22 5l26 -118l-180 108l108 207l287 -36q91 20 184 29t170 23q36 -18 75.5 -45t76.5 -60t65.5 -69.5t44.5 -76.5q22 -54 22 -104
q0 -41 -12.5 -80.5t-30.5 -72.5t-38 -59t-34 -41q124 -39 194.5 -126t70.5 -219v-27l-5 -97q-9 -156 -130 -237.5t-331 -81.5h-328l-79.5 47l-79.5 48l-81 49l9 3q51 14 66.5 58t15.5 110v634q0 78 -6 131.5t-16.5 87.5t-22.5 53t-22 28z" />
    <glyph glyph-name="C" unicode="C" horiz-adv-x="1276" 
d="M0 634q0 115 46.5 213.5t118.5 180.5t158.5 146t168.5 111t146 74.5t91 36.5l364 -211q-14 -45 -30.5 -85.5l-32.5 -83.5l-52 -137l-19 15q-19 16 -47 34q11 16 29.5 55.5t18.5 84.5q0 35 -20 64q-19 27 -55.5 44.5t-82.5 26t-98 12.5t-102 4q-158 0 -251 -94
q-39 -41 -63.5 -101t-37.5 -123t-18 -121t-5 -96q7 -109 40.5 -220t100 -199.5t169 -144t249.5 -55.5q76 0 139.5 39.5t112 88.5t78 94t34.5 55q7 -25 12.5 -41.5l13.5 -42.5l-38.5 -94.5l-37.5 -95.5q-39 -25 -97.5 -41t-122 -24t-125 -10.5t-108.5 -2.5q-126 0 -244 49.5
t-210 143.5q-91 91 -142 210.5t-51 240.5z" />
    <glyph glyph-name="D" unicode="D" horiz-adv-x="1407" 
d="M402 224q0 -34 31 -60.5t76 -44.5t91.5 -28t77.5 -10q64 0 127 28t115 81q77 80 120 207.5t43 283.5v27q-4 113 -41.5 213t-95 179.5t-130 131t-145.5 69.5q-20 4 -37 6.5t-37 2.5q-130 0 -195 -122v-964zM173 1249q-15 11 -31 11q-20 0 -35 -14q-13 -13 -13 -31v-4
q2 -16 13.5 -24.5t24.5 -8.5q12 0 22 5l26 -118l-180 108l108 207l294 -36q2 2 47.5 9l102 15t110 17t75.5 12l118 -37q86 -26 157 -77.5t126.5 -119t92 -145t57.5 -158.5q10 -44 14.5 -91t4.5 -90q0 -89 -16.5 -173.5t-40.5 -155.5t-54.5 -124.5t-56.5 -81.5
q-22 -28 -81 -54.5t-130 -49t-140 -36.5t-107 -14q-16 0 -21 1l-516 158q9 2 10.5 2.5t8.5 2.5q29 9 46 31t25.5 50t10 62.5t1.5 66.5v522q0 96 -7.5 161.5t-18 108.5t-23 64.5t-24.5 28.5z" />
    <glyph glyph-name="E" unicode="E" horiz-adv-x="1203" 
d="M361 732h109q40 0 82 1.5t79.5 9.5t67 22.5t45.5 39.5l33 -88l-120 -168q-7 22 -25 35t-43 19t-55.5 7t-63.5 1h-109v-387q0 -34 32.5 -60.5t76 -44.5t91.5 -28t78 -10q95 0 178.5 58t138.5 160l147 -152q-43 -29 -100.5 -57.5t-119.5 -51t-124.5 -35.5t-115.5 -13
l-520 150q43 18 63.5 65.5t20.5 133.5v769q-12 65 -31 109.5t-50 60.5q-23 8 -48 8q-9 0 -19 -0.5t-19 -2.5l-21 -4l-19 -3l55 104l150 -18l104.5 -12.5t51.5 -5.5l337 52l114 -45q76 -31 138 -75.5t114 -90.5l-130 -135q-31 50 -75.5 95t-92.5 78.5t-98.5 52t-96.5 18.5h-7
q-65 -3 -117 -35.5t-86 -95.5v-431z" />
    <glyph glyph-name="F" unicode="F" horiz-adv-x="1164" 
d="M126 1278q-23 8 -48 8q-9 0 -21.5 -1.5t-25.5 -3.5q-14 -3 -31 -5l55 104q84 -11 152 -18q29 -4 56.5 -6.5t49 -5t35 -4.5t15.5 -2l335 52l113 -43q75 -29 138 -75.5t115 -92.5l-130 -135q-31 50 -75.5 95t-92.5 78.5t-98.5 52t-96.5 18.5h-7q-65 -3 -117 -35.5
t-86 -95.5v-430h109q40 0 82 2t79.5 9t67 21.5t45.5 39.5l33 -88l-120 -168q-7 22 -25 35t-43 19t-55.5 7t-63.5 1h-109v-258q0 -47 3.5 -95t13.5 -92t29 -78.5t49 -51.5l11 -7l-113 -38l-246 146q8 0 11 1q30 9 48 29.5t26.5 50.5t10 64.5t1.5 70.5v755q-10 65 -29 109.5
t-50 60.5z" />
    <glyph glyph-name="G" unicode="G" horiz-adv-x="1306" 
d="M0 643q0 117 48.5 216.5t123 181t164 144t171 107.5t145 71t86.5 33l101 -55l133.5 -83l134.5 -85l-46.5 -130l-46.5 -131l-34.5 16t-35.5 18l19.5 54.5t10.5 61.5q0 15 -4 33t-13 34q-20 27 -57 44t-84 26.5t-101 13.5t-105 4q-78 0 -142.5 -17t-110.5 -64
q-38 -43 -62.5 -104t-38.5 -124.5t-19.5 -120.5t-5.5 -93q8 -111 41.5 -223t102.5 -202.5t175 -147t255 -56.5q132 0 194 44.5t62 141.5v163q0 77 -35 130t-73 70q-14 8 -35 8q-26 0 -42 -11q-28 -23 -28 -75q0 -25 4 -49.5t11 -48.5q0 -6 2 -7l-122 -87v48q0 29 -1 54
q0 27 -1 49.5t-1 36.5l61 68l71 83.5l70 81.5l264 -136v-511q-47 -30 -124 -54.5t-158.5 -40.5t-153 -24.5t-109.5 -8.5q-131 0 -252.5 51.5t-218.5 150.5q-90 90 -140 209t-50 242z" />
    <glyph glyph-name="H" unicode="H" horiz-adv-x="1388" 
d="M173 1249q-15 11 -31 11q-20 0 -34 -13.5t-14 -35.5q2 -16 13.5 -24.5t24.5 -8.5q12 0 22 5l26 -118l-180 108l117 223q41 -9 70 -13.5t68 -11.5l147 -25v-586h616v620h183v-9q0 -5 -1 -7t-1 -6l-5.5 -42.5t-6 -56.5t-5 -55.5t-2.5 -38.5v-810q0 -47 2.5 -95t11.5 -92.5
t25 -78.5t45 -51l24 -11l-116 -37l-245 147l7 1q31 7 48 27t25 47.5t9.5 60.5t1.5 69v301h-616v-288q0 -45 4.5 -93t16 -92.5t30.5 -80.5t47 -55l10 -7l-115 -37q-41 22 -79 45l-78 47l-87 55q9 0 10 1q29 9 46 30.5t26.5 50.5t11 63.5t1.5 72.5v552q0 97 -7.5 159.5
t-18.5 100t-24 56.5t-23 26z" />
    <glyph glyph-name="I" unicode="I" horiz-adv-x="597" 
d="M173 1249q-15 11 -31 11q-20 0 -35 -14q-13 -13 -13 -31v-4q2 -16 13.5 -24.5t24.5 -8.5q12 0 22 5l26 -118l-180 108l117 223q20 -4 37 -8.5t45.5 -9.5l73.5 -13.5t119 -20.5v-987q0 -47 2.5 -96t12 -94t28.5 -80t51 -51l11 -7l-113 -38l-78 45l-78 46l-91 55l10 3
q33 7 50 28.5t25 50.5t8.5 64.5t0.5 73.5v551q0 94 -4 155t-12 98.5t-19 57t-23 30.5z" />
    <glyph glyph-name="J" unicode="J" horiz-adv-x="960" 
d="M467 1397l158.5 -24.5t159.5 -24.5l-22 -142v-727q0 -38 1 -72t9 -63t25 -48.5t49 -28.5l13 -4l-450 -272l-205 83l-205 84l77 328l75 -40l-15 -25q-8 -26 -8 -70q0 -57 28.5 -96.5t62.5 -62.5q42 -29 91 -43t99 -14q40 0 73 8t52 26q33 19 52.5 102.5t19.5 207.5v643
q0 29 -2.5 61t-14.5 59t-35 44t-62 17h-13q-15 -2 -29 -3.5t-32 -7.5z" />
    <glyph glyph-name="K" unicode="K" horiz-adv-x="1443" 
d="M173 1249q-15 11 -31 11q-20 0 -35 -14q-13 -13 -13 -31v-4q2 -16 13.5 -24.5t24.5 -8.5q12 0 22 5l26 -118l-180 108l115 223q41 -9 72.5 -14.5l72.5 -12.5q36 -5 70 -11.5l70 -13.5v-674l464 710h158q-13 -14 -34.5 -41l-44.5 -57.5l-43.5 -58.5t-30.5 -40l-113 -172
l-41.5 -65l-36.5 -57l-27 -42t-13 -21q27 -59 69 -137t96 -161t115 -164.5t124.5 -145.5t126.5 -103.5t120 -39.5q27 0 50 9q2 0 4 2v-5q0 -4 -1 -4t-1 -2v-1q-18 -22 -54.5 -45.5t-74.5 -31.5q-13 -4 -29 -5.5t-25 -1.5q-123 0 -260 99q-41 31 -94 100t-106.5 151.5
l-102 164t-78.5 136.5q-4 -5 -13 -18.5l-18 -27.5q-10 -18 -25 -38l-28 -41q-12 -16 -20.5 -28.5t-12.5 -12.5v-118q0 -47 3 -96t13.5 -93.5t29 -79.5t51.5 -52h-2l13 -7l-115 -38l-155 91l-91 55l11 3h-2q33 7 50 28.5t24.5 50.5t10 64.5t2.5 73.5v551q0 97 -7.5 159
t-18 100.5t-22.5 56.5t-22 25z" />
    <glyph glyph-name="L" unicode="L" horiz-adv-x="1206" 
d="M116 1292q-10 6 -43 6q-39 0 -73 -6l46 104l305 -57v-977q0 -50 4.5 -116.5t24.5 -120.5h267q56 0 117.5 11t116 49.5t96 112t57.5 198.5l35.5 -51.5t36.5 -51.5q-27 -97 -57.5 -196.5l-59.5 -196.5h-643l-245 147q7 0 10 2q29 10 46 30.5t26 49.5t10.5 63t1.5 70v582
q0 34 -1.5 89t-8.5 108.5t-23.5 95.5t-45.5 55z" />
    <glyph glyph-name="M" unicode="M" horiz-adv-x="1525" 
d="M173 1249q-15 11 -31 11q-20 0 -35 -14q-13 -13 -13 -31v-4q2 -16 13.5 -24.5t24.5 -8.5q12 0 22 5l26 -118l-180 108l117 223q41 -9 70 -14.5l68 -12.5l147 -25v-133l181 -248l67 -93l59 -81.5l43.5 -58t18.5 -24.5q11 14 44 59l77 102.5l91.5 121l88 116.5l66 88.5
t25.5 37.5v149h180l-16 -122l-6 -54q-2 -12 -2 -21v-826q0 -47 4 -96t14.5 -94t31 -82t56.5 -56l-113 -38l-94 62l-125 87q34 7 52 27.5t26.5 50.5t10 65.5t1.5 73.5v686l-412 -520l-176 223l-66 82.5l-59 74.5l-45 56.5t-23 27.5v-630q0 -47 3.5 -96t15.5 -94t33.5 -81
t56.5 -57l-114 -38q-26 13 -49 26.5l-51 30.5l-64 38.5l-84 50.5q34 5 54 29t28.5 55.5t11 66.5t2.5 61v559q0 97 -7.5 159t-18 99.5t-23.5 55.5t-23 27z" />
    <glyph glyph-name="N" unicode="N" horiz-adv-x="1389" 
d="M173 1249q-15 11 -31 11q-20 0 -35 -14q-13 -13 -13 -31v-4q2 -16 13.5 -24.5t24.5 -8.5q12 0 22 5l26 -118l-180 108l117 223l89.5 -16l71 -12.5t61.5 -12t60 -11.5v-113q1 -9 36 -58l112 -152l200.5 -264.5l304.5 -390.5v756q0 27 -5 58t-18 57.5t-33.5 44t-50.5 17.5
q-16 0 -35 -1.5t-41 -5.5q-3 0 -5.5 -0.5t-4.5 -0.5l27.5 60.5t23.5 44.5q10 -2 16 -4t15 -3q65 -14 129 -25l133 -23q-9 -42 -13.5 -86t-4.5 -85v-817q0 -47 2.5 -95t13.5 -93t31.5 -81t56.5 -55l-111 -38l-219 146q70 17 86 82l-315 401l-117.5 149.5l-105 131.5l-76 95.5
t-32.5 43.5v-687q0 -47 3.5 -95t14 -93t32 -81t57.5 -55q-20 -5 -57.5 -17t-55.5 -19l-244 144q34 3 53 25.5t27.5 54.5t11 69t2.5 67v545q0 93 -7.5 157.5t-17 105t-22.5 61t-23 27.5z" />
    <glyph glyph-name="O" unicode="O" horiz-adv-x="1430" 
d="M183 696q0 -63 11.5 -136t35.5 -145.5t63.5 -139.5t94 -118t126.5 -81.5t163 -30.5q176 0 287 111q45 46 76.5 105.5t51 121.5t27.5 121.5t8 112.5q0 130 -38.5 251t-106.5 213t-163 147t-208 55q-120 0 -201.5 -55t-132 -140.5t-72.5 -189.5t-22 -202zM605 1349
q12 4 43 10.5t69.5 13.5t78 13t67.5 11q12 -7 45.5 -31t80.5 -63t98 -90.5t97.5 -111.5t81.5 -126.5t47 -133.5q10 -42 13.5 -86t3.5 -79q0 -59 -12 -132.5t-41.5 -151t-78.5 -149t-124.5 -128.5t-179.5 -91t-240 -34q-154 0 -276 47t-206 134t-128 209.5t-44 271.5
q0 133 32 243t105 197.5t187.5 151.5t280.5 105z" />
    <glyph glyph-name="P" unicode="P" horiz-adv-x="1080" 
d="M640 1278q-19 8 -40.5 11t-41.5 3q-45 0 -84.5 -13.5t-74.5 -38.5v-443q7 -3 45.5 -23l81 -43l77 -42.5t34.5 -21.5q25 10 57 37.5t61 68.5t48.5 96.5t19.5 123.5v9q0 32 -13.5 71.5t-37 79t-57.5 72.5t-75 53zM173 1249q-15 11 -31 11q-20 0 -35 -14q-13 -13 -13 -31v-4
q2 -16 13.5 -24.5t24.5 -8.5q12 0 22 5l26 -118l-180 108l108 207q72 -14 142 -20.5t142 -15.5q85 11 135.5 21t166.5 31q13 -4 45 -22.5t70.5 -50.5t77 -75.5t63.5 -95.5q20 -41 25 -87.5t5 -82.5q0 -68 -18.5 -121.5t-49.5 -93.5q-28 -35 -64 -66.5t-71.5 -56t-67 -38
t-52.5 -14.5l-258 116v-355q0 -47 3.5 -95t14 -93t31.5 -81t56 -55l-112 -38l-246 146q36 8 55.5 31.5t28 55t11 65.5t2.5 64v547q0 93 -7.5 156.5t-17 104t-22.5 60t-23 28.5z" />
    <glyph glyph-name="Q" unicode="Q" horiz-adv-x="1517" 
d="M865 1397q13 -7 48 -32.5t81.5 -64t97.5 -90t96.5 -111t80 -125.5t46.5 -133q4 -22 6.5 -50t6.5 -52q2 -31 3 -62q0 -120 -27 -211t-60.5 -155.5t-66 -100.5l-42.5 -47q139 -117 259 -117h21v-3q0 -2 1 -3t1 -2q-21 -20 -56 -34t-79 -14q-51 0 -116.5 21t-143.5 68
q-85 -47 -176.5 -68t-186.5 -21q-154 0 -276 47t-206.5 134t-130.5 209.5t-46 271.5q0 133 35 242.5t108.5 197.5t189 152t274.5 107zM740 217l24 -38q-26 4 -44.5 5t-42.5 4l-45 5q6 51 13 99t13 98l109 24.5l111 24.5q9 -29 23.5 -55.5t42.5 -60.5l85 -85q41 81 70 181.5
t29 187.5v10q-1 130 -39.5 251t-106.5 213t-162 147t-207 55q-119 0 -199.5 -55t-131.5 -140.5t-73.5 -189.5t-22.5 -202q0 -63 12 -136t36 -145.5t63.5 -139.5t94 -118t127 -81.5t161.5 -30.5q154 0 266 97l-50 57l-52 68q-15 12 -27 24q-12 8 -25 15t-27 11h-7
q-4 0 -8.5 1t-7.5 1q-26 0 -41 -13q-21 -12 -22 -43q0 -12 9 -25q18 -21 43 -21h9z" />
    <glyph glyph-name="R" unicode="R" horiz-adv-x="1458" 
d="M640 1274q-39 20 -89 20q-36 0 -82 -10t-85 -37v-440q3 -2 9 -4t20 -9l70 -36q53 -28 97 -48l44 -22q21 11 55.5 34.5t66 59t54.5 85t23 108.5v27q0 31 -14.5 71t-39.5 79.5t-58 72.5t-71 49zM173 1249q-15 11 -31 11q-20 0 -35 -14q-13 -13 -13 -31v-4q2 -16 13.5 -24.5
t24.5 -8.5q12 0 22 5l26 -118l-180 108l108 207l276 -36l309 52q12 -4 44.5 -22.5t71 -49t77 -74.5t62.5 -98q20 -37 29 -85.5t9 -86.5q0 -72 -27 -131t-63.5 -102.5t-74 -74.5t-59.5 -43q16 -43 60 -117t103 -154.5t130.5 -150t145.5 -103.5q34 -18 80 -18q21 0 39.5 3.5
t32.5 7.5q2 -4 3.5 -9.5t1.5 -8.5q-24 -36 -75 -62.5t-105 -26.5q-56 0 -120 23t-134 71q-35 24 -72.5 67.5t-73.5 96.5t-70 111t-59.5 110.5l-44.5 93.5t-24 63l-195 89v-354q0 -48 4 -95t16.5 -92t35.5 -83t61 -62l-109 -38l-124.5 73l-122.5 73q36 8 55.5 31.5t28 55
t11 65.5t2.5 64v547q0 95 -7.5 157.5t-17 102t-22.5 60t-23 29.5z" />
    <glyph glyph-name="S" unicode="S" horiz-adv-x="953" 
d="M750 1281q4 -36 7 -72t7 -71q3 -20 5 -40.5t3 -40.5l-50 -32q-16 57 -34 105t-47.5 80.5t-75.5 50.5t-116 18q-28 0 -66 -7.5t-71.5 -29t-57 -58.5t-23.5 -95q0 -51 24.5 -95.5t63.5 -82t91.5 -68.5t107.5 -60q66 -32 124.5 -66t103 -76t73.5 -97t34 -132v-9
q0 -61 -44.5 -125t-105 -121.5t-120.5 -101.5l-89 -64l-414 161q-19 81 -39.5 157l-40.5 155l20 -11l25.5 -15t11.5 -10q63 -139 156 -206.5t228 -67.5q41 0 96.5 20.5t93.5 61.5q32 43 40 79t8 78q-6 41 -30 74.5t-61.5 62.5t-85 55l-99.5 53q-61 31 -120 69.5t-104.5 87
t-73.5 108.5t-28 135q0 14 1.5 32t5.5 36q9 50 64 97.5t121 87t127.5 67t88.5 38.5z" />
    <glyph glyph-name="T" unicode="T" horiz-adv-x="1333" 
d="M180 1269q-12 2 -22 2q-18 0 -32 -7q-23 -9 -27 -40v-6q0 -11 6 -24q7 -14 25 -14q17 0 24 3l26 -118l-180 108l117 223l499 -52l501 52l116 -223l-179 -108l25 118q7 -3 26 -3q17 0 24 14q5 13 5 24v6q-3 31 -25 40q-15 7 -33 7q-11 0 -22 -2l-296 -52
q-14 -6 -26.5 -14.5t-21.5 -33.5t-13 -72t-4 -124v-616q0 -47 2.5 -96t13 -93.5t30 -79.5t52.5 -52l11 -7l-116 -38q-39 21 -73.5 44t-74.5 46q-23 14 -48.5 27.5t-49.5 28.5l12 3q32 7 49 28.5t25 50.5t9 64.5t1 73.5v616q0 77 -4.5 124t-13 72t-22 34.5t-32.5 13.5z" />
    <glyph glyph-name="U" unicode="U" horiz-adv-x="1197" 
d="M1097 1348q-4 -16 -7 -47.5t-5.5 -65.5t-4 -65.5t-1.5 -47.5v-799q-6 -39 -35.5 -77.5t-72.5 -73t-94 -65t-97.5 -54.5t-85 -40l-55.5 -23l-79 24l-119.5 38.5t-129 46t-110.5 48.5q-68 45 -68 74v779q0 65 -6.5 108t-14.5 68.5t-19 38.5t-18 16q-14 5 -25 5
q-13 26 -26.5 68t-23.5 76h283v-935q2 -31 16.5 -76.5t56.5 -89t121.5 -76t216.5 -38.5h8q62 0 111 25t84 63t53.5 82.5t18.5 85.5v759q0 39 -5 63t-17 36.5t-32.5 17t-52.5 4.5q-9 0 -23.5 -1.5t-45.5 -8.5l55 105z" />
    <glyph glyph-name="V" unicode="V" horiz-adv-x="1129" 
d="M740 1396l289 -55l-72 -214q-31 -89 -65 -206.5l-66.5 -239.5t-60 -236.5t-45.5 -196.5q-9 -48 -13.5 -83.5t-4.5 -58.5q0 -38 9 -43l13 -5l-31.5 -23t-31.5 -21l-30 -21l-287 125l9 5q52 26 52 89q0 32 -9 66l-18 69l-139 529q-17 59 -36 118.5t-37.5 109.5t-37.5 88.5
t-35 58.5q-3 6 -14 14.5t-23 8.5l-19 -2l-37 124l283 -52l260 -1000q2 -12 7 -25q5 -21 18 -43q9 -14 37 -14q24 0 36.5 11t16.5 25l109 401l40.5 148.5l36 132l26.5 96t10 42.5q3 18 3 26v10q-1 50 -15.5 84t-50.5 54q-14 6 -26 6.5t-24 0.5q-20 0 -31.5 -0.5t-29.5 -4.5
l-18 -3z" />
    <glyph glyph-name="W" unicode="W" horiz-adv-x="1654" 
d="M1216 1291l50 103l288 -53q-1 -2 -1 -6q-2 -3 -2 -6q0 -2 -2 -7l-30 -86q-7 -19 -13.5 -41l-13 -42.5t-10 -36.5t-5.5 -21l-40.5 -139l-54 -184.5l-57.5 -203.5t-51 -195t-36.5 -161t-14.5 -101q0 -2 4.5 -20.5t20.5 -32.5l-95 -65l-141.5 63.5t-143.5 63.5q35 15 48 37
t13 55q0 32 -8 66t-18 69l-40 144l-28.5 106t-16.5 65q-36 -126 -58.5 -219.5t-36 -158.5t-18.5 -107t-5 -68q0 -23 4 -32.5t19 -18.5l-93 -65l-144.5 63.5l-142.5 63.5q35 17 46 39t11 53q0 32 -7.5 66t-17.5 69l-53 200.5l-54 201.5l-34 127q-15 56 -37 117t-45.5 115.5
t-45 96.5t-32.5 60q-2 4 -7 8.5t-14 4.5l-15 -2l-38 120l280 -50l278 -1061q3 -13 18.5 -18t32.5 -5q19 0 30.5 11t15.5 25l117.5 418.5l116.5 417.5h87q-8 -19 -14 -37t-15 -40q-11 -26 -20.5 -54t-18.5 -59l175 -653q4 -15 18 -22t34 -7q34 0 47 39l225 802
q-7 58 -17.5 111t-55.5 80q-12 4 -22 6.5t-21 2.5q-10 0 -21 -2t-22 -3q-2 0 -3.5 -1t-3.5 -1z" />
    <glyph glyph-name="X" unicode="X" horiz-adv-x="1172" 
d="M173 1249q-14 11 -31 11q-19 0 -34 -14q-14 -13 -14 -31v-4q2 -16 13.5 -24.5t24.5 -8.5q12 0 23 5l25 -118l-180 108l118 223q14 -4 45.5 -10t65 -14l66 -16l48.5 -12l131 -229l48.5 -86.5l42 -76l31.5 -55.5t14 -25l314 508h112l-96 -133l-142 -229l-52.5 -85
l-45.5 -75.5t-33 -53.5l-14 -21q2 -5 15.5 -32l34 -65.5l44.5 -87l50 -97.5l130 -257q31 -54 62.5 -96t82.5 -67l-40.5 -31.5l-39.5 -31.5l-31 -25l-135 47.5l-135 47.5q25 14 37.5 35.5t12.5 47.5l-6 24l-96 195l-36 74l-32.5 64.5t-23 47.5t-10.5 23l-185 -304l-183 -305
l-42.5 52.5l-41.5 50.5l14 15l11.5 9.5t7.5 5.5l29 33.5t43.5 57l66 96.5l97.5 149q38 63 70 111q12 22 25 41.5t22.5 35.5t17 26t7.5 11l-152 289t-97 169t-54 81.5z" />
    <glyph glyph-name="Y" unicode="Y" horiz-adv-x="1186" 
d="M172 1249q-15 11 -31 11q-20 0 -35 -14q-13 -13 -13 -31v-4q2 -16 13.5 -24.5t24.5 -8.5q12 0 23 5l25 -118l-179 108l116 223l59.5 -13.5l53 -12.5l52.5 -12.5t59 -13.5l307 -528l161 282l161 282h117l-90 -125l-150 -251l-57.5 -95l-51 -85.5l-37.5 -64.5t-20 -34v-368
q0 -47 3.5 -96t14 -94t31 -82t56.5 -56q-11 -4 -27 -8.5t-32.5 -10l-31 -10.5t-21.5 -9q-44 25 -85 51l-86 53l-72 42q34 8 54.5 27t31 45.5t13.5 60t3 70.5v291q-84 166 -150 283t-112 190.5t-71 108t-27 36.5z" />
    <glyph glyph-name="Z" unicode="Z" horiz-adv-x="1164" 
d="M243 1172q0 -20 13.5 -33.5t32.5 -13.5l17 -73q-56 30 -105.5 60l-102.5 60l134 208h832l-276 -447l-197 -318l-132.5 -212.5l-81.5 -128t-45.5 -66.5t-22.5 -25q83 -50 166 -75.5t176 -25.5q54 0 100 14.5t81.5 34.5t60 41t32.5 36l118 -138q-14 -9 -42.5 -22.5t-77 -26
t-116.5 -21.5t-159 -9q-45 0 -98 12.5t-98.5 27.5t-77 28t-32.5 15l-107.5 -41.5l-106.5 -39.5l-128 122q12 1 30 9.5t39.5 22.5t45.5 38.5t46 60.5l306 500l112.5 183.5l99.5 162.5l71.5 116t29.5 49q-77 21 -151.5 26.5t-149.5 5.5q-41 0 -78.5 -5t-78.5 -20
q-79 -35 -79 -92z" />
    <glyph glyph-name="bracketleft" unicode="[" horiz-adv-x="748" 
d="M94 702v436q0 36 -1.5 70t-10.5 63t-26 49.5t-46 30.5q-3 2 -10 2l245 147h373l29 -97l-83 -87q-109 57 -170.5 58t-114.5 1q-20 -54 -24.5 -120.5t-4.5 -116.5l1 -409v-467q0 -50 4.5 -116.5t24.5 -120.5q53 0 114.5 1t170.5 58l83 -87l-29 -97h-373l-245 147q7 0 10 2
q29 10 46 30.5t26 49.5t10.5 63t1.5 70z" />
    <glyph glyph-name="backslash" unicode="\" horiz-adv-x="1054" 
d="M543 684q0 -1 7.5 -11t17 -26t22.5 -35.5t25 -41.5q32 -48 70 -111l97.5 -149l66 -96.5t43.5 -57l29 -33.5q2 -1 7.5 -5.5l11.5 -9.5l14 -15l-41.5 -50.5l-42.5 -52.5l-183 305l-185 304q-118 179 -130 205q-13 20 -33 53.5l-45.5 75.5l-52.5 85l-142 229l-96 133h112
l314 -508q1 2 114 -188z" />
    <glyph glyph-name="bracketright" unicode="]" horiz-adv-x="748" 
d="M554 698v-436q0 -36 1.5 -70t10.5 -63t26 -49.5t46 -30.5q3 -2 10 -2l-245 -147h-373l-29 97l83 87q109 -57 170.5 -58t114.5 -1q20 54 24.5 120.5t4.5 116.5l-1 409v467q0 50 -4.5 116.5t-24.5 120.5q-53 0 -114.5 -1t-170.5 -58l-83 87l29 97h373l245 -147q-7 0 -10 -2
q-29 -10 -46 -30.5t-26 -49.5t-10.5 -63t-1.5 -70z" />
    <glyph glyph-name="asciicircum" unicode="^" horiz-adv-x="710" 
d="M273 1655q-101 -93 -183 -201l-90 79q81 117 305 320q98 -59 158 -125q32 -37 69 -75.5l78 -78.5l-120 -125q-146 166 -217 206z" />
    <glyph glyph-name="underscore" unicode="_" horiz-adv-x="996" 
d="M0 -87h896v-53h-896v53z" />
    <glyph glyph-name="grave" unicode="`" horiz-adv-x="503" 
d="M403 1449h-60l-289 177q-27 17 -40.5 34.5t-13.5 37.5q0 27 17.5 44.5t46.5 17.5q18 0 36 -10.5t48 -41.5z" />
    <glyph glyph-name="a" unicode="a" horiz-adv-x="963" 
d="M417 791l-183 -469h357zM367 827q-16 36 -25.5 45t-24.5 9q-10 0 -21 -9t-11 -23q0 -15 11 -22.5t21 -7.5h11q6 0 9 2l-30 -68l-113 68l75 155q53 -9 112.5 -18l110.5 -17l324 -867q11 -27 47 -51q-6 -3 -18 -8l-25 -10q-15 -6 -33 -12q-33 17 -63.5 36l-62.5 39
q-13 6 -24.5 14l-23.5 16q16 4 28 10t23 19l-41 114h-424l-74 -186q-10 -21 -18.5 -32.5t-19.5 -20.5t-24 -9q-19 0 -35.5 8.5t-27.5 15.5l8 8q20 0 39.5 18t36.5 56l139 359l51 133l45 116.5l33 84t15 35.5z" />
    <glyph glyph-name="b" unicode="b" horiz-adv-x="928" 
d="M276 438v-212q0 -167 184 -167q38 0 76.5 12.5t71.5 35t55.5 54t28.5 70.5q2 6 2 13v12q0 25 -5.5 57t-16 64t-27.5 60.5t-40 45.5q-28 22 -66 22q-18 0 -34 -3zM276 496l264 77q29 9 46.5 29t26.5 43.5t11.5 46t2.5 36.5q0 28 -16.5 57t-42.5 54t-57.5 43t-61.5 28
q-19 4 -45 4q-78 0 -128 -68v-350zM120 874q-10 8 -21 8q-14 0 -25 -10q-9 -9 -9 -21v-3q1 -11 9 -17.5t17 -6.5t16 4l18 -83l-125 76l75 145l201 -25q64 14 129 20t119 16q25 -12 52.5 -31t53.5 -42t46 -49t31 -53q15 -38 15 -73q0 -29 -8.5 -56.5t-21.5 -51t-26.5 -41.5
t-23.5 -28q86 -28 136 -89t50 -153v-19l-4 -67q-7 -110 -91.5 -167t-231.5 -57h-229l-56 33l-56 34l-56 33l6 3q35 10 46 41t11 77v444q0 54 -4 91.5t-11.5 61.5t-15.5 37t-16 19z" />
    <glyph glyph-name="c" unicode="c" horiz-adv-x="923" 
d="M0 444q0 80 33 149t83 126.5t111 102.5t118 77.5t102 52t64 25.5l254 -148q-10 -31 -21 -59.5l-22 -58.5l-37 -96l-13 11q-13 11 -33 24q7 11 20.5 38.5t13.5 59.5q0 24 -14 45q-14 19 -39.5 30.5t-58 18t-68.5 9t-71 2.5q-111 0 -176 -65q-27 -29 -44 -71t-26.5 -86
t-13 -85t-3.5 -67q5 -77 28.5 -154.5t70 -139.5t118.5 -101t175 -39q53 0 97.5 27.5t78 62t54.5 66t25 38.5l8.5 -29l8.5 -29q-12 -33 -26 -67t-26 -66q-28 -18 -69 -29.5t-85.5 -17t-87.5 -7t-76 -1.5q-88 0 -170.5 34.5t-146.5 100.5q-64 64 -100 147.5t-36 168.5z" />
    <glyph glyph-name="d" unicode="d" horiz-adv-x="1014" 
d="M281 157q0 -24 21.5 -42.5t53 -31.5t64 -20t54.5 -7q45 0 89 20t80 57q54 56 84 145.5t30 198.5v19q-2 79 -28.5 149t-66.5 125.5t-91 91.5t-102 49q-14 2 -26 4t-26 2q-91 0 -136 -85v-675zM120 874q-10 8 -21 8q-14 0 -25 -10q-9 -9 -9 -21v-3q1 -11 9 -17.5t17 -6.5
t16 4l18 -83l-125 76l75 145l206 -25q1 1 33 6t71.5 10.5t77 12t52.5 8.5l83 -26q60 -19 109.5 -54.5t88.5 -83t64.5 -102t40.5 -110.5q7 -31 10 -64t3 -63q0 -62 -11.5 -121t-28 -109t-38 -87t-40.5 -58q-15 -19 -56.5 -37.5t-91 -34.5t-98 -25.5t-74.5 -9.5q-11 0 -15 1
l-361 110q6 1 7.5 2t5.5 2q21 6 33 21.5t17.5 35t7 43.5t1.5 47v365q0 67 -5.5 113t-12.5 76t-16 45t-18 20z" />
    <glyph glyph-name="e" unicode="e" horiz-adv-x="872" 
d="M253 512h76q28 0 57.5 1.5t55.5 7t47 15.5t32 28l23 -62l-84 -118q-5 16 -17.5 25t-30 13t-39 5t-44.5 1h-76v-271q0 -24 22.5 -42.5t53 -31.5t64 -20t54.5 -7q67 0 125.5 41t96.5 112l103 -106q-30 -20 -70 -40t-83.5 -36t-87.5 -25t-81 -9l-364 105q30 12 44.5 45.5
t14.5 93.5v538q-9 46 -22 77t-34 42q-17 6 -34 6q-7 0 -13.5 -0.5t-13.5 -1.5t-15 -3l-13 -2l38 73l106 -13q40 -5 73 -8.5t36 -3.5l236 36l80 -31q52 -22 95.5 -53t80.5 -64l-91 -94q-22 35 -53 66.5t-64.5 55t-69 36.5t-67.5 13h-5q-46 -3 -82 -25.5t-60 -66.5v-302z" />
    <glyph glyph-name="f" unicode="f" horiz-adv-x="845" 
d="M89 894q-17 6 -34 6q-7 0 -15.5 -1l-17.5 -2q-10 -3 -22 -4l38 73l107 -13l39.5 -4t34.5 -4t24.5 -3t10.5 -1l235 36l79 -30q52 -20 96 -52.5t81 -65.5l-91 -94q-22 35 -53 66.5t-64.5 55t-69 36.5t-67.5 13h-5q-46 -3 -82 -25.5t-60 -66.5v-301h76q28 0 57.5 1.5
t55.5 6.5t47 15t32 28l23 -62l-84 -118q-5 16 -17.5 25t-30 13t-39 5t-44.5 1h-76v-181q0 -33 2.5 -66.5t9.5 -64.5t20 -55t34 -36l8 -5l-79 -26l-172 102q5 0 8 1q20 6 33 20.5t18.5 35t7 45t1.5 49.5v528q-8 46 -21 77t-34 42z" />
    <glyph glyph-name="g" unicode="g" horiz-adv-x="945" 
d="M0 450q0 82 34 151.5t86 126.5t115 101t120 75.5t101.5 49.5t60.5 23l71 -39q47 -27 93.5 -57l94.5 -60l-33 -91l-33 -92q-13 7 -24 12t-25 12q7 17 14.5 38.5t7.5 43.5q0 10 -3.5 22.5t-9.5 23.5q-14 19 -39.5 31t-58.5 18.5t-71 9.5t-74 3q-54 0 -99 -12t-78 -45
q-26 -30 -43 -72.5t-27 -87t-14 -84.5t-4 -65q5 -78 29 -156.5t72 -142t122.5 -103t178.5 -39.5q92 0 135.5 31.5t43.5 99.5v114q0 54 -24.5 91t-50.5 49q-11 5 -25 5q-18 0 -29 -7q-20 -16 -20 -53q0 -17 3 -34.5t8 -34.5q0 -3 1 -5l-85 -60v33q0 21 -1 38q0 19 -1 35
t-1 25l43 48l50 58.5l49 56.5l185 -95v-357q-33 -22 -87 -38.5t-111 -28t-107 -17.5t-77 -6q-92 0 -177 36t-153 105q-62 63 -97.5 146.5t-35.5 169.5z" />
    <glyph glyph-name="h" unicode="h" horiz-adv-x="1001" 
d="M120 874q-10 8 -21 8q-14 0 -24 -9.5t-10 -24.5q1 -11 9 -17.5t17 -6.5t16 4l18 -83l-125 76l81 156q29 -6 49 -9t48 -8l103 -18v-410h431v434h128v-6q0 -4 -0.5 -5.5t-0.5 -3.5q-2 -11 -4 -30l-4 -39.5t-4 -39t-2 -27.5v-566q0 -33 2 -67t8 -65t17.5 -54.5t31.5 -36.5
l17 -7l-81 -26l-172 103l5 1q22 5 33.5 18.5t17 33t7 42.5t1.5 48v211h-431v-201q0 -32 3 -66t11 -64.5t21.5 -56t32.5 -38.5l7 -5l-80 -26l-55.5 31.5l-54.5 33.5l-61 38q6 0 7 1q20 6 32 21t18.5 35t8 44.5t1.5 51.5v386q0 68 -5.5 111.5t-13.5 70t-16.5 39.5t-16.5 18z
" />
    <glyph glyph-name="i" unicode="i" horiz-adv-x="447" 
d="M120 874q-10 8 -21 8q-14 0 -25 -10q-9 -9 -9 -21v-3q1 -11 9 -17.5t17 -6.5t16 4l18 -83l-125 76l81 156q14 -3 26 -6t32 -6.5t51.5 -9.5t82.5 -14v-691q0 -33 2 -67.5t9 -66t20 -56t36 -35.5l7 -5l-79 -26l-54.5 31l-54.5 33l-64 38l7 2q23 5 35 20t17.5 35t6 45.5
t0.5 51.5v386q0 65 -3 107.5t-8.5 69t-13 40.5t-16.5 21z" />
    <glyph glyph-name="j" unicode="j" horiz-adv-x="702" 
d="M327 978q57 -8 111 -17l112 -18l-16 -99v-509q0 -26 1 -50t6.5 -44t17.5 -34t34 -20l9 -3l-315 -190l-143.5 58l-143.5 58l54 230l53 -28l-11 -17q-6 -19 -6 -49q0 -40 20.5 -67.5t44.5 -44.5q28 -20 62.5 -30t69.5 -10q28 0 51.5 5.5t36.5 18.5q23 14 36.5 72.5
t13.5 144.5v450q0 20 -1.5 43t-10 41.5t-24.5 30.5t-44 12h-9q-10 -1 -20 -2.5t-22 -4.5z" />
    <glyph glyph-name="k" unicode="k" horiz-adv-x="1039" 
d="M120 874q-10 8 -21 8q-14 0 -25 -10q-9 -9 -9 -21v-3q1 -11 9 -17.5t17 -6.5t16 4l18 -83l-125 76l80 156q29 -6 51 -10t50 -8q26 -4 49.5 -8.5l48.5 -9.5v-472l325 497h110l-23 -29l-31.5 -40l-30.5 -40.5t-21 -28.5l-79 -121l-29.5 -45l-25.5 -40l-19 -29t-9 -15
q19 -41 48.5 -95.5t67 -113t80 -115.5t87.5 -101.5t88.5 -72t84.5 -27.5q18 0 35 6q1 0 2 1v-6q-1 0 -1 -1v-2q-13 -15 -38.5 -31t-51.5 -22q-9 -3 -20.5 -4t-17.5 -1q-86 0 -182 69q-29 22 -66 70.5t-74.5 106l-71.5 114.5t-55 96q-3 -4 -9 -13.5l-12 -18.5q-8 -13 -18 -27
l-20 -29l-14 -19.5t-9 -8.5v-83q0 -33 2 -67.5t9.5 -65.5t20.5 -55.5t36 -36.5h-1l9 -5l-80 -26q-56 31 -109 64l-64 38l8 2h-1q22 5 34 20t17.5 35t7 45.5t1.5 51.5v386q0 68 -5 111t-12.5 70t-15.5 39.5t-16 17.5z" />
    <glyph glyph-name="l" unicode="l" horiz-adv-x="874" 
d="M82 905q-8 3 -30 3q-28 0 -52 -3l33 72l213 -40v-683q0 -36 3 -82t17 -84h187q39 0 82 7.5t81.5 34.5t67 78.5t40.5 138.5l25 -36l25 -36q-19 -68 -40.5 -137.5l-41.5 -137.5h-450l-171 103q4 0 7 1q20 7 32 21.5t18 35t7.5 44t1.5 49.5v407q0 24 -1.5 62t-6.5 76t-16 67
t-31 39z" />
    <glyph glyph-name="m" unicode="m" horiz-adv-x="1097" 
d="M120 874q-10 8 -21 8q-14 0 -25 -10q-9 -9 -9 -21v-3q1 -11 9 -17.5t17 -6.5t16 4l18 -83l-125 76l81 156l49 -10t48 -8l103 -18v-93l126 -174l47 -65l41.5 -57l30.5 -40.5t13 -17.5q8 10 31 41.5l53.5 71.5l64 84.5l61.5 81.5l46.5 62.5t18.5 26.5v104h125l-11 -85
l-4 -38q-1 -9 -1 -15v-578q0 -33 2.5 -67.5t10 -66t22 -57t39.5 -39.5l-79 -26q-33 20 -66.5 43l-86.5 61q23 5 36 19.5t18.5 35t7 46t1.5 51.5v480l-289 -364l-123 156l-46.5 58l-41.5 52l-31.5 39.5t-15.5 19.5v-441q0 -33 2.5 -67.5t10.5 -66t23 -56.5t40 -40l-80 -26
q-18 8 -34 17.5l-35.5 21.5l-45 27l-58.5 36q24 3 37.5 20t19.5 39t7.5 46.5t1.5 42.5v392q0 68 -5 111t-12.5 69.5t-16 39t-16.5 18.5z" />
    <glyph glyph-name="n" unicode="n" horiz-adv-x="1002" 
d="M120 874q-10 8 -21 8q-14 0 -25 -10q-9 -9 -9 -21v-3q1 -11 9 -17.5t17 -6.5t16 4l18 -83l-125 76l81 156q36 -6 62.5 -11l49.5 -9t43.5 -8.5t41.5 -7.5v-79q1 -6 25.5 -41t78.5 -106.5l140.5 -184.5l213.5 -274v529q0 19 -4 41t-12.5 40t-23 31t-36.5 13q-11 0 -24 -1.5
t-28 -3.5q-3 0 -4.5 -1t-3.5 -1q11 26 19.5 43t17.5 31q6 -1 10.5 -2.5t10.5 -2.5q45 -10 90 -17.5t93 -16.5q-6 -28 -9 -59t-3 -60v-572q0 -33 2 -66.5t9.5 -65t22 -56.5t39.5 -39l-78 -26l-153 102q49 12 60 57l-221 281l-82 104.5l-73.5 92l-53 67l-23.5 30.5v-481
q0 -33 2.5 -66.5t10 -65t22.5 -56.5t41 -39q-14 -3 -40.5 -11.5t-38.5 -13.5l-171 101q24 2 37 17.5t19 38.5t7.5 48.5t1.5 46.5v381q0 66 -5 111t-12 73t-15.5 42.5t-16.5 19.5z" />
    <glyph glyph-name="o" unicode="o" horiz-adv-x="1031" 
d="M128 487q0 -44 8.5 -95t25 -102t44.5 -97.5t66 -82.5t88.5 -57.5t113.5 -21.5q123 0 201 78q31 32 53.5 74t36 85t19 85t5.5 79q0 91 -27 175.5t-74.5 149t-114 103t-145.5 38.5q-84 0 -141 -38.5t-92.5 -98.5t-51 -132.5t-15.5 -141.5zM424 944q8 3 30 7.5l48.5 9.5
t54.5 9t48 8q8 -5 31.5 -21.5t56 -44.5t68.5 -63.5t68.5 -77.5t57 -88.5t33.5 -93.5q6 -30 8.5 -60.5t2.5 -55.5q0 -41 -8 -92.5t-28.5 -105.5t-55.5 -104t-87.5 -90.5t-125.5 -64t-168 -23.5q-107 0 -192.5 33t-144.5 94t-90 146.5t-31 189.5q0 93 23 170.5t73.5 138.5
t131 106t196.5 73z" />
    <glyph glyph-name="p" unicode="p" horiz-adv-x="786" 
d="M447 894q-13 6 -28 8.5t-29 2.5q-32 0 -59.5 -9.5t-52.5 -27.5v-310q5 -2 32 -16l57 -30l54 -30t24 -15q18 7 40 26t42.5 48t34 67.5t13.5 86.5v6q0 23 -9.5 50.5t-25.5 55t-40 51t-53 36.5zM120 874q-10 8 -21 8q-14 0 -25 -10q-9 -9 -9 -21v-3q1 -11 9 -17.5t17 -6.5
t16 4l18 -83l-125 76l75 145q50 -10 99 -14.5t99 -10.5q60 7 95.5 14l116.5 22q9 -3 31.5 -16t49.5 -35.5t54 -52.5t44 -66q14 -29 18 -62t4 -58q0 -48 -13.5 -85t-34.5 -65q-20 -25 -45 -47t-50 -39t-47 -26.5t-37 -10.5l-181 82v-249q0 -33 2.5 -66.5t10 -65t22 -56.5
t39.5 -39l-79 -26l-172 102q25 6 39 22t20 38t7.5 46t1.5 45v383q0 65 -5 109.5t-12 72.5t-15.5 42t-16.5 20z" />
    <glyph glyph-name="q" unicode="q" horiz-adv-x="1092" 
d="M606 978q9 -5 33.5 -23t57 -45t68.5 -62.5t67.5 -77.5t55.5 -88t33 -93q3 -16 5 -35.5t4 -36.5l2 -43q0 -84 -19 -148t-42.5 -109t-46 -70l-29.5 -33q97 -82 182 -82h14v-2q0 -1 0.5 -1.5t0.5 -2.5q-14 -14 -38.5 -23.5t-55.5 -9.5q-36 0 -81.5 15t-100.5 47
q-60 -32 -124 -47t-130 -15q-108 0 -193.5 33t-144.5 94t-91.5 146.5t-32.5 189.5q0 93 24.5 170t76 138.5t132.5 106.5t192 75zM518 152l17 -26q-18 2 -31 2.5t-30 3.5l-31 3q4 36 9 69.5t9 68.5l76.5 17l77.5 17q6 -20 16.5 -38.5t29.5 -42.5l60 -59q28 57 48.5 127
t20.5 131v7q-1 91 -28 175.5t-74.5 149t-113 103t-144.5 38.5q-84 0 -140 -38.5t-92 -98.5t-51.5 -132.5t-15.5 -141.5q0 -44 8 -95t25 -102t44.5 -97.5t66 -82.5t89 -57.5t113.5 -21.5q107 0 186 68l-36 40l-36 48q-10 8 -19 16q-8 6 -17 11t-19 8h-5q-3 0 -6 1t-5 1
q-18 0 -29 -10q-14 -8 -15 -30q0 -8 6 -17q13 -15 30 -15h6z" />
    <glyph glyph-name="r" unicode="r" horiz-adv-x="1050" 
d="M447 892q-27 14 -62 14q-25 0 -57.5 -7t-59.5 -26v-308q2 -1 7 -3q3 -2 13 -6l49 -26q37 -19 68 -33l31 -16q15 8 39 24.5t46 41.5t38 59.5t16 75.5v19q0 22 -10 50t-27.5 55.5t-40.5 51t-50 34.5zM120 874q-10 8 -21 8q-14 0 -25 -10q-9 -9 -9 -21v-3q1 -11 9 -17.5
t17 -6.5t16 4l18 -83l-125 76l75 145l193 -25l216 36q9 -3 31.5 -16t49.5 -34t54 -52t44 -68q14 -27 20 -61t6 -60q0 -50 -18.5 -91.5t-44.5 -72t-52 -52t-42 -30.5q12 -30 42.5 -82t72 -108t91.5 -104.5t102 -72.5q24 -13 56 -13q14 0 27.5 2.5t22.5 5.5q2 -3 3 -6.5
t1 -6.5q-17 -25 -53 -43.5t-73 -18.5q-39 0 -84 16t-94 50q-24 16 -50.5 47t-51.5 68t-49 77.5t-42 77t-31 65.5t-17 44l-136 62v-248q0 -33 3 -66t11.5 -64.5t24.5 -58t43 -43.5l-76 -26l-88 50.5l-86 51.5q25 6 39 22t20 38t7.5 46t1.5 45v383q0 66 -5 110t-12 71.5
t-15.5 42t-16.5 20.5z" />
    <glyph glyph-name="s" unicode="s" horiz-adv-x="697" 
d="M526 897q2 -25 4.5 -50.5t4.5 -50.5q2 -13 3.5 -27.5t2.5 -28.5l-35 -23q-11 41 -24 74t-33.5 56t-52.5 35.5t-81 12.5q-20 0 -46.5 -5.5t-50 -20.5t-40 -40.5t-16.5 -65.5q0 -37 17 -67.5t44.5 -57t64 -48.5t75.5 -42q46 -22 87 -46t72 -53.5t51.5 -68t23.5 -92.5v-6
q0 -43 -31 -88t-73.5 -85t-84 -71t-62.5 -44l-289 113l-28.5 109.5l-28.5 108.5l14 -8l18.5 -11t8.5 -6q43 -98 108.5 -145t159.5 -47q29 0 68 14.5t65 42.5q23 30 28.5 55.5t5.5 54.5q-4 29 -21 52.5t-43 43.5t-59.5 38.5l-69.5 37.5q-43 21 -84.5 48t-73.5 61t-51.5 76
t-19.5 94q0 10 1.5 22.5t3.5 25.5q7 35 45 68.5t84.5 61t89.5 47t62 26.5z" />
    <glyph glyph-name="t" unicode="t" horiz-adv-x="963" 
d="M125 888q-8 1 -15 1q-13 0 -23 -4q-16 -7 -18 -28v-4q0 -8 3 -17q5 -10 18 -10q12 0 17 2l18 -83l-125 76l81 156l349 -36l351 36l82 -156l-126 -76l18 83q5 -2 18 -2q12 0 17 10q3 9 3 17v4q-2 21 -17 28q-11 4 -24 4q-7 0 -15 -1l-207 -36q-10 -4 -19 -10.5t-15 -23.5
t-9 -50t-3 -87v-431q0 -33 2 -67.5t9 -65.5t21 -55.5t37 -36.5l8 -5l-81 -26q-28 15 -52 30.5t-52 31.5q-16 11 -34 20t-35 20l9 2q22 5 34 20t17.5 35t6 45.5t0.5 51.5v431q0 54 -3 87t-9 50t-15.5 24t-22.5 10z" />
    <glyph glyph-name="u" unicode="u" horiz-adv-x="868" 
d="M768 943q-3 -11 -4.5 -33t-3.5 -46t-3.5 -46t-1.5 -33v-559q-3 -28 -24 -54.5t-51 -50.5t-66 -45.5t-68 -38.5t-59 -28l-39 -16l-55.5 16.5t-83.5 26.5t-90 32.5t-78 34.5q-48 31 -48 51v546q0 45 -4.5 75t-10 48.5t-13 27t-12.5 11.5q-10 3 -17 3q-9 18 -18.5 47.5
l-17.5 53.5h199v-655q1 -21 11 -53t39.5 -62.5t85 -53.5t151.5 -27h6q43 0 77.5 18t59 44t37.5 57.5t13 60.5v531q0 27 -3.5 44t-12 26t-23 12t-36.5 3q-7 0 -17 -1.5t-31 -6.5l38 74z" />
    <glyph glyph-name="v" unicode="v" horiz-adv-x="821" 
d="M518 977l203 -39l-51 -149q-21 -63 -45 -145t-46.5 -167.5l-42 -165.5t-32.5 -138q-6 -33 -9 -58t-3 -41q0 -26 6 -30l9 -4q-12 -9 -21.5 -15.5t-22.5 -14.5l-21 -15l-201 88l7 3q36 18 36 62q0 23 -6 46.5l-13 48.5l-98 370q-11 42 -24.5 83t-26.5 76.5t-26 62.5t-24 41
q-3 4 -10.5 10t-16.5 6l-12 -1l-27 86l199 -36l182 -700q1 -9 5 -17q3 -16 12 -31q6 -10 26 -10q17 0 25.5 7.5t11.5 17.5l76 281l29 104.5l25 92l18 67t7 30.5q3 12 3 18v7q-1 35 -11.5 59t-35.5 38q-9 3 -17.5 4t-17.5 1q-14 0 -22 -1t-20 -3l-13 -3z" />
    <glyph glyph-name="w" unicode="w" horiz-adv-x="1188" 
d="M851 903l35 73l202 -38q-1 -1 -1 -3q-1 -3 -1 -5q0 -1 -2 -5l-21 -60q-5 -13 -9 -28.5t-9 -29.5t-7.5 -25.5t-3.5 -15.5l-28.5 -97l-37.5 -129.5l-40.5 -142t-36 -136.5t-25.5 -113t-10 -70q0 -1 3 -14.5t15 -23.5l-67 -45l-99 44.5l-100 44.5q24 10 33 26t9 38
q0 23 -5.5 46.5t-12.5 48.5l-28 101l-19.5 74t-12.5 45q-25 -88 -40.5 -153.5t-25 -111t-13 -75t-3.5 -46.5t3 -23.5t13 -13.5l-65 -45l-101 44.5l-100 44.5q24 12 32 27.5t8 36.5q0 23 -5.5 46.5l-11.5 48.5l-37.5 140l-37.5 141l-24 89q-11 39 -26.5 81.5t-31.5 81t-31 68
t-23 42.5q-1 2 -5 5t-10 3l-10 -1l-27 84l196 -35l195 -742q2 -10 12.5 -13.5t22.5 -3.5q14 0 22 7.5t11 17.5l81.5 293.5l82.5 292.5h60l-9.5 -26.5t-10.5 -27.5q-8 -18 -14.5 -38t-12.5 -41l122 -458q3 -10 13 -15t24 -5q24 0 32 28l158 561q-5 41 -12.5 78t-38.5 56
q-9 2 -16 4t-14 2q-8 0 -15.5 -1t-14.5 -3q-1 0 -2.5 -0.5t-2.5 -0.5z" />
    <glyph glyph-name="x" unicode="x" horiz-adv-x="851" 
d="M121 874q-10 8 -21 8q-14 0 -24 -10q-10 -9 -10 -21v-3q1 -11 9.5 -17.5t16.5 -6.5q9 0 17 4l17 -83l-126 76l82 156q10 -3 32 -7t46 -9.5t46.5 -11.5t33.5 -8l92 -161l33.5 -60l29.5 -53l22 -39t10 -17l220 355h79l-68 -93l-99 -161l-37 -59l-32 -52.5l-23 -37.5
l-10 -15q2 -3 11.5 -22l23.5 -46l31 -61l35 -68l91 -180q21 -38 43.5 -67.5t58.5 -47.5l-29 -21.5t-28 -22.5l-21 -17l-95 33l-94 33q17 11 26 26t9 32l-4 18l-68 136q-12 27 -24.5 52l-23 45t-16.5 33.5t-7 15.5l-129.5 -212.5l-127.5 -213.5l-30.5 36.5l-28.5 35.5l10 10
q3 4 7 7t5 4l21 23.5t30.5 40l46 67.5l68.5 104q26 44 49 78q8 15 17 29l16 25t12 18t5 8l-106 202.5t-68 118.5t-38 57t-14 17z" />
    <glyph glyph-name="y" unicode="y" horiz-adv-x="860" 
d="M121 874q-11 8 -22 8q-14 0 -24 -10q-9 -9 -9 -21v-3q1 -11 9 -17.5t17 -6.5t16 4l18 -83l-126 76l82 156l41 -9.5l37 -8.5l37 -8.5l42 -9.5l214 -370l113 197.5l113 197.5h81l-62 -88l-105 -175l-40.5 -67l-35.5 -60l-26.5 -45l-13.5 -23v-258q0 -33 2 -67.5t9.5 -66
t22 -57t39.5 -39.5q-8 -2 -19 -5.5l-22.5 -7t-21.5 -7.5l-15 -6q-31 17 -60 35.5l-60 37.5l-50 29q23 6 37.5 19t22 31.5t9.5 42t2 49.5v204q-59 116 -105.5 198t-78.5 133t-49.5 75.5t-18.5 25.5z" />
    <glyph glyph-name="z" unicode="z" horiz-adv-x="845" 
d="M170 820q0 -13 9.5 -22.5t22.5 -9.5l12 -52l-73.5 42.5l-72.5 41.5l95 146h582l-193 -313l-138 -222.5l-93 -148.5l-57 -90t-32 -46.5t-15 -17.5q57 -35 115.5 -52.5t123.5 -17.5q37 0 69.5 10t57.5 23.5t42 28.5t23 26l82 -97q-9 -6 -29.5 -15.5t-54 -18.5t-81.5 -15
t-111 -6q-32 0 -69 8.5t-69 19t-54 19.5t-23 10l-75 -28l-74 -28l-90 85q8 1 20.5 7t27.5 16t32 27t32 42l215 350l78.5 129l69.5 113.5l50.5 81t20.5 34.5q-54 14 -106 18t-105 4q-28 0 -54.5 -3.5t-55.5 -14.5q-55 -23 -55 -64z" />
    <glyph glyph-name="braceleft" unicode="{" horiz-adv-x="886" 
d="M408 207q0 -58 18.5 -95t44.5 -58.5t68 -36.5q57 36 80 68.5t37 80.5t27 105l103 -113q-3 -35 -5.5 -71t-5.5 -72l-208 -115q-21 11 -69 38.5t-100 67t-95 87t-50 97.5l-1 222q-2 198 -175 208l-74 -1l97 135l35 -2q114 94 118 245l2 223q10 45 48 88q43 47 95 86.5
t100 67t69 38.5l208 -115q3 -36 5.5 -72t5.5 -71l-113 -113q-13 57 -27 105t-32 80.5t-75 68.5q-84 -28 -112 -95q-8 -15 -9 -33q-4 -59 -4 -255q-9 -147 -165 -286q148 -16 158 -312z" />
    <glyph glyph-name="bar" unicode="|" horiz-adv-x="467" 
d="M102 1234q0 47 -2.5 96t-12 94t-28.5 80t-51 51l-11 7l113 38l78 -45l78 -46l91 -55l-10 -3q-33 -7 -50 -28.5t-25 -50.5t-8.5 -64.5t-0.5 -73.5v-543h-1v-534q0 -47 2.5 -96t12 -94t28.5 -80t51 -51l11 -7l-113 -38l-78 45l-78 46l-91 55l10 3q33 7 50 28.5t25 50.5
t8.5 64.5t0.5 73.5v543z" />
    <glyph glyph-name="braceright" unicode="}" horiz-adv-x="886" 
d="M381 1193q0 58 -18.5 95t-45 58.5t-67.5 36.5q-57 -36 -80 -68.5t-37.5 -80.5t-26.5 -105l-103 113q3 35 5.5 71t5.5 72l208 115q21 -11 69 -38.5t100 -67t95 -87t50 -97.5l1 -222q2 -198 175 -208l74 1l-97 -135l-36 2q-113 -94 -117 -245l-2 -223q-10 -45 -48 -88
q-43 -47 -95 -86.5t-100 -67t-69 -38.5l-208 115q-3 36 -5.5 72t-5.5 71l113 113q12 -57 26.5 -105t32.5 -80.5t75 -68.5q84 28 112 95q8 15 9 33q3 59 4 255q9 147 165 286q-149 16 -159 312v195z" />
    <glyph glyph-name="asciitilde" unicode="~" horiz-adv-x="874" 
d="M592 1519q-104 -27 -137 -27q-39 0 -104.5 35t-110.5 35q-60 -5 -240 -86l183 183q124 55 185 55q41 0 103.5 -38.5t105.5 -38.5q54 0 197 53z" />
    <glyph glyph-name="exclamdown" unicode="&#xa1;" horiz-adv-x="317" 
d="M147 1030l70 -914l-178 -126l-39 123l62 860zM195 1348v-101l-86 -52l-88 52v101l88 49z" />
    <glyph glyph-name="cent" unicode="&#xa2;" horiz-adv-x="870" 
d="M368 271q-53 6 -104 26q-77 30 -137 86q-60 54 -93.5 125.5t-33.5 144.5q0 69 30.5 128t77.5 108t104 87.5t110 66.5l49 24q-5 29 -13 52q-9 25 -24 36l-5 5l53 26l36 -31.5t37 -31.5l17 -16q3 1 5 2l238 -126q-9 -27 -19.5 -51l-21.5 -50l-33 -82l-13 8q-13 10 -31 21
q7 9 19.5 33t12.5 51q0 21 -14 38q-12 16 -36 26.5t-54 16t-64 7.5l-7 1v-312h-1v-234q0 -33 1 -67t6 -66q0 -4 1 -8q25 -3 54 -3q49 0 91 24t73.5 53t51 56t22.5 33q4 -15 8 -24.5t9 -25.5l-25.5 -57l-24.5 -57q-26 -15 -64 -24.5t-79.5 -14.5t-81.5 -6q-12 -1 -22 -1v-1
q9 -24 24 -35l5 -5l-53 -27l-36 31.5l-37 32.5zM377 1003q-92 -4 -147 -56q-26 -25 -42 -61t-24.5 -73.5t-12 -72.5t-3.5 -57q5 -65 27 -131.5t65.5 -119.5t110.5 -87q8 -4 17 -7q3 10 5 22q4 20 4 45v291h1v234q0 33 -1 67v6z" />
    <glyph glyph-name="sterling" unicode="&#xa3;" horiz-adv-x="1118" 
d="M362 606l1 -244q0 -50 4.5 -141.5t54.5 -95.5h137q56 0 117.5 11t116 49.5t96 112t57.5 198.5l35.5 -51.5t36.5 -51.5q-27 -97 -57.5 -196.5l-59.5 -196.5h-733l-165 149q49 10 116 30.5t76 49.5t10.5 63t1.5 70v243q-32 -3 -61 -9q-38 -8 -67.5 -22.5t-45.5 -39.5
l-33 88l120 168q7 -22 25 -35t43 -19q9 -2 19 -4v306q0 14 1.5 32t5.5 36q9 50 64 97.5t121 87t127.5 67t88.5 38.5l265 -115q4 -36 7 -72t7 -71q3 -20 5 -40.5t3 -40.5l-50 -32q-16 57 -34 105t-47.5 80.5t-75.5 50.5t-116 18q-28 0 -66 -7.5t-71.5 -29t-57 -58.5
t-23.5 -95l1 -361h54v-1h23q40 0 82 1.5t79.5 9.5t67 22.5t45.5 39.5l33 -88l-120 -168q-7 22 -25 35t-43 19t-55.5 7t-63.5 1h-77z" />
    <glyph glyph-name="currency" unicode="&#xa4;" horiz-adv-x="1172" 
d="M456 743q0 -44 6.5 -96.5t21 -98t38.5 -76t58 -30.5q35 0 57 28t34.5 69.5t17 86t4.5 76.5v4q0 53 -9.5 108t-27 99.5t-41.5 72.5t-53 28t-49.5 -25.5t-33 -65t-18 -87.5t-5.5 -93zM361 942l-17 31q-60 109 -97 169t-54 81.5l-20 25.5q-14 11 -31 11q-19 0 -34 -14
q-14 -13 -14 -31v-4q2 -16 13.5 -24.5t24.5 -8.5q12 0 23 5l25 -118l-180 108l118 223q14 -4 45.5 -10t65 -14l66 -16l48.5 -12l131 -229q8 -13 15 -26q30 18 65 32q5 3 20 7.5l31 9l29.5 8t14.5 3.5q42 -41 77 -90l198 321h112l-96 -133l-142 -229l-24 -39q6 -10 11 -21
q27 -57 35 -120q2 -25 3 -53.5t1 -52.5q0 -59 -12 -128q-9 -45 -24 -86q5 -9 9 -17l130 -257q31 -54 62.5 -96t82.5 -67l-40.5 -31.5l-39.5 -31.5l-31 -25l-135 47.5l-135 47.5q25 14 37.5 35.5t12.5 47.5l-6 24l-78 159q-37 -18 -85 -18q-57 0 -103 27q-28 16 -51 42
l-66 -110l-183 -305l-42.5 52.5l-41.5 50.5l14 15l11.5 9.5t7.5 5.5l29 33.5t43.5 57l66 96.5l97.5 149l13 21q-18 37 -29 82q-18 71 -18 157q0 132 41 223z" />
    <glyph glyph-name="yen" unicode="&#xa5;" horiz-adv-x="1186" 
d="M479 734q-52 101 -97 180q-66 117 -112 190.5t-71 108t-27 36.5q-15 11 -31 11q-20 0 -35 -14q-13 -13 -13 -31v-4q2 -16 13.5 -24.5t24.5 -8.5q12 0 23 5l25 -118l-179 108l116 223l59.5 -13.5l53 -12.5l52.5 -12.5t59 -13.5l307 -528l161 282l161 282h117l-90 -125
l-150 -251l-57.5 -95l-51 -85.5l-37.5 -64.5q-10 -18 -16 -27q33 0 68 2q42 1 79.5 9t67 22.5t45.5 39.5l33 -88l-120 -168q-7 22 -25 35t-43 19t-55 7q-26 1 -54 1v-189q35 0 72 2q42 1 79.5 9t67 22.5t45.5 39.5l33 -88l-120 -168q-7 22 -25 35t-43 19t-55 7q-26 1 -53 1
q1 -20 3 -40q3 -49 13.5 -94t31 -82t56.5 -56q-11 -4 -27 -8.5t-32.5 -10l-31 -10.5t-21.5 -9q-44 25 -85 51l-86 53l-72 42q34 8 54.5 27t31 45.5t13.5 60.5q1 15 2 32q-37 0 -75 -1q-42 -2 -79.5 -10t-67 -22.5t-45.5 -39.5l-33 88l120 168q7 -22 25 -35t43 -19t56 -7
q27 -1 57 -1v189q-37 0 -76 -1q-42 -2 -79.5 -10t-67 -22.5t-45.5 -39.5l-33 88l120 168q7 -22 25 -35t43 -19t56 -7h4z" />
    <glyph glyph-name="brokenbar" unicode="&#xa6;" horiz-adv-x="467" 
d="M101 793l1 441q0 47 -2.5 96t-12 94t-28.5 80t-51 51l-11 7l113 38l78 -45l78 -46l91 -55l-10 -3q-33 -7 -50 -28.5t-25 -50.5t-8.5 -64.5t-0.5 -73.5v-542zM262 571v-414q0 -47 2.5 -96t12 -94t28.5 -80t51 -51l11 -7l-113 -38l-78 45l-78 46l-91 55l10 3q33 7 50 28.5
t25 50.5t8.5 64.5t0.5 73.5v514z" />
    <glyph glyph-name="section" unicode="&#xa7;" horiz-adv-x="953" 
d="M326 733q0 -44 6.5 -96.5t21 -98t38.5 -76t58 -30.5q35 0 57 28t34.5 69.5t17 86t4.5 76.5v4q0 53 -9.5 108t-27 99.5t-41.5 72.5t-53 28t-49.5 -25.5t-33 -65t-18 -87.5t-5.5 -93zM193 779l-14 16q-46 48 -74 108t-28 135q0 14 1.5 32t5.5 36q9 50 64 97.5t121 87
t127.5 67t88.5 38.5l265 -115q4 -36 7 -72t7 -71q3 -20 5 -40.5t3 -40.5l-50 -32q-16 57 -34 105t-47.5 80.5t-75.5 50.5t-116 18q-28 0 -66 -7.5t-71.5 -29t-57 -58.5t-23.5 -95q0 -51 25 -95q2 -5 4 -8q56 82 164 125q5 3 20 7.5l31 9l29.5 8t14.5 3.5q43 -42 78 -92
q31 -43 58 -99.5t35 -119.5q2 -25 3 -53.5t1 -52.5q0 -18 -1 -38q28 -20 53 -43q44 -42 73 -97t34 -132v-9q0 -61 -44.5 -125t-105 -121.5t-120.5 -101.5l-89 -64l-414 161q-19 81 -39.5 157l-40.5 155l20 -11l25.5 -15t11.5 -10q63 -139 156 -206.5t228 -67.5
q41 0 96.5 20.5t93.5 61.5q32 43 40 79t8 78q-6 41 -30 75q-2 3 -5 6q-2 -4 -4 -9q-30 -60 -78 -99.5t-120 -39.5q-57 0 -103 27t-79.5 77.5t-51.5 121.5t-18 157q0 37 3 70z" />
    <glyph glyph-name="dieresis" unicode="&#xa8;" horiz-adv-x="700" 
d="M381 1510v127l109 63l110 -63v-127l-110 -65zM0 1509v128l109 63l110 -63v-128l-110 -64z" />
    <glyph glyph-name="copyright" unicode="&#xa9;" horiz-adv-x="1000" 
d="M130 1015q0 58 23.5 107t59.5 90t79 73t84 55.5t73 37.5t46 18l182 -105q-7 -23 -15.5 -43t-16.5 -42l-26 -68l-9 7q-10 8 -24 17q6 8 15 28t9 42q0 18 -10 32q-9 14 -27.5 22.5t-41.5 13t-49 6.5t-51 2q-79 0 -125 -47q-20 -21 -32 -51t-18.5 -61.5t-9 -60.5t-2.5 -48
q3 -54 20 -109.5t50 -100t84.5 -72t124.5 -27.5q38 0 70 19.5t56 44t39 47t17 27.5q4 -12 6.5 -20.5l6.5 -21.5l-19 -47t-19 -48q-19 -12 -48.5 -20t-61 -12t-62.5 -5.5t-54 -1.5q-63 0 -122 25t-105 72q-46 45 -71.5 105t-25.5 120zM768 1361q132 -139 132 -336t-132 -336
t-318 -139t-318 139t-132 336t132 336t318 139t318 -139zM450 1450q-166 0 -283 -124.5t-117 -300.5t117 -300.5t283 -124.5t283 124.5t117 300.5t-117 300.5t-283 124.5z" />
    <glyph glyph-name="ordfeminine" unicode="&#xaa;" 
d="M0 200v1100q0 200 200 200h1100q200 0 200 -200v-1100q0 -200 -200 -200h-1100q-200 0 -200 200zM1475 201v1099q0 175 -175 175h-1100q-174 0 -175 -175v-1100q1 -175 175 -175h1101q174 0 174 176z" />
    <glyph glyph-name="guillemotleft" unicode="&#xab;" horiz-adv-x="1208" 
d="M173 844l375 296h160q-185 -124 -260 -182l-198 -167l-49 -51l72 -72l67.5 -67.5l75.5 -76.5q102 -99 127 -120q37 -42 149 -137l-178 -89q-53 58 -138 128l-159 162l-54 57.5l-49 50.5t-35 37t-16 18q-62 65 -62 66q171 148 172 147zM573 844l375 296h160
q-185 -124 -260 -182l-198 -167l-49 -51l72 -72l67.5 -67.5l75.5 -76.5q102 -99 127 -120q37 -42 149 -137l-178 -89q-53 58 -138 128l-159 162l-54 57.5l-49 50.5t-35 37t-16 18q-62 65 -62 66q171 148 172 147z" />
    <glyph glyph-name="logicalnot" unicode="&#xac;" 
d="M0 200v1100q0 200 200 200h1100q200 0 200 -200v-1100q0 -200 -200 -200h-1100q-200 0 -200 200zM1475 201v1099q0 175 -175 175h-1100q-174 0 -175 -175v-1100q1 -175 175 -175h1101q174 0 174 176z" />
    <glyph glyph-name="registered" unicode="&#xae;" horiz-adv-x="1000" 
d="M430 1335q-19 10 -44 10q-18 0 -41 -5t-43 -18v-220q2 -1 5 -2t10 -5l35 -18q26 -14 48 -24q11 -5 22 -11q11 6 28 17.5t33 29.5t27.5 42.5t11.5 54.5v13q0 16 -7.5 36t-20 39.5t-29 36t-35.5 24.5zM748 741q102 120 102 284q0 176 -117 300.5t-283 124.5
q-125 0 -222 -70l74 -10l155 26q6 -2 22 -11t35.5 -24.5t38.5 -37.5t31 -49q10 -18 14.5 -42.5t4.5 -43.5q0 -36 -13.5 -65.5t-31.5 -51t-37 -37t-30 -21.5q8 -22 30 -59t51.5 -77t65.5 -75t73 -52q16 -8 37 -9zM126 1275q-76 -108 -76 -250q0 -176 117 -300.5t283 -124.5
q143 0 250 93h-1q-28 0 -60 11.5t-67 35.5q-17 12 -36 34t-37 48.5t-35 55.5t-29.5 55l-22 46.5t-12.5 31.5l-97 45v-177q0 -24 2 -47.5t8 -46t17.5 -41.5t30.5 -31l-54 -19l-62.5 36.5l-61.5 36.5q18 4 28 15.5t14 27.5t5.5 33t1.5 32v273q0 48 -4 79t-8.5 51t-11 30
t-11.5 15q-8 5 -16 5q-10 0 -17 -7q-7 -6 -7 -15v-2q1 -8 7 -12.5t12 -4.5t11 3l13 -59zM900 1025q0 -197 -132 -336t-318 -139t-318 139t-132 336t132 336t318 139t318 -139t132 -336z" />
    <glyph glyph-name="macron" unicode="&#xaf;" 
d="M0 200v1100q0 200 200 200h1100q200 0 200 -200v-1100q0 -200 -200 -200h-1100q-200 0 -200 200zM1475 201v1099q0 175 -175 175h-1100q-174 0 -175 -175v-1100q1 -175 175 -175h1101q174 0 174 176z" />
    <glyph glyph-name="degree" unicode="&#xb0;" horiz-adv-x="586" 
d="M244 1201q-76 0 -129.5 -53.5t-53.5 -129.5t53.5 -128.5t129.5 -52.5t128.5 52.5t52.5 128.5t-53 129.5t-128 53.5zM244 1262q100 0 171 -71.5t71 -171.5t-71.5 -172t-172.5 -72q-102 0 -172 71t-70 173q0 101 71 172t173 71z" />
    <glyph glyph-name="plusminus" unicode="&#xb1;" 
d="M0 200v1100q0 200 200 200h1100q200 0 200 -200v-1100q0 -200 -200 -200h-1100q-200 0 -200 200zM1475 201v1099q0 175 -175 175h-1100q-174 0 -175 -175v-1100q1 -175 175 -175h1101q174 0 174 176z" />
    <glyph glyph-name="uni00B2" unicode="&#xb2;" 
d="M0 200v1100q0 200 200 200h1100q200 0 200 -200v-1100q0 -200 -200 -200h-1100q-200 0 -200 200zM1475 201v1099q0 175 -175 175h-1100q-174 0 -175 -175v-1100q1 -175 175 -175h1101q174 0 174 176z" />
    <glyph glyph-name="uni00B3" unicode="&#xb3;" 
d="M0 200v1100q0 200 200 200h1100q200 0 200 -200v-1100q0 -200 -200 -200h-1100q-200 0 -200 200zM1475 201v1099q0 175 -175 175h-1100q-174 0 -175 -175v-1100q1 -175 175 -175h1101q174 0 174 176z" />
    <glyph glyph-name="acute" unicode="&#xb4;" horiz-adv-x="503" 
d="M255 1708q30 31 48 41.5t36 10.5q29 0 46.5 -17.5t17.5 -44.5q0 -20 -13.5 -37.5t-40.5 -34.5l-289 -177h-60z" />
    <glyph glyph-name="mu" unicode="&#xb5;" horiz-adv-x="868" 
d="M93 165v535q0 46 -4.5 76t-10 47.5t-13.5 27t-12 11.5q-10 3 -18 3q-9 18 -18.5 47.5t-16.5 53.5h198v-654q2 -22 12 -54t39.5 -62.5t85 -53t151.5 -26.5h5q44 0 78 17.5t58.5 44t37.5 57.5t13 60v531q0 27 -3.5 44t-11.5 25.5t-22.5 12t-37.5 3.5q-6 0 -16 -1t-32 -6
l39 73l174 -33q-3 -12 -5 -34l-4 -45.5t-3 -45.5t-1 -34v-559q-4 -27 -24.5 -54t-50.5 -51t-66 -45.5t-68.5 -38.5t-59.5 -28l-39 -16l-54.5 17l-84.5 27q-34 11 -69 24q14 -25 36 -36l8 -5l-79 -26l-55 31.5l-54 31.5l-64 39l7 2q23 5 35 20t17 35q2 6 3 12z" />
    <glyph glyph-name="paragraph" unicode="&#xb6;" horiz-adv-x="832" 
d="M732 1256v-62h-111v-1194h-72v1194h-145v-1194h-74v646q-152 7 -241 89.5t-89 214.5q0 138 94.5 222t249.5 84h388z" />
    <glyph glyph-name="periodcentered" unicode="&#xb7;" horiz-adv-x="319" 
d="M0 765v128l109 63l110 -63v-128l-110 -64z" />
    <glyph glyph-name="periodcentered" unicode="&#x2219;" horiz-adv-x="319" 
d="M0 765v128l109 63l110 -63v-128l-110 -64z" />
    <glyph glyph-name="cedilla" unicode="&#xb8;" horiz-adv-x="535" 
d="M0 -261q90 -54 162 -54q71 0 101 22.5t30 70.5t-52 69q-43 17 -108 17q-17 0 -37 -3l51 188h67l-39 -111q34 5 66 5q91 0 142.5 -42.5t51.5 -120.5q0 -82 -62 -129.5t-172 -47.5q-96 0 -151 34z" />
    <glyph glyph-name="uni00B9" unicode="&#xb9;" 
d="M0 200v1100q0 200 200 200h1100q200 0 200 -200v-1100q0 -200 -200 -200h-1100q-200 0 -200 200zM1475 201v1099q0 175 -175 175h-1100q-174 0 -175 -175v-1100q1 -175 175 -175h1101q174 0 174 176z" />
    <glyph glyph-name="ordmasculine" unicode="&#xba;" 
d="M0 200v1100q0 200 200 200h1100q200 0 200 -200v-1100q0 -200 -200 -200h-1100q-200 0 -200 200zM1475 201v1099q0 175 -175 175h-1100q-174 0 -175 -175v-1100q1 -175 175 -175h1101q174 0 174 176z" />
    <glyph glyph-name="guillemotright" unicode="&#xbb;" horiz-adv-x="1208" 
d="M1108 697q0 -1 -62 -66q-3 -3 -16 -18t-35 -37l-49 -50.5l-55 -57.5l-159 -162q-85 -70 -138 -128l-177 89q112 95 149 137q25 21 126 120l76 76.5l67 67.5l72 72l-48 51l-198 167q-75 58 -260 182h159l375 -296q2 1 173 -147zM708 697q0 -1 -62 -66q-3 -3 -16 -18
t-35 -37l-49 -50.5l-55 -57.5l-159 -162q-85 -70 -138 -128l-177 89q112 95 149 137q25 21 126 120l76 76.5l67 67.5l72 72l-48 51l-198 167q-75 58 -260 182h159l375 -296q2 1 173 -147z" />
    <glyph glyph-name="onequarter" unicode="&#xbc;" 
d="M0 200v1100q0 200 200 200h1100q200 0 200 -200v-1100q0 -200 -200 -200h-1100q-200 0 -200 200zM1475 201v1099q0 175 -175 175h-1100q-174 0 -175 -175v-1100q1 -175 175 -175h1101q174 0 174 176z" />
    <glyph glyph-name="onehalf" unicode="&#xbd;" 
d="M0 200v1100q0 200 200 200h1100q200 0 200 -200v-1100q0 -200 -200 -200h-1100q-200 0 -200 200zM1475 201v1099q0 175 -175 175h-1100q-174 0 -175 -175v-1100q1 -175 175 -175h1101q174 0 174 176z" />
    <glyph glyph-name="threequarters" unicode="&#xbe;" 
d="M0 200v1100q0 200 200 200h1100q200 0 200 -200v-1100q0 -200 -200 -200h-1100q-200 0 -200 200zM1475 201v1099q0 175 -175 175h-1100q-174 0 -175 -175v-1100q1 -175 175 -175h1101q174 0 174 176z" />
    <glyph glyph-name="questiondown" unicode="&#xbf;" horiz-adv-x="827" 
d="M512 -32q-4 0 -35.5 4t-76 12t-98.5 21.5t-104 32.5t-90.5 44.5t-57.5 59.5q-49 88 -50 160v5q0 70 27 131q28 63 76 119.5l97 109.5q31 33 64.5 65t64 66.5t54 70t30.5 77.5l134 92q1 -16 1 -33q0 -51 -12 -100q-16 -64 -45 -123t-68.5 -112t-78.5 -95l-77.5 -89.5
t-63 -88.5t-32.5 -93q-2 -13 -2 -27q0 -35 13 -72q20 -56 53 -83.5t71 -38.5q29 -8 55 -8q9 0 17 1q35 3 57 11q61 19 93.5 50.5t46.5 74.5q13 41 13 90v6q-1 53 -10 118l86 -26l63 -229l-210 -203h-5zM544 1350v-103l-89 -53l-92 53v103l92 52z" />
    <glyph glyph-name="Agrave" unicode="&#xc0;" horiz-adv-x="1333" 
d="M595 1131l-261 -671h511zM524 1181q-23 52 -36.5 64.5t-34.5 12.5q-15 0 -30.5 -12.5t-15.5 -32.5q0 -21 15.5 -32t30.5 -11h16q8 0 12 3l-43 -98l-161 98l108 221l160 -25l158 -25l463 -1238q16 -39 67 -74q-8 -3 -25.5 -10.5t-36.5 -14.5q-22 -9 -46 -17q-47 24 -91 51
l-90 56q-19 9 -35 20.5t-34 22.5q23 5 40 14t34 27l-60 163h-605l-106 -265q-14 -31 -26 -47t-28 -29t-33 -13q-28 0 -52 12t-39 22l12 12q28 0 56 26t51 80l199 513l73.5 189l64 166.5l47.5 120.5t21 50zM823 1449h-60l-289 177q-27 17 -40.5 34.5t-13.5 37.5
q0 27 17.5 44.5t46.5 17.5q18 0 36 -10.5t48 -41.5z" />
    <glyph glyph-name="Aacute" unicode="&#xc1;" horiz-adv-x="1333" 
d="M595 1131l-261 -671h511zM524 1181q-23 52 -36.5 64.5t-34.5 12.5q-15 0 -30.5 -12.5t-15.5 -32.5q0 -21 15.5 -32t30.5 -11h16q8 0 12 3l-43 -98l-161 98l108 221l160 -25l158 -25l463 -1238q16 -39 67 -74q-8 -3 -25.5 -10.5t-36.5 -14.5q-22 -9 -46 -17q-47 24 -91 51
l-90 56q-19 9 -35 20.5t-34 22.5q23 5 40 14t34 27l-60 163h-605l-106 -265q-14 -31 -26 -47t-28 -29t-33 -13q-28 0 -52 12t-39 22l12 12q28 0 56 26t51 80l199 513l73.5 189l64 166.5l47.5 120.5t21 50zM675 1708q30 31 48 41.5t36 10.5q29 0 46.5 -17.5t17.5 -44.5
q0 -20 -13.5 -37.5t-40.5 -34.5l-289 -177h-60z" />
    <glyph glyph-name="Acircumflex" unicode="&#xc2;" horiz-adv-x="1333" 
d="M595 1131l-261 -671h511zM524 1181q-23 52 -36.5 64.5t-34.5 12.5q-15 0 -30.5 -12.5t-15.5 -32.5q0 -21 15.5 -32t30.5 -11h16q8 0 12 3l-43 -98l-161 98l108 221l160 -25l158 -25l463 -1238q16 -39 67 -74q-8 -3 -25.5 -10.5t-36.5 -14.5q-22 -9 -46 -17q-47 24 -91 51
l-90 56q-19 9 -35 20.5t-34 22.5q23 5 40 14t34 27l-60 163h-605l-106 -265q-14 -31 -26 -47t-28 -29t-33 -13q-28 0 -52 12t-39 22l12 12q28 0 56 26t51 80l199 513l73.5 189l64 166.5l47.5 120.5t21 50zM593 1655q-101 -93 -183 -201l-90 79q81 117 305 320
q98 -59 158 -125q32 -37 69 -75.5l78 -78.5l-120 -125q-146 166 -217 206z" />
    <glyph glyph-name="Atilde" unicode="&#xc3;" horiz-adv-x="1333" 
d="M595 1131l-261 -671h511zM524 1181q-23 52 -36.5 64.5t-34.5 12.5q-15 0 -30.5 -12.5t-15.5 -32.5q0 -21 15.5 -32t30.5 -11h16q8 0 12 3l-43 -98l-161 98l108 221l160 -25l158 -25l463 -1238q16 -39 67 -74q-8 -3 -25.5 -10.5t-36.5 -14.5q-22 -9 -46 -17q-47 24 -91 51
l-90 56q-19 9 -35 20.5t-34 22.5q23 5 40 14t34 27l-60 163h-605l-106 -265q-14 -31 -26 -47t-28 -29t-33 -13q-28 0 -52 12t-39 22l12 12q28 0 56 26t51 80l199 513l73.5 189l64 166.5l47.5 120.5t21 50zM832 1519q-104 -27 -137 -27q-39 0 -104.5 35t-110.5 35
q-60 -5 -240 -86l183 183q124 55 185 55q41 0 103.5 -38.5t105.5 -38.5q54 0 197 53z" />
    <glyph glyph-name="Adieresis" unicode="&#xc4;" horiz-adv-x="1333" 
d="M595 1131l-261 -671h511zM524 1181q-23 52 -36.5 64.5t-34.5 12.5q-15 0 -30.5 -12.5t-15.5 -32.5q0 -21 15.5 -32t30.5 -11h16q8 0 12 3l-43 -98l-161 98l108 221l160 -25l158 -25l463 -1238q16 -39 67 -74q-8 -3 -25.5 -10.5t-36.5 -14.5q-22 -9 -46 -17q-47 24 -91 51
l-90 56q-19 9 -35 20.5t-34 22.5q23 5 40 14t34 27l-60 163h-605l-106 -265q-14 -31 -26 -47t-28 -29t-33 -13q-28 0 -52 12t-39 22l12 12q28 0 56 26t51 80l199 513l73.5 189l64 166.5l47.5 120.5t21 50zM711 1510v127l109 63l110 -63v-127l-110 -65zM330 1509v128l109 63
l110 -63v-128l-110 -64z" />
    <glyph glyph-name="Aring" unicode="&#xc5;" horiz-adv-x="1333" 
d="M595 1131l-261 -671h511zM524 1181q-23 52 -36.5 64.5t-34.5 12.5q-15 0 -30.5 -12.5t-15.5 -32.5q0 -21 15.5 -32t30.5 -11h16q8 0 12 3l-43 -98l-161 98l108 221l160 -25l158 -25l463 -1238q16 -39 67 -74q-8 -3 -25.5 -10.5t-36.5 -14.5q-22 -9 -46 -17q-47 24 -91 51
l-90 56q-19 9 -35 20.5t-34 22.5q23 5 40 14t34 27l-60 163h-605l-106 -265q-14 -31 -26 -47t-28 -29t-33 -13q-28 0 -52 12t-39 22l12 12q28 0 56 26t51 80l199 513l73.5 189l64 166.5l47.5 120.5t21 50zM771.5 1793.5q63.5 -60.5 63.5 -146.5q0 -85 -63.5 -145.5
t-153.5 -60.5t-154 60.5t-64 145.5q0 86 64 146.5t154 60.5t153.5 -60.5zM588 1771q-43 0 -73 -38t-30 -91t30 -91t73 -38t73 38t30 91t-30 91t-73 38z" />
    <glyph glyph-name="AE" unicode="&#xc6;" horiz-adv-x="1953" 
d="M595 1131l-261 -671h511zM938 210l-49 134h-605l-106 -265q-14 -31 -26 -47t-28 -29t-33 -13q-28 0 -52 12t-39 22l12 12q28 0 56 26t51 80l199 513l73.5 189l64 166.5l47.5 120.5t21 50q-23 52 -36.5 64.5t-34.5 12.5q-15 0 -30.5 -12.5t-15.5 -32.5q0 -21 15.5 -32
t30.5 -11h16q8 0 12 3l-43 -98l-161 98l108 221l160 -25l158 -25l254 -679v443q-12 65 -31 109.5t-50 60.5q-23 8 -48 8q-9 0 -19 -0.5t-19 -2.5l-21 -4l-19 -3l55 104l150 -18l104.5 -12.5t51.5 -5.5l337 52l114 -45q76 -31 138 -75.5t114 -90.5l-130 -135q-31 50 -75.5 95
t-92.5 78.5t-98.5 52t-96.5 18.5h-7q-65 -3 -117 -35.5t-86 -95.5v-431h109q40 0 82 1.5t79.5 9.5t67 22.5t45.5 39.5l33 -88l-120 -168q-7 22 -25 35t-43 19t-55.5 7t-63.5 1h-109v-358l34 -91q32 -25 75 -43t91 -28t78 -10q95 0 178.5 58t138.5 160l147 -152
q-43 -29 -100.5 -57.5t-119.5 -51t-124.5 -35.5t-115.5 -13l-170 49q5 -4 10 -7q-8 -3 -25.5 -10.5t-36.5 -14.5q-22 -9 -46 -17q-47 24 -91 51l-90 56q-19 9 -35 21l-32 21l-4 1q43 18 64 66q0 2 1 4z" />
    <glyph glyph-name="Ccedilla" unicode="&#xc7;" horiz-adv-x="1276" 
d="M534 0q-67 13 -131 40q-118 49 -210 143q-91 91 -142 210.5t-51 240.5q0 115 46.5 213.5t118.5 180.5t158.5 146t168.5 111t146 74.5t91 36.5l364 -211q-14 -45 -30.5 -85.5l-32.5 -83.5l-52 -137l-19 15q-19 16 -47 34q11 16 29.5 55.5t18.5 84.5q0 35 -20 64
q-19 27 -55.5 44.5t-82.5 26t-98 12.5t-102 4q-158 0 -251 -94q-39 -41 -63.5 -101t-37.5 -123t-18 -121t-5 -96q7 -109 40.5 -220t100 -199.5t169 -144t249.5 -55.5q76 0 139.5 39.5t112 88.5t78 94t34.5 55q7 -25 12.5 -41.5l13.5 -42.5l-38.5 -94.5l-37.5 -95.5
q-39 -25 -97.5 -41t-122 -24t-125 -10.5t-108.5 -2.5q-27 0 -53 2l-19 -54q34 5 66 5q91 0 142.5 -42.5t51.5 -120.5q0 -82 -62 -129.5t-172 -47.5q-96 0 -151 34l-50 102q90 -54 162 -54q71 0 101 22.5t30 70.5t-52 69q-43 17 -108 17q-17 0 -37 -3z" />
    <glyph glyph-name="Egrave" unicode="&#xc8;" horiz-adv-x="1203" 
d="M361 732h109q40 0 82 1.5t79.5 9.5t67 22.5t45.5 39.5l33 -88l-120 -168q-7 22 -25 35t-43 19t-55.5 7t-63.5 1h-109v-387q0 -34 32.5 -60.5t76 -44.5t91.5 -28t78 -10q95 0 178.5 58t138.5 160l147 -152q-43 -29 -100.5 -57.5t-119.5 -51t-124.5 -35.5t-115.5 -13
l-520 150q43 18 63.5 65.5t20.5 133.5v769q-12 65 -31 109.5t-50 60.5q-23 8 -48 8q-9 0 -19 -0.5t-19 -2.5l-21 -4l-19 -3l55 104l150 -18l104.5 -12.5t51.5 -5.5l337 52l114 -45q76 -31 138 -75.5t114 -90.5l-130 -135q-31 50 -75.5 95t-92.5 78.5t-98.5 52t-96.5 18.5h-7
q-65 -3 -117 -35.5t-86 -95.5v-431zM753 1449h-60l-289 177q-27 17 -40.5 34.5t-13.5 37.5q0 27 17.5 44.5t46.5 17.5q18 0 36 -10.5t48 -41.5z" />
    <glyph glyph-name="Eacute" unicode="&#xc9;" horiz-adv-x="1203" 
d="M361 732h109q40 0 82 1.5t79.5 9.5t67 22.5t45.5 39.5l33 -88l-120 -168q-7 22 -25 35t-43 19t-55.5 7t-63.5 1h-109v-387q0 -34 32.5 -60.5t76 -44.5t91.5 -28t78 -10q95 0 178.5 58t138.5 160l147 -152q-43 -29 -100.5 -57.5t-119.5 -51t-124.5 -35.5t-115.5 -13
l-520 150q43 18 63.5 65.5t20.5 133.5v769q-12 65 -31 109.5t-50 60.5q-23 8 -48 8q-9 0 -19 -0.5t-19 -2.5l-21 -4l-19 -3l55 104l150 -18l104.5 -12.5t51.5 -5.5l337 52l114 -45q76 -31 138 -75.5t114 -90.5l-130 -135q-31 50 -75.5 95t-92.5 78.5t-98.5 52t-96.5 18.5h-7
q-65 -3 -117 -35.5t-86 -95.5v-431zM605 1708q30 31 48 41.5t36 10.5q29 0 46.5 -17.5t17.5 -44.5q0 -20 -13.5 -37.5t-40.5 -34.5l-289 -177h-60z" />
    <glyph glyph-name="Ecircumflex" unicode="&#xca;" horiz-adv-x="1203" 
d="M361 732h109q40 0 82 1.5t79.5 9.5t67 22.5t45.5 39.5l33 -88l-120 -168q-7 22 -25 35t-43 19t-55.5 7t-63.5 1h-109v-387q0 -34 32.5 -60.5t76 -44.5t91.5 -28t78 -10q95 0 178.5 58t138.5 160l147 -152q-43 -29 -100.5 -57.5t-119.5 -51t-124.5 -35.5t-115.5 -13
l-520 150q43 18 63.5 65.5t20.5 133.5v769q-12 65 -31 109.5t-50 60.5q-23 8 -48 8q-9 0 -19 -0.5t-19 -2.5l-21 -4l-19 -3l55 104l150 -18l104.5 -12.5t51.5 -5.5l337 52l114 -45q76 -31 138 -75.5t114 -90.5l-130 -135q-31 50 -75.5 95t-92.5 78.5t-98.5 52t-96.5 18.5h-7
q-65 -3 -117 -35.5t-86 -95.5v-431zM533 1655q-101 -93 -183 -201l-90 79q81 117 305 320q98 -59 158 -125q32 -37 69 -75.5l78 -78.5l-120 -125q-146 166 -217 206z" />
    <glyph glyph-name="Edieresis" unicode="&#xcb;" horiz-adv-x="1203" 
d="M361 732h109q40 0 82 1.5t79.5 9.5t67 22.5t45.5 39.5l33 -88l-120 -168q-7 22 -25 35t-43 19t-55.5 7t-63.5 1h-109v-387q0 -34 32.5 -60.5t76 -44.5t91.5 -28t78 -10q95 0 178.5 58t138.5 160l147 -152q-43 -29 -100.5 -57.5t-119.5 -51t-124.5 -35.5t-115.5 -13
l-520 150q43 18 63.5 65.5t20.5 133.5v769q-12 65 -31 109.5t-50 60.5q-23 8 -48 8q-9 0 -19 -0.5t-19 -2.5l-21 -4l-19 -3l55 104l150 -18l104.5 -12.5t51.5 -5.5l337 52l114 -45q76 -31 138 -75.5t114 -90.5l-130 -135q-31 50 -75.5 95t-92.5 78.5t-98.5 52t-96.5 18.5h-7
q-65 -3 -117 -35.5t-86 -95.5v-431zM631 1510v127l109 63l110 -63v-127l-110 -65zM250 1509v128l109 63l110 -63v-128l-110 -64z" />
    <glyph glyph-name="Igrave" unicode="&#xcc;" horiz-adv-x="597" 
d="M173 1249q-15 11 -31 11q-20 0 -35 -14q-13 -13 -13 -31v-4q2 -16 13.5 -24.5t24.5 -8.5q12 0 22 5l26 -118l-180 108l117 223q20 -4 37 -8.5t45.5 -9.5l73.5 -13.5t119 -20.5v-987q0 -47 2.5 -96t12 -94t28.5 -80t51 -51l11 -7l-113 -38l-78 45l-78 46l-91 55l10 3
q33 7 50 28.5t25 50.5t8.5 64.5t0.5 73.5v551q0 94 -4 155t-12 98.5t-19 57t-23 30.5zM453 1449h-60l-289 177q-27 17 -40.5 34.5t-13.5 37.5q0 27 17.5 44.5t46.5 17.5q18 0 36 -10.5t48 -41.5z" />
    <glyph glyph-name="Iacute" unicode="&#xcd;" horiz-adv-x="597" 
d="M173 1249q-15 11 -31 11q-20 0 -35 -14q-13 -13 -13 -31v-4q2 -16 13.5 -24.5t24.5 -8.5q12 0 22 5l26 -118l-180 108l117 223q20 -4 37 -8.5t45.5 -9.5l73.5 -13.5t119 -20.5v-987q0 -47 2.5 -96t12 -94t28.5 -80t51 -51l11 -7l-113 -38l-78 45l-78 46l-91 55l10 3
q33 7 50 28.5t25 50.5t8.5 64.5t0.5 73.5v551q0 94 -4 155t-12 98.5t-19 57t-23 30.5zM305 1708q30 31 48 41.5t36 10.5q29 0 46.5 -17.5t17.5 -44.5q0 -20 -13.5 -37.5t-40.5 -34.5l-289 -177h-60z" />
    <glyph glyph-name="Icircumflex" unicode="&#xce;" horiz-adv-x="653" 
d="M173 1249q-15 11 -31 11q-20 0 -35 -14q-13 -13 -13 -31v-4q2 -16 13.5 -24.5t24.5 -8.5q12 0 22 5l26 -118l-180 108l117 223q20 -4 37 -8.5t45.5 -9.5l73.5 -13.5t119 -20.5v-987q0 -47 2.5 -96t12 -94t28.5 -80t51 -51l11 -7l-113 -38l-78 45l-78 46l-91 55l10 3
q33 7 50 28.5t25 50.5t8.5 64.5t0.5 73.5v551q0 94 -4 155t-12 98.5t-19 57t-23 30.5zM216 1655q-101 -93 -183 -201l-90 79q81 117 305 320q98 -59 158 -125q32 -37 69 -75.5l78 -78.5l-120 -125q-146 166 -217 206z" />
    <glyph glyph-name="Idieresis" unicode="&#xcf;" horiz-adv-x="650" 
d="M173 1249q-15 11 -31 11q-20 0 -35 -14q-13 -13 -13 -31v-4q2 -16 13.5 -24.5t24.5 -8.5q12 0 22 5l26 -118l-180 108l117 223q20 -4 37 -8.5t45.5 -9.5l73.5 -13.5t119 -20.5v-987q0 -47 2.5 -96t12 -94t28.5 -80t51 -51l11 -7l-113 -38l-78 45l-78 46l-91 55l10 3
q33 7 50 28.5t25 50.5t8.5 64.5t0.5 73.5v551q0 94 -4 155t-12 98.5t-19 57t-23 30.5zM331 1510v127l109 63l110 -63v-127l-110 -65zM-50 1509v128l109 63l110 -63v-128l-110 -64z" />
    <glyph glyph-name="Eth" unicode="&#xd0;" horiz-adv-x="1407" 
d="M245 934q-1 65 -6 114q-8 65 -18.5 108t-23 64.5t-24.5 28.5q-15 11 -31 11q-20 0 -35 -14q-13 -13 -13 -31v-4q2 -16 13.5 -24.5t24.5 -8.5q12 0 22 5l26 -118l-180 108l108 207l294 -36q2 2 47.5 9l102 15t110 17t75.5 12l118 -37q86 -26 157 -77.5t126.5 -119t92 -145
t57.5 -158.5q10 -44 14.5 -91t4.5 -90q0 -89 -16.5 -173.5t-40.5 -155.5t-54.5 -124.5t-56.5 -81.5q-22 -28 -81 -54.5t-130 -49t-140 -36.5t-107 -14q-16 0 -21 1l-516 158q9 2 10.5 2.5t8.5 2.5q29 9 46 31t25.5 50t10 62.5t1.5 66.5v447h-24q-42 -2 -79.5 -10t-67 -22.5
t-45.5 -39.5l-33 88l120 168q7 -22 25 -35t43 -19t56 -7h4zM402 933h11v-1h23q40 0 82 1.5t79.5 9.5t67 22.5t45.5 39.5l33 -88l-120 -168q-7 22 -25 35t-43 19t-55.5 7t-63.5 1h-34v-587q0 -34 31 -60.5t76 -44.5t91.5 -28t77.5 -10q64 0 127 28t115 81q77 80 120 207.5
t43 283.5v27q-4 113 -41.5 213t-95 179.5t-130 131t-145.5 69.5q-20 4 -37 6.5t-37 2.5q-130 0 -195 -122v-255z" />
    <glyph glyph-name="Ntilde" unicode="&#xd1;" horiz-adv-x="1389" 
d="M173 1249q-15 11 -31 11q-20 0 -35 -14q-13 -13 -13 -31v-4q2 -16 13.5 -24.5t24.5 -8.5q12 0 22 5l26 -118l-180 108l117 223l89.5 -16l71 -12.5t61.5 -12t60 -11.5v-113q1 -9 36 -58l112 -152l200.5 -264.5l304.5 -390.5v756q0 27 -5 58t-18 57.5t-33.5 44t-50.5 17.5
q-16 0 -35 -1.5t-41 -5.5q-3 0 -5.5 -0.5t-4.5 -0.5l27.5 60.5t23.5 44.5q10 -2 16 -4t15 -3q65 -14 129 -25l133 -23q-9 -42 -13.5 -86t-4.5 -85v-817q0 -47 2.5 -95t13.5 -93t31.5 -81t56.5 -55l-111 -38l-219 146q70 17 86 82l-315 401l-117.5 149.5l-105 131.5l-76 95.5
t-32.5 43.5v-687q0 -47 3.5 -95t14 -93t32 -81t57.5 -55q-20 -5 -57.5 -17t-55.5 -19l-244 144q34 3 53 25.5t27.5 54.5t11 69t2.5 67v545q0 93 -7.5 157.5t-17 105t-22.5 61t-23 27.5zM852 1519q-104 -27 -137 -27q-39 0 -104.5 35t-110.5 35q-60 -5 -240 -86l183 183
q124 55 185 55q41 0 103.5 -38.5t105.5 -38.5q54 0 197 53z" />
    <glyph glyph-name="Ograve" unicode="&#xd2;" horiz-adv-x="1430" 
d="M183 696q0 -63 11.5 -136t35.5 -145.5t63.5 -139.5t94 -118t126.5 -81.5t163 -30.5q176 0 287 111q45 46 76.5 105.5t51 121.5t27.5 121.5t8 112.5q0 130 -38.5 251t-106.5 213t-163 147t-208 55q-120 0 -201.5 -55t-132 -140.5t-72.5 -189.5t-22 -202zM605 1349
q12 4 43 10.5t69.5 13.5t78 13t67.5 11q12 -7 45.5 -31t80.5 -63t98 -90.5t97.5 -111.5t81.5 -126.5t47 -133.5q10 -42 13.5 -86t3.5 -79q0 -59 -12 -132.5t-41.5 -151t-78.5 -149t-124.5 -128.5t-179.5 -91t-240 -34q-154 0 -276 47t-206 134t-128 209.5t-44 271.5
q0 133 32 243t105 197.5t187.5 151.5t280.5 105zM853 1449h-60l-289 177q-27 17 -40.5 34.5t-13.5 37.5q0 27 17.5 44.5t46.5 17.5q18 0 36 -10.5t48 -41.5z" />
    <glyph glyph-name="Oacute" unicode="&#xd3;" horiz-adv-x="1430" 
d="M183 696q0 -63 11.5 -136t35.5 -145.5t63.5 -139.5t94 -118t126.5 -81.5t163 -30.5q176 0 287 111q45 46 76.5 105.5t51 121.5t27.5 121.5t8 112.5q0 130 -38.5 251t-106.5 213t-163 147t-208 55q-120 0 -201.5 -55t-132 -140.5t-72.5 -189.5t-22 -202zM605 1349
q12 4 43 10.5t69.5 13.5t78 13t67.5 11q12 -7 45.5 -31t80.5 -63t98 -90.5t97.5 -111.5t81.5 -126.5t47 -133.5q10 -42 13.5 -86t3.5 -79q0 -59 -12 -132.5t-41.5 -151t-78.5 -149t-124.5 -128.5t-179.5 -91t-240 -34q-154 0 -276 47t-206 134t-128 209.5t-44 271.5
q0 133 32 243t105 197.5t187.5 151.5t280.5 105zM705 1708q30 31 48 41.5t36 10.5q29 0 46.5 -17.5t17.5 -44.5q0 -20 -13.5 -37.5t-40.5 -34.5l-289 -177h-60z" />
    <glyph glyph-name="Ocircumflex" unicode="&#xd4;" horiz-adv-x="1430" 
d="M183 696q0 -63 11.5 -136t35.5 -145.5t63.5 -139.5t94 -118t126.5 -81.5t163 -30.5q176 0 287 111q45 46 76.5 105.5t51 121.5t27.5 121.5t8 112.5q0 130 -38.5 251t-106.5 213t-163 147t-208 55q-120 0 -201.5 -55t-132 -140.5t-72.5 -189.5t-22 -202zM605 1349
q12 4 43 10.5t69.5 13.5t78 13t67.5 11q12 -7 45.5 -31t80.5 -63t98 -90.5t97.5 -111.5t81.5 -126.5t47 -133.5q10 -42 13.5 -86t3.5 -79q0 -59 -12 -132.5t-41.5 -151t-78.5 -149t-124.5 -128.5t-179.5 -91t-240 -34q-154 0 -276 47t-206 134t-128 209.5t-44 271.5
q0 133 32 243t105 197.5t187.5 151.5t280.5 105zM623 1655q-101 -93 -183 -201l-90 79q81 117 305 320q98 -59 158 -125q32 -37 69 -75.5l78 -78.5l-120 -125q-146 166 -217 206z" />
    <glyph glyph-name="Otilde" unicode="&#xd5;" horiz-adv-x="1430" 
d="M183 696q0 -63 11.5 -136t35.5 -145.5t63.5 -139.5t94 -118t126.5 -81.5t163 -30.5q176 0 287 111q45 46 76.5 105.5t51 121.5t27.5 121.5t8 112.5q0 130 -38.5 251t-106.5 213t-163 147t-208 55q-120 0 -201.5 -55t-132 -140.5t-72.5 -189.5t-22 -202zM605 1349
q12 4 43 10.5t69.5 13.5t78 13t67.5 11q12 -7 45.5 -31t80.5 -63t98 -90.5t97.5 -111.5t81.5 -126.5t47 -133.5q10 -42 13.5 -86t3.5 -79q0 -59 -12 -132.5t-41.5 -151t-78.5 -149t-124.5 -128.5t-179.5 -91t-240 -34q-154 0 -276 47t-206 134t-128 209.5t-44 271.5
q0 133 32 243t105 197.5t187.5 151.5t280.5 105zM852 1519q-104 -27 -137 -27q-39 0 -104.5 35t-110.5 35q-60 -5 -240 -86l183 183q124 55 185 55q41 0 103.5 -38.5t105.5 -38.5q54 0 197 53z" />
    <glyph glyph-name="Odieresis" unicode="&#xd6;" horiz-adv-x="1430" 
d="M183 696q0 -63 11.5 -136t35.5 -145.5t63.5 -139.5t94 -118t126.5 -81.5t163 -30.5q176 0 287 111q45 46 76.5 105.5t51 121.5t27.5 121.5t8 112.5q0 130 -38.5 251t-106.5 213t-163 147t-208 55q-120 0 -201.5 -55t-132 -140.5t-72.5 -189.5t-22 -202zM605 1349
q12 4 43 10.5t69.5 13.5t78 13t67.5 11q12 -7 45.5 -31t80.5 -63t98 -90.5t97.5 -111.5t81.5 -126.5t47 -133.5q10 -42 13.5 -86t3.5 -79q0 -59 -12 -132.5t-41.5 -151t-78.5 -149t-124.5 -128.5t-179.5 -91t-240 -34q-154 0 -276 47t-206 134t-128 209.5t-44 271.5
q0 133 32 243t105 197.5t187.5 151.5t280.5 105zM731 1510v127l109 63l110 -63v-127l-110 -65zM350 1509v128l109 63l110 -63v-128l-110 -64z" />
    <glyph glyph-name="multiply" unicode="&#xd7;" horiz-adv-x="1052" 
d="M173 1149q-14 11 -31 11q-19 0 -34 -14q-14 -13 -14 -31v-4q2 -16 13.5 -24.5t24.5 -8.5q12 0 23 5l25 -118l-180 108l118 223q14 -4 45.5 -10t65 -14l66 -16l48.5 -12q2 -27 61 -129l48.5 -86.5l42 -76l31.5 -55.5t14 -25l254 408h112l-96 -133l-82 -129l-52.5 -85
l-45.5 -75.5t-33 -53.5l-14 -21q2 -5 15.5 -32l34 -65.5l44.5 -87l50 -97.5l80 -157q31 -54 62.5 -96t82.5 -67l-40.5 -31.5l-39.5 -31.5l-31 -25l-135 47.5l-135 47.5q25 14 37.5 35.5t12.5 47.5l-6 24q-3 10 -46 95l-36 74l-32.5 64.5t-23 47.5t-10.5 23l-155 -254
l-153 -255l-42.5 52.5l-41.5 50.5l14 15l11.5 9.5t7.5 5.5l29 33.5t43.5 57t36 46.5t67.5 99q38 63 70 111q12 22 25 41.5t22.5 35.5t17 26t7.5 11q-92 180 -117 239t-62 119t-54 81.5z" />
    <glyph glyph-name="Oslash" unicode="&#xd8;" horiz-adv-x="1430" 
d="M221 126q-26 21 -49 45q-84 87 -128 209.5t-44 271.5q0 133 32 243t105 197.5t187.5 151.5t280.5 105q12 4 43 10.5t69.5 13.5t78 13t67.5 11q12 -7 46 -31q30 -22 72 -56l43 70h112l-91 -126l42 -41q51 -52 97.5 -112t81.5 -126.5t47 -133.5q10 -42 13.5 -86t3.5 -79
q0 -59 -12 -132.5t-41.5 -151t-78.5 -149t-124.5 -128.5t-179.5 -91t-240 -34q-154 0 -276 47q-33 13 -63 28l-46 -75l-42.5 52.5l-41.5 50.5l14 15l11.5 9.5t7.5 5.5q1 2 3 3zM957 1112l-59 -94l-52.5 -85l-45.5 -75.5t-33 -53.5q-12 -26 -130 -205l-185 -304l-76 -127
q6 -6 12 -11q54 -51 126 -81.5t163 -30.5q176 0 287 111q45 46 76.5 105.5t51 121.5t27.5 121.5t8 112.5q0 130 -38.5 251t-106.5 213q-12 16 -25 31zM312 245l45 65l97 149q38 63 70 111q12 22 25 41.5t22.5 35.5t17 26t7.5 11q113 190 114 188l186 301q-36 31 -77 55
q-95 55 -208 55q-120 0 -201.5 -55t-132 -140.5t-72.5 -189.5t-22 -202q0 -63 11.5 -136t35.5 -145.5t64 -139.5z" />
    <glyph glyph-name="Ugrave" unicode="&#xd9;" horiz-adv-x="1197" 
d="M1097 1348q-4 -16 -7 -47.5t-5.5 -65.5t-4 -65.5t-1.5 -47.5v-799q-6 -39 -35.5 -77.5t-72.5 -73t-94 -65t-97.5 -54.5t-85 -40l-55.5 -23l-79 24l-119.5 38.5t-129 46t-110.5 48.5q-68 45 -68 74v779q0 65 -6.5 108t-14.5 68.5t-19 38.5t-18 16q-14 5 -25 5
q-13 26 -26.5 68t-23.5 76h283v-935q2 -31 16.5 -76.5t56.5 -89t121.5 -76t216.5 -38.5h8q62 0 111 25t84 63t53.5 82.5t18.5 85.5v759q0 39 -5 63t-17 36.5t-32.5 17t-52.5 4.5q-9 0 -23.5 -1.5t-45.5 -8.5l55 105zM753 1449h-60l-289 177q-27 17 -40.5 34.5t-13.5 37.5
q0 27 17.5 44.5t46.5 17.5q18 0 36 -10.5t48 -41.5z" />
    <glyph glyph-name="Uacute" unicode="&#xda;" horiz-adv-x="1197" 
d="M1097 1348q-4 -16 -7 -47.5t-5.5 -65.5t-4 -65.5t-1.5 -47.5v-799q-6 -39 -35.5 -77.5t-72.5 -73t-94 -65t-97.5 -54.5t-85 -40l-55.5 -23l-79 24l-119.5 38.5t-129 46t-110.5 48.5q-68 45 -68 74v779q0 65 -6.5 108t-14.5 68.5t-19 38.5t-18 16q-14 5 -25 5
q-13 26 -26.5 68t-23.5 76h283v-935q2 -31 16.5 -76.5t56.5 -89t121.5 -76t216.5 -38.5h8q62 0 111 25t84 63t53.5 82.5t18.5 85.5v759q0 39 -5 63t-17 36.5t-32.5 17t-52.5 4.5q-9 0 -23.5 -1.5t-45.5 -8.5l55 105zM605 1708q30 31 48 41.5t36 10.5q29 0 46.5 -17.5
t17.5 -44.5q0 -20 -13.5 -37.5t-40.5 -34.5l-289 -177h-60z" />
    <glyph glyph-name="Ucircumflex" unicode="&#xdb;" horiz-adv-x="1197" 
d="M1097 1348q-4 -16 -7 -47.5t-5.5 -65.5t-4 -65.5t-1.5 -47.5v-799q-6 -39 -35.5 -77.5t-72.5 -73t-94 -65t-97.5 -54.5t-85 -40l-55.5 -23l-79 24l-119.5 38.5t-129 46t-110.5 48.5q-68 45 -68 74v779q0 65 -6.5 108t-14.5 68.5t-19 38.5t-18 16q-14 5 -25 5
q-13 26 -26.5 68t-23.5 76h283v-935q2 -31 16.5 -76.5t56.5 -89t121.5 -76t216.5 -38.5h8q62 0 111 25t84 63t53.5 82.5t18.5 85.5v759q0 39 -5 63t-17 36.5t-32.5 17t-52.5 4.5q-9 0 -23.5 -1.5t-45.5 -8.5l55 105zM533 1655q-101 -93 -183 -201l-90 79q81 117 305 320
q98 -59 158 -125q32 -37 69 -75.5l78 -78.5l-120 -125q-146 166 -217 206z" />
    <glyph glyph-name="Udieresis" unicode="&#xdc;" horiz-adv-x="1197" 
d="M1097 1348q-4 -16 -7 -47.5t-5.5 -65.5t-4 -65.5t-1.5 -47.5v-799q-6 -39 -35.5 -77.5t-72.5 -73t-94 -65t-97.5 -54.5t-85 -40l-55.5 -23l-79 24l-119.5 38.5t-129 46t-110.5 48.5q-68 45 -68 74v779q0 65 -6.5 108t-14.5 68.5t-19 38.5t-18 16q-14 5 -25 5
q-13 26 -26.5 68t-23.5 76h283v-935q2 -31 16.5 -76.5t56.5 -89t121.5 -76t216.5 -38.5h8q62 0 111 25t84 63t53.5 82.5t18.5 85.5v759q0 39 -5 63t-17 36.5t-32.5 17t-52.5 4.5q-9 0 -23.5 -1.5t-45.5 -8.5l55 105zM631 1510v127l109 63l110 -63v-127l-110 -65zM250 1509
v128l109 63l110 -63v-128l-110 -64z" />
    <glyph glyph-name="Yacute" unicode="&#xdd;" horiz-adv-x="1186" 
d="M172 1249q-15 11 -31 11q-20 0 -35 -14q-13 -13 -13 -31v-4q2 -16 13.5 -24.5t24.5 -8.5q12 0 23 5l25 -118l-179 108l116 223l59.5 -13.5l53 -12.5l52.5 -12.5t59 -13.5l307 -528l161 282l161 282h117l-90 -125l-150 -251l-57.5 -95l-51 -85.5l-37.5 -64.5t-20 -34v-368
q0 -47 3.5 -96t14 -94t31 -82t56.5 -56q-11 -4 -27 -8.5t-32.5 -10l-31 -10.5t-21.5 -9q-44 25 -85 51l-86 53l-72 42q34 8 54.5 27t31 45.5t13.5 60t3 70.5v291q-84 166 -150 283t-112 190.5t-71 108t-27 36.5zM605 1708q30 31 48 41.5t36 10.5q29 0 46.5 -17.5t17.5 -44.5
q0 -20 -13.5 -37.5t-40.5 -34.5l-289 -177h-60z" />
    <glyph glyph-name="Thorn" unicode="&#xde;" horiz-adv-x="1074" 
d="M634 1020q-19 8 -40.5 11t-41.5 3q-45 0 -84.5 -13.5t-74.5 -38.5v-443q7 -3 45.5 -23l81 -43l77 -42.5t34.5 -21.5q25 10 57 37.5t61 68.5t48.5 96.5t19.5 123.5v9q0 32 -13.5 71.5t-37 79t-57.5 72.5t-75 53zM392 442v-85q0 -47 2.5 -96t12 -94t28.5 -80t51 -51l11 -7
l-113 -38l-78 45l-78 46l-91 55l10 3q33 7 50 28.5t25 50.5t8.5 64.5t0.5 73.5v551q0 94 -4 155t-12 98.5t-19 57t-23 30.5q-15 11 -31 11q-20 0 -35 -14q-13 -13 -13 -31v-4q2 -16 13.5 -24.5t24.5 -8.5q12 0 22 5l26 -118l-180 108l117 223q20 -4 37 -8.5t45.5 -9.5
l73.5 -13.5t119 -20.5v-257q81 10 130 20q50 10 166 31q13 -4 45 -22.5t70.5 -50.5t77 -75.5t63.5 -95.5q20 -41 25 -87.5t5 -82.5q0 -68 -18.5 -121.5t-49.5 -93.5q-28 -35 -64 -66.5t-71.5 -56t-67 -38t-52.5 -14.5l-258 116v-8h-1z" />
    <glyph glyph-name="germandbls" unicode="&#xdf;" horiz-adv-x="1143" 
d="M100 1049q6 305 307 347h112q126 -18 165.5 -45t76.5 -60t65.5 -69.5t44.5 -76.5q22 -54 22 -104q0 -41 -12.5 -80.5t-30.5 -72.5t-38 -59t-34 -41q124 -39 194.5 -126t70.5 -219v-27l-5 -97q-9 -156 -130 -237.5t-331 -81.5h-41l-90 83l72 1q54 0 109.5 18t102.5 50.5
t78.5 77t41.5 100.5q2 9 2 18v18q0 36 -7.5 81.5t-23 91.5t-39.5 86t-56 65q-41 32 -95 32h-149l-96 97h247q41 12 66 41t37.5 62.5t16 65t3.5 52.5q-43 260 -274 267l-44 -1q-181 -30 -183 -207v-742q0 -47 2.5 -96t12 -94t28.5 -80t51 -51l11 -7l-113 -38l-78 45l-78 46
l-91 55l10 3q33 7 50 28.5t25 50.5t8.5 64.5t0.5 73.5z" />
    <glyph glyph-name="agrave" unicode="&#xe0;" horiz-adv-x="963" 
d="M417 792l-183 -470h358zM367 827q-16 36 -25.5 45t-24.5 9q-10 0 -21 -9t-11 -23q0 -15 11 -22.5t21 -7.5h11q6 0 9 2l-30 -68l-113 68l76 155q52 -9 111.5 -18l110.5 -17l324 -867q11 -27 47 -52l-17.5 -7l-25.5 -10l-32 -12q-33 17 -64 36l-63 39q-13 6 -24.5 14
l-23.5 16q16 4 27.5 10t23.5 19l-42 114h-423l-74 -186q-10 -21 -18.5 -32.5t-19.5 -20.5t-23 -9q-20 0 -36.5 8.5t-27.5 15.5l8 8q20 0 39.5 18.5t35.5 55.5l140 360l51 132l45 116.5l33 84.5t15 35zM576 1014h-42l-202 124q-19 12 -28.5 24.5t-9.5 26.5q0 19 12.5 31
t32.5 12q12 0 25 -7.5t34 -28.5z" />
    <glyph glyph-name="aacute" unicode="&#xe1;" horiz-adv-x="963" 
d="M417 792l-183 -470h358zM367 827q-16 36 -25.5 45t-24.5 9q-10 0 -21 -9t-11 -23q0 -15 11 -22.5t21 -7.5h11q6 0 9 2l-30 -68l-113 68l76 155q52 -9 111.5 -18l110.5 -17l324 -867q11 -27 47 -52l-17.5 -7l-25.5 -10l-32 -12q-33 17 -64 36l-63 39q-13 6 -24.5 14
l-23.5 16q16 4 27.5 10t23.5 19l-42 114h-423l-74 -186q-10 -21 -18.5 -32.5t-19.5 -20.5t-23 -9q-20 0 -36.5 8.5t-27.5 15.5l8 8q20 0 39.5 18.5t35.5 55.5l140 360l51 132l45 116.5l33 84.5t15 35zM473 1196q21 21 33.5 28.5t24.5 7.5q21 0 33 -12t12 -31
q0 -14 -9.5 -26.5t-28.5 -24.5l-202 -124h-42z" />
    <glyph glyph-name="acircumflex" unicode="&#xe2;" horiz-adv-x="963" 
d="M417 792l-183 -470h358zM367 827q-16 36 -25.5 45t-24.5 9q-10 0 -21 -9t-11 -23q0 -15 11 -22.5t21 -7.5h11q6 0 9 2l-30 -68l-113 68l76 155q52 -9 111.5 -18l110.5 -17l324 -867q11 -27 47 -52l-17.5 -7l-25.5 -10l-32 -12q-33 17 -64 36l-63 39q-13 6 -24.5 14
l-23.5 16q16 4 27.5 10t23.5 19l-42 114h-423l-74 -186q-10 -21 -18.5 -32.5t-19.5 -20.5t-23 -9q-20 0 -36.5 8.5t-27.5 15.5l8 8q20 0 39.5 18.5t35.5 55.5l140 360l51 132l45 116.5l33 84.5t15 35zM415 1159q-71 -66 -128 -141l-63 55q57 82 214 224q68 -41 110 -87
l48.5 -53l54.5 -55l-84 -88q-102 117 -152 145z" />
    <glyph glyph-name="atilde" unicode="&#xe3;" horiz-adv-x="963" 
d="M417 792l-183 -470h358zM367 827q-16 36 -25.5 45t-24.5 9q-10 0 -21 -9t-11 -23q0 -15 11 -22.5t21 -7.5h11q6 0 9 2l-30 -68l-113 68l76 155q52 -9 111.5 -18l110.5 -17l324 -867q11 -27 47 -52l-17.5 -7l-25.5 -10l-32 -12q-33 17 -64 36l-63 39q-13 6 -24.5 14
l-23.5 16q16 4 27.5 10t23.5 19l-42 114h-423l-74 -186q-10 -21 -18.5 -32.5t-19.5 -20.5t-23 -9q-20 0 -36.5 8.5t-27.5 15.5l8 8q20 0 39.5 18.5t35.5 55.5l140 360l51 132l45 116.5l33 84.5t15 35zM582 1063q-72 -19 -95 -19q-28 0 -73.5 24.5t-77.5 24.5
q-42 -3 -168 -60l128 128q87 39 130 39q28 0 72 -27t74 -27q38 0 138 37z" />
    <glyph glyph-name="adieresis" unicode="&#xe4;" horiz-adv-x="963" 
d="M417 792l-183 -470h358zM367 827q-16 36 -25.5 45t-24.5 9q-10 0 -21 -9t-11 -23q0 -15 11 -22.5t21 -7.5h11q6 0 9 2l-30 -68l-113 68l76 155q52 -9 111.5 -18l110.5 -17l324 -867q11 -27 47 -52l-17.5 -7l-25.5 -10l-32 -12q-33 17 -64 36l-63 39q-13 6 -24.5 14
l-23.5 16q16 4 27.5 10t23.5 19l-42 114h-423l-74 -186q-10 -21 -18.5 -32.5t-19.5 -20.5t-23 -9q-20 0 -36.5 8.5t-27.5 15.5l8 8q20 0 39.5 18.5t35.5 55.5l140 360l51 132l45 116.5l33 84.5t15 35zM498 1057v89l76 44l77 -44v-89l-77 -45zM231 1056v90l76 44l77 -44v-90
l-77 -44z" />
    <glyph glyph-name="aring" unicode="&#xe5;" horiz-adv-x="963" 
d="M417 792l-183 -470h358zM367 827q-16 36 -25.5 45t-24.5 9q-10 0 -21 -9t-11 -23q0 -15 11 -22.5t21 -7.5h11q6 0 9 2l-30 -68l-113 68l76 155q52 -9 111.5 -18l110.5 -17l324 -867q11 -27 47 -52l-17.5 -7l-25.5 -10l-32 -12q-33 17 -64 36l-63 39q-13 6 -24.5 14
l-23.5 16q16 4 27.5 10t23.5 19l-42 114h-423l-74 -186q-10 -21 -18.5 -32.5t-19.5 -20.5t-23 -9q-20 0 -36.5 8.5t-27.5 15.5l8 8q20 0 39.5 18.5t35.5 55.5l140 360l51 132l45 116.5l33 84.5t15 35zM540.5 1255.5q44.5 -42.5 44.5 -102.5t-44.5 -102.5t-108.5 -42.5
q-63 0 -107.5 42.5t-44.5 102.5t44.5 102.5t107.5 42.5q64 0 108.5 -42.5zM412 1240q-30 0 -51.5 -26.5t-21.5 -64.5q0 -37 21.5 -63.5t51.5 -26.5q29 0 50.5 26.5t21.5 63.5q0 38 -21.5 64.5t-50.5 26.5z" />
    <glyph glyph-name="ae" unicode="&#xe6;" horiz-adv-x="1397" 
d="M417 792l-183 -470h358zM657 147l-35 94h-423l-74 -186q-10 -21 -18.5 -32.5t-19.5 -20.5t-23 -9q-20 0 -36.5 8.5t-27.5 15.5l8 8q20 0 39.5 18.5t35.5 55.5l140 360l51 132l45 116.5l33 84.5t15 35q-16 36 -25.5 45t-24.5 9q-10 0 -21 -9t-11 -23q0 -15 11 -22.5
t21 -7.5h11q6 0 9 2l-30 -68l-113 68l76 155q52 -9 111.5 -18l110.5 -17l178 -476v311q-8 45 -21.5 76t-35.5 43q-16 5 -33 5h-14q-7 0 -13 -2q-8 -1 -15 -3l-13 -2l39 73l105 -13q39 -4 72.5 -8t36.5 -4l236 36l79 -31q54 -22 97 -53t80 -63l-91 -95q-22 35 -53 66.5
t-64.5 55t-69 36.5t-67.5 13h-5q-46 -2 -82 -25t-60 -67v-302h76q28 0 57.5 1.5t55.5 7t47 15.5t32 28l23 -62l-84 -118q-5 16 -17.5 25t-30 13t-39 5t-44.5 1h-76v-251l23 -63q23 -18 53 -31q30 -12 63.5 -19t54.5 -7q67 0 125.5 40.5t96.5 111.5l103 -106q-30 -20 -70 -40
t-83.5 -36t-87.5 -25t-81 -9l-119 34q4 -2 7 -5l-17.5 -7l-25.5 -10l-32 -12q-33 17 -64 36l-63 39q-13 6 -25 14q-10 8 -22 15l-3 1q30 13 45 46q0 1 1 3z" />
    <glyph glyph-name="ccedilla" unicode="&#xe7;" horiz-adv-x="923" 
d="M374 0q-47 9 -92 28q-82 34 -147 100q-64 64 -99.5 147.5t-35.5 168.5q0 80 32.5 149t83 126.5t111 102.5t118 77.5t102 52t63.5 25.5l255 -147q-10 -32 -21.5 -60.5l-22.5 -58.5l-36 -96l-14 11q-13 11 -33 24q8 11 21 38.5t13 59.5q0 24 -14 44q-13 19 -38.5 31.5
t-58 18.5t-69 8.5t-71.5 2.5q-110 0 -175 -65q-28 -29 -45 -71t-26 -86t-12.5 -85t-3.5 -67q5 -76 28.5 -154t70 -140t118 -100.5t174.5 -38.5q53 0 97.5 27.5t78.5 61.5t55 65.5t24 38.5q5 -17 9 -28.5t9 -29.5l-26.5 -66.5l-26.5 -66.5q-27 -18 -68 -29t-85.5 -16.5
t-87.5 -7.5t-76 -2q-19 0 -37 2l-13 -38q23 3 46 3q63 0 99.5 -29.5t36.5 -84.5q0 -57 -43.5 -90.5t-120.5 -33.5q-67 0 -106 24l-35 71q63 -37 113 -37t71 15.5t21 49.5q0 33 -36 48q-30 12 -76 12q-12 0 -26 -2z" />
    <glyph glyph-name="egrave" unicode="&#xe8;" horiz-adv-x="872" 
d="M253 512h76q28 0 57.5 1.5t55.5 7t47 15.5t32 28l23 -62l-84 -118q-5 16 -17.5 25t-30 13t-39 5t-44.5 1h-76v-271q0 -24 22.5 -42.5t53 -31t64 -19.5t54.5 -7q67 0 125.5 40.5t96.5 111.5l103 -106q-30 -20 -70 -40t-83.5 -36t-87.5 -25t-81 -9l-364 105q30 13 44.5 46
t14.5 93v539q-8 45 -21.5 76t-35.5 43q-16 5 -33 5h-14q-7 0 -13 -2q-8 -1 -15 -3l-13 -2l39 73l105 -13q39 -4 72.5 -8t36.5 -4l236 36l79 -31q54 -22 97 -53t80 -63l-91 -95q-22 35 -53 66.5t-64.5 55t-69 36.5t-67.5 13h-5q-46 -2 -82 -25t-60 -67v-302zM527 1014h-42
l-202 124q-19 12 -28.5 24.5t-9.5 26.5q0 19 12.5 31t32.5 12q12 0 25 -7.5t34 -28.5z" />
    <glyph glyph-name="eacute" unicode="&#xe9;" horiz-adv-x="872" 
d="M253 512h76q28 0 57.5 1.5t55.5 7t47 15.5t32 28l23 -62l-84 -118q-5 16 -17.5 25t-30 13t-39 5t-44.5 1h-76v-271q0 -24 22.5 -42.5t53 -31t64 -19.5t54.5 -7q67 0 125.5 40.5t96.5 111.5l103 -106q-30 -20 -70 -40t-83.5 -36t-87.5 -25t-81 -9l-364 105q30 13 44.5 46
t14.5 93v539q-8 45 -21.5 76t-35.5 43q-16 5 -33 5h-14q-7 0 -13 -2q-8 -1 -15 -3l-13 -2l39 73l105 -13q39 -4 72.5 -8t36.5 -4l236 36l79 -31q54 -22 97 -53t80 -63l-91 -95q-22 35 -53 66.5t-64.5 55t-69 36.5t-67.5 13h-5q-46 -2 -82 -25t-60 -67v-302zM424 1196
q21 21 33.5 28.5t24.5 7.5q21 0 33 -12t12 -31q0 -14 -9.5 -26.5t-28.5 -24.5l-202 -124h-42z" />
    <glyph glyph-name="ecircumflex" unicode="&#xea;" horiz-adv-x="872" 
d="M253 512h76q28 0 57.5 1.5t55.5 7t47 15.5t32 28l23 -62l-84 -118q-5 16 -17.5 25t-30 13t-39 5t-44.5 1h-76v-271q0 -24 22.5 -42.5t53 -31t64 -19.5t54.5 -7q67 0 125.5 40.5t96.5 111.5l103 -106q-30 -20 -70 -40t-83.5 -36t-87.5 -25t-81 -9l-364 105q30 13 44.5 46
t14.5 93v539q-8 45 -21.5 76t-35.5 43q-16 5 -33 5h-14q-7 0 -13 -2q-8 -1 -15 -3l-13 -2l39 73l105 -13q39 -4 72.5 -8t36.5 -4l236 36l79 -31q54 -22 97 -53t80 -63l-91 -95q-22 35 -53 66.5t-64.5 55t-69 36.5t-67.5 13h-5q-46 -2 -82 -25t-60 -67v-302zM373 1159
q-71 -66 -128 -141l-63 55q57 82 214 224q68 -41 110 -87l48.5 -53l54.5 -55l-84 -88q-102 117 -152 145z" />
    <glyph glyph-name="edieresis" unicode="&#xeb;" horiz-adv-x="872" 
d="M253 512h76q28 0 57.5 1.5t55.5 7t47 15.5t32 28l23 -62l-84 -118q-5 16 -17.5 25t-30 13t-39 5t-44.5 1h-76v-271q0 -24 22.5 -42.5t53 -31t64 -19.5t54.5 -7q67 0 125.5 40.5t96.5 111.5l103 -106q-30 -20 -70 -40t-83.5 -36t-87.5 -25t-81 -9l-364 105q30 13 44.5 46
t14.5 93v539q-8 45 -21.5 76t-35.5 43q-16 5 -33 5h-14q-7 0 -13 -2q-8 -1 -15 -3l-13 -2l39 73l105 -13q39 -4 72.5 -8t36.5 -4l236 36l79 -31q54 -22 97 -53t80 -63l-91 -95q-22 35 -53 66.5t-64.5 55t-69 36.5t-67.5 13h-5q-46 -2 -82 -25t-60 -67v-302zM442 1057v89
l76 44l77 -44v-89l-77 -45zM175 1056v90l76 44l77 -44v-90l-77 -44z" />
    <glyph glyph-name="igrave" unicode="&#xec;" horiz-adv-x="448" 
d="M121 874q-10 8 -22 8q-14 0 -24 -10q-9 -9 -9 -21v-3q1 -11 9 -17t17 -6t16 3l18 -82l-126 75l82 156q14 -3 26 -6t32 -6.5t51.5 -9.5t82.5 -14v-691q0 -33 2 -67.5t8.5 -66t20 -56t35.5 -35.5l8 -5l-79 -26l-55 31.5l-54 31.5l-64 39l7 2q23 5 35 20t17.5 35.5t6 45
t0.5 51.5v386q0 65 -3 108t-8.5 69t-13 40t-16.5 21zM317 1014h-42l-202 124q-19 12 -28.5 24.5t-9.5 26.5q0 19 12.5 31t32.5 12q12 0 25 -7.5t34 -28.5z" />
    <glyph glyph-name="iacute" unicode="&#xed;" horiz-adv-x="448" 
d="M121 874q-10 8 -22 8q-14 0 -24 -10q-9 -9 -9 -21v-3q1 -11 9 -17t17 -6t16 3l18 -82l-126 75l82 156q14 -3 26 -6t32 -6.5t51.5 -9.5t82.5 -14v-691q0 -33 2 -67.5t8.5 -66t20 -56t35.5 -35.5l8 -5l-79 -26l-55 31.5l-54 31.5l-64 39l7 2q23 5 35 20t17.5 35.5t6 45
t0.5 51.5v386q0 65 -3 108t-8.5 69t-13 40t-16.5 21zM214 1196q21 21 33.5 28.5t24.5 7.5q21 0 33 -12t12 -31q0 -14 -9.5 -26.5t-28.5 -24.5l-202 -124h-42z" />
    <glyph glyph-name="icircumflex" unicode="&#xee;" horiz-adv-x="487" 
d="M121 874q-10 8 -22 8q-14 0 -24 -10q-9 -9 -9 -21v-3q1 -11 9 -17t17 -6t16 3l18 -82l-126 75l82 156q14 -3 26 -6t32 -6.5t51.5 -9.5t82.5 -14v-691q0 -33 2 -67.5t8.5 -66t20 -56t35.5 -35.5l8 -5l-79 -26l-55 31.5l-54 31.5l-64 39l7 2q23 5 35 20t17.5 35.5t6 45
t0.5 51.5v386q0 65 -3 108t-8.5 69t-13 40t-16.5 21zM151 1159q-70 -66 -128 -141l-63 55q57 82 214 224q68 -41 110 -87l48.5 -53l54.5 -55l-84 -88q-102 117 -152 145z" />
    <glyph glyph-name="idieresis" unicode="&#xef;" horiz-adv-x="485" 
d="M121 874q-10 8 -22 8q-14 0 -24 -10q-9 -9 -9 -21v-3q1 -11 9 -17t17 -6t16 3l18 -82l-126 75l82 156q14 -3 26 -6t32 -6.5t51.5 -9.5t82.5 -14v-691q0 -33 2 -67.5t8.5 -66t20 -56t35.5 -35.5l8 -5l-79 -26l-55 31.5l-54 31.5l-64 39l7 2q23 5 35 20t17.5 35.5t6 45
t0.5 51.5v386q0 65 -3 108t-8.5 69t-13 40t-16.5 21zM232 1057v89l76 44l77 -44v-89l-77 -45zM-35 1056v90l76 44l77 -44v-90l-77 -44z" />
    <glyph glyph-name="eth" unicode="&#xf0;" horiz-adv-x="1015" 
d="M172 654q-1 45 -5 79q-5 46 -12.5 76t-16 45t-17.5 20q-10 8 -22 8q-14 0 -24 -10q-9 -9 -9 -21v-3q1 -11 9 -17t17 -6t16 3l18 -82l-126 75l76 145l205 -25q2 1 34 6t71.5 10.5t77 12t52.5 8.5l83 -26q60 -18 109.5 -54t88.5 -83.5t64.5 -101.5t40.5 -111q7 -31 10 -64
t3 -63q0 -62 -11.5 -121t-28.5 -109t-38 -87.5t-40 -56.5q-15 -20 -56.5 -38.5t-91 -34t-98 -25.5t-74.5 -10q-11 0 -15 1l-361 110q6 2 7 2t6 2q20 6 32 21.5t18 35t7 43.5t1 47v313l-17 -1q-29 -1 -55 -6.5t-47 -15.5t-32 -28l-23 62l84 118q5 -16 17.5 -25t30 -13
t38.5 -5h4zM281 653h8v-1h16q28 0 57.5 1.5t56 7t47 15.5t31.5 28l23 -62l-84 -118q-5 16 -17.5 25t-30 13t-39 5t-44.5 1h-24v-411q0 -24 22 -42.5t53.5 -31t64 -19.5t54.5 -7q44 0 88.5 19.5t80.5 56.5q54 56 84 145.5t30 198.5v19q-3 79 -29 149t-66.5 125.5t-91 91.5
t-101.5 49q-14 3 -26 4.5t-26 1.5q-91 0 -137 -85v-179z" />
    <glyph glyph-name="ntilde" unicode="&#xf1;" horiz-adv-x="1002" 
d="M121 874q-10 8 -22 8q-14 0 -24 -10q-9 -9 -9 -21v-3q1 -11 9 -17t17 -6t16 3l18 -82l-126 75l82 156q36 -6 63 -11l49.5 -9t43 -8.5t41.5 -7.5v-79q1 -7 25.5 -41l78.5 -106l140.5 -185l212.5 -274v529q0 19 -3.5 41t-12.5 40.5t-23 30.5t-35 12q-12 0 -25 -1t-29 -4h-7
l20 42t16 31q7 -1 11 -2.5t11 -2.5q45 -9 90 -17l93 -16q-6 -30 -9 -60.5t-3 -59.5v-572q0 -33 1.5 -66.5t9 -65t22 -56.5t39.5 -39l-77 -26l-154 102q49 12 61 57l-221 281l-82 104.5l-73.5 92l-53.5 67t-23 30.5v-481q0 -33 2.5 -66.5t10 -65t22.5 -56.5t40 -39
q-14 -3 -40 -11.5t-39 -13.5l-171 101q24 2 37.5 18t19.5 38t7.5 48t1.5 47v382q0 65 -5 110t-12 73.5t-16 42.5t-16 19zM596 1063q-72 -19 -95 -19q-28 0 -73.5 24.5t-77.5 24.5q-42 -3 -168 -60l128 128q87 39 130 39q28 0 72 -27t74 -27q38 0 138 37z" />
    <glyph glyph-name="ograve" unicode="&#xf2;" horiz-adv-x="1031" 
d="M128 487q0 -44 8 -95t25 -102t44.5 -97.5t65.5 -82.5t88.5 -57t114.5 -21q123 0 201 77q31 32 53 74t36 85.5t19.5 85t5.5 78.5q0 91 -27 175.5t-74.5 149t-114 103t-145.5 38.5q-84 0 -141 -38.5t-92.5 -98.5t-51 -132.5t-15.5 -141.5zM424 944q8 3 29.5 7.5t48.5 9.5
t55 9t47 8q9 -5 32 -22t56 -44t69 -63t68.5 -78t57 -88.5t32.5 -93.5q7 -30 9.5 -60.5t2.5 -55.5q0 -41 -8.5 -92.5t-29 -105.5t-55 -104.5t-87 -90t-125.5 -63.5t-168 -24q-108 0 -193.5 33t-144 94t-89.5 146.5t-31 189.5q0 94 22.5 171t73.5 138t131 106t197 73z
M597 1014h-42l-202 124q-19 12 -28.5 24.5t-9.5 26.5q0 19 12.5 31t32.5 12q12 0 25 -7.5t34 -28.5z" />
    <glyph glyph-name="oacute" unicode="&#xf3;" horiz-adv-x="1031" 
d="M128 487q0 -44 8 -95t25 -102t44.5 -97.5t65.5 -82.5t88.5 -57t114.5 -21q123 0 201 77q31 32 53 74t36 85.5t19.5 85t5.5 78.5q0 91 -27 175.5t-74.5 149t-114 103t-145.5 38.5q-84 0 -141 -38.5t-92.5 -98.5t-51 -132.5t-15.5 -141.5zM424 944q8 3 29.5 7.5t48.5 9.5
t55 9t47 8q9 -5 32 -22t56 -44t69 -63t68.5 -78t57 -88.5t32.5 -93.5q7 -30 9.5 -60.5t2.5 -55.5q0 -41 -8.5 -92.5t-29 -105.5t-55 -104.5t-87 -90t-125.5 -63.5t-168 -24q-108 0 -193.5 33t-144 94t-89.5 146.5t-31 189.5q0 94 22.5 171t73.5 138t131 106t197 73z
M494 1196q21 21 33.5 28.5t24.5 7.5q21 0 33 -12t12 -31q0 -14 -9.5 -26.5t-28.5 -24.5l-202 -124h-42z" />
    <glyph glyph-name="ocircumflex" unicode="&#xf4;" horiz-adv-x="1031" 
d="M128 487q0 -44 8 -95t25 -102t44.5 -97.5t65.5 -82.5t88.5 -57t114.5 -21q123 0 201 77q31 32 53 74t36 85.5t19.5 85t5.5 78.5q0 91 -27 175.5t-74.5 149t-114 103t-145.5 38.5q-84 0 -141 -38.5t-92.5 -98.5t-51 -132.5t-15.5 -141.5zM424 944q8 3 29.5 7.5t48.5 9.5
t55 9t47 8q9 -5 32 -22t56 -44t69 -63t68.5 -78t57 -88.5t32.5 -93.5q7 -30 9.5 -60.5t2.5 -55.5q0 -41 -8.5 -92.5t-29 -105.5t-55 -104.5t-87 -90t-125.5 -63.5t-168 -24q-108 0 -193.5 33t-144 94t-89.5 146.5t-31 189.5q0 94 22.5 171t73.5 138t131 106t197 73z
M436 1159q-71 -66 -128 -141l-63 55q57 82 214 224q68 -41 110 -87l48.5 -53l54.5 -55l-84 -88q-102 117 -152 145z" />
    <glyph glyph-name="otilde" unicode="&#xf5;" horiz-adv-x="1031" 
d="M128 487q0 -44 8 -95t25 -102t44.5 -97.5t65.5 -82.5t88.5 -57t114.5 -21q123 0 201 77q31 32 53 74t36 85.5t19.5 85t5.5 78.5q0 91 -27 175.5t-74.5 149t-114 103t-145.5 38.5q-84 0 -141 -38.5t-92.5 -98.5t-51 -132.5t-15.5 -141.5zM424 944q8 3 29.5 7.5t48.5 9.5
t55 9t47 8q9 -5 32 -22t56 -44t69 -63t68.5 -78t57 -88.5t32.5 -93.5q7 -30 9.5 -60.5t2.5 -55.5q0 -41 -8.5 -92.5t-29 -105.5t-55 -104.5t-87 -90t-125.5 -63.5t-168 -24q-108 0 -193.5 33t-144 94t-89.5 146.5t-31 189.5q0 94 22.5 171t73.5 138t131 106t197 73z
M596 1063q-72 -19 -95 -19q-28 0 -73.5 24.5t-77.5 24.5q-42 -3 -168 -60l128 128q87 39 130 39q28 0 72 -27t74 -27q38 0 138 37z" />
    <glyph glyph-name="odieresis" unicode="&#xf6;" horiz-adv-x="1031" 
d="M128 487q0 -44 8 -95t25 -102t44.5 -97.5t65.5 -82.5t88.5 -57t114.5 -21q123 0 201 77q31 32 53 74t36 85.5t19.5 85t5.5 78.5q0 91 -27 175.5t-74.5 149t-114 103t-145.5 38.5q-84 0 -141 -38.5t-92.5 -98.5t-51 -132.5t-15.5 -141.5zM424 944q8 3 29.5 7.5t48.5 9.5
t55 9t47 8q9 -5 32 -22t56 -44t69 -63t68.5 -78t57 -88.5t32.5 -93.5q7 -30 9.5 -60.5t2.5 -55.5q0 -41 -8.5 -92.5t-29 -105.5t-55 -104.5t-87 -90t-125.5 -63.5t-168 -24q-108 0 -193.5 33t-144 94t-89.5 146.5t-31 189.5q0 94 22.5 171t73.5 138t131 106t197 73z
M512 1057v89l76 44l77 -44v-89l-77 -45zM245 1056v90l76 44l77 -44v-90l-77 -44z" />
    <glyph glyph-name="divide" unicode="&#xf7;" horiz-adv-x="1087" 
d="M417 732h263q40 0 82 1.5t79.5 9.5t67 22.5t45.5 39.5l33 -88l-120 -168q-7 22 -25 35t-43 19t-55.5 7t-63.5 1h-349v1h-23q-40 0 -82 -1.5t-79.5 -9.5t-67 -22.5t-45.5 -39.5l-33 88l120 168q7 -22 25 -35t43 -19t55.5 -7t63.5 -1h109v-1zM390 245v127l109 63l110 -63
v-127l-110 -65zM390 965v128l109 63l110 -63v-128l-110 -64z" />
    <glyph glyph-name="oslash" unicode="&#xf8;" horiz-adv-x="1031" 
d="M155 88q-18 15 -35 32q-58 61 -89 146.5t-31 189.5q0 94 22.5 171t73.5 138t131 106t197 73q8 3 29.5 7.5t48.5 9.5t55 9t47 8q9 -5 32 -22q21 -15 50 -39l31 49h78l-64 -88l30 -29q36 -36 68.5 -78t57 -88.5t32.5 -93.5q7 -30 9.5 -60.5t2.5 -55.5q0 -41 -8.5 -92.5
t-29 -105.5t-55 -104.5t-87 -90t-125.5 -63.5t-168 -24q-108 0 -193 33q-24 9 -45 20l-32 -53q-15 20 -29.5 37l-28.5 35l9 11q5 3 8.5 6t5.5 4zM670 779l-41 -66l-37 -59.5l-32 -53l-23 -37.5q-8 -18 -91 -144l-130 -212l-53 -90q4 -3 8 -7q38 -36 88.5 -57t114.5 -21
q123 0 201 77q31 32 53 74t36 85.5t19.5 85t5.5 78.5q0 91 -27 175.5t-75 149.5q-8 11 -17 22zM219 172l31 45l68 104q26 44 49 78q8 15 17 29l16 25t12 18t5 8q79 133 80 131l130 211q-25 22 -54 39q-66 38 -145 38q-84 0 -141 -38.5t-92.5 -98.5t-51 -132.5t-15.5 -141.5
q0 -44 8 -95t25 -102t44 -97z" />
    <glyph glyph-name="ugrave" unicode="&#xf9;" horiz-adv-x="868" 
d="M768 944q-3 -12 -5 -34l-4 -45.5t-3 -45.5t-1 -34v-559q-4 -27 -24.5 -54t-50.5 -51t-66 -45.5t-68.5 -38.5t-59.5 -28l-39 -16l-54.5 17l-84 27t-90.5 32t-77 34q-48 31 -48 52v545q0 46 -4.5 76t-10 47.5t-13.5 27t-12 11.5q-10 3 -18 3q-9 18 -18.5 47.5t-16.5 53.5
h198v-654q2 -22 12 -54t39.5 -62.5t85 -53t151.5 -26.5h5q44 0 78 17.5t58.5 44t37.5 57.5t13 60v531q0 27 -3.5 44t-11.5 25.5t-22.5 12t-37.5 3.5q-6 0 -16 -1t-32 -6l39 73zM527 1014h-42l-202 124q-19 12 -28.5 24.5t-9.5 26.5q0 19 12.5 31t32.5 12q12 0 25 -7.5
t34 -28.5z" />
    <glyph glyph-name="uacute" unicode="&#xfa;" horiz-adv-x="868" 
d="M768 944q-3 -12 -5 -34l-4 -45.5t-3 -45.5t-1 -34v-559q-4 -27 -24.5 -54t-50.5 -51t-66 -45.5t-68.5 -38.5t-59.5 -28l-39 -16l-54.5 17l-84 27t-90.5 32t-77 34q-48 31 -48 52v545q0 46 -4.5 76t-10 47.5t-13.5 27t-12 11.5q-10 3 -18 3q-9 18 -18.5 47.5t-16.5 53.5
h198v-654q2 -22 12 -54t39.5 -62.5t85 -53t151.5 -26.5h5q44 0 78 17.5t58.5 44t37.5 57.5t13 60v531q0 27 -3.5 44t-11.5 25.5t-22.5 12t-37.5 3.5q-6 0 -16 -1t-32 -6l39 73zM424 1196q21 21 33.5 28.5t24.5 7.5q21 0 33 -12t12 -31q0 -14 -9.5 -26.5t-28.5 -24.5
l-202 -124h-42z" />
    <glyph glyph-name="ucircumflex" unicode="&#xfb;" horiz-adv-x="868" 
d="M768 944q-3 -12 -5 -34l-4 -45.5t-3 -45.5t-1 -34v-559q-4 -27 -24.5 -54t-50.5 -51t-66 -45.5t-68.5 -38.5t-59.5 -28l-39 -16l-54.5 17l-84 27t-90.5 32t-77 34q-48 31 -48 52v545q0 46 -4.5 76t-10 47.5t-13.5 27t-12 11.5q-10 3 -18 3q-9 18 -18.5 47.5t-16.5 53.5
h198v-654q2 -22 12 -54t39.5 -62.5t85 -53t151.5 -26.5h5q44 0 78 17.5t58.5 44t37.5 57.5t13 60v531q0 27 -3.5 44t-11.5 25.5t-22.5 12t-37.5 3.5q-6 0 -16 -1t-32 -6l39 73zM373 1159q-71 -66 -128 -141l-63 55q57 82 214 224q68 -41 110 -87l48.5 -53l54.5 -55l-84 -88
q-102 117 -152 145z" />
    <glyph glyph-name="udieresis" unicode="&#xfc;" horiz-adv-x="868" 
d="M768 944q-3 -12 -5 -34l-4 -45.5t-3 -45.5t-1 -34v-559q-4 -27 -24.5 -54t-50.5 -51t-66 -45.5t-68.5 -38.5t-59.5 -28l-39 -16l-54.5 17l-84 27t-90.5 32t-77 34q-48 31 -48 52v545q0 46 -4.5 76t-10 47.5t-13.5 27t-12 11.5q-10 3 -18 3q-9 18 -18.5 47.5t-16.5 53.5
h198v-654q2 -22 12 -54t39.5 -62.5t85 -53t151.5 -26.5h5q44 0 78 17.5t58.5 44t37.5 57.5t13 60v531q0 27 -3.5 44t-11.5 25.5t-22.5 12t-37.5 3.5q-6 0 -16 -1t-32 -6l39 73zM442 1057v89l76 44l77 -44v-89l-77 -45zM175 1056v90l76 44l77 -44v-90l-77 -44z" />
    <glyph glyph-name="yacute" unicode="&#xfd;" horiz-adv-x="860" 
d="M120 874q-10 8 -21 8q-14 0 -25 -10q-9 -9 -9 -21v-3q2 -11 10 -17t17 -6q8 0 16 3l17 -82l-125 75l81 156l42 -9.5l37 -8.5l37 -8.5l41 -9.5l215 -370l112.5 197.5l112.5 197.5h82l-63 -87l-105 -176l-40 -67l-35.5 -59.5l-26 -45t-14.5 -23.5v-258q0 -33 2.5 -67.5
t10 -66t21.5 -57t40 -39.5q-8 -2 -19.5 -5.5l-23 -7t-21.5 -7t-15 -6.5q-31 17 -59.5 35.5l-60.5 37.5l-50 29q24 6 38.5 19t21.5 31.5t9 42t2 49.5v204q-58 116 -104.5 198t-78.5 133.5t-49.5 75.5t-19.5 25zM424 1196q21 21 33.5 28.5t24.5 7.5q21 0 33 -12t12 -31
q0 -14 -9.5 -26.5t-28.5 -24.5l-202 -124h-42z" />
    <glyph glyph-name="thorn" unicode="&#xfe;" horiz-adv-x="782" 
d="M444 714q-13 6 -28.5 8t-29.5 2q-31 0 -58.5 -9.5t-52.5 -27.5v-310q5 -2 32 -16l56.5 -30l54 -29.5t24.5 -15.5q17 7 39.5 26.5t43 48t34 67.5t13.5 87v6q0 22 -9.5 50t-26 55.5t-40 50.5t-52.5 37zM274 310v-60q0 -33 2 -67.5t8.5 -66t20 -56t35.5 -35.5l8 -5l-79 -26
l-55 31.5l-54 31.5l-64 39l7 2q23 5 35 20t17.5 35.5t6 45t0.5 51.5v386q0 65 -3 108t-8.5 69t-13 40t-16.5 21q-10 8 -22 8q-14 0 -24 -10q-9 -9 -9 -21v-3q1 -11 9 -17t17 -6t16 3l18 -82l-126 75l82 156q14 -3 26 -6t32 -6.5t51.5 -9.5t82.5 -14v-180q57 7 91 14
q35 7 117 22q9 -3 31.5 -16t49 -35.5t53.5 -53t45 -66.5q14 -29 17.5 -61.5t3.5 -57.5q0 -48 -13 -85.5t-35 -65.5q-19 -24 -44.5 -46t-50 -39.5t-47 -26.5t-36.5 -10l-181 81v-6z" />
    <glyph glyph-name="ydieresis" unicode="&#xff;" horiz-adv-x="860" 
d="M120 874q-10 8 -21 8q-14 0 -25 -10q-9 -9 -9 -21v-3q2 -11 10 -17t17 -6q8 0 16 3l17 -82l-125 75l81 156l42 -9.5l37 -8.5l37 -8.5l41 -9.5l215 -370l112.5 197.5l112.5 197.5h82l-63 -87l-105 -176l-40 -67l-35.5 -59.5l-26 -45t-14.5 -23.5v-258q0 -33 2.5 -67.5
t10 -66t21.5 -57t40 -39.5q-8 -2 -19.5 -5.5l-23 -7t-21.5 -7t-15 -6.5q-31 17 -59.5 35.5l-60.5 37.5l-50 29q24 6 38.5 19t21.5 31.5t9 42t2 49.5v204q-58 116 -104.5 198t-78.5 133.5t-49.5 75.5t-19.5 25zM442 1057v89l76 44l77 -44v-89l-77 -45zM175 1056v90l76 44
l77 -44v-90l-77 -44z" />
    <glyph glyph-name="dotlessi" unicode="&#x131;" horiz-adv-x="447" 
d="M120 874q-10 8 -21 8q-14 0 -25 -10q-9 -9 -9 -21v-3q1 -11 9 -17.5t17 -6.5t16 4l18 -83l-125 76l81 156q14 -3 26 -6t32 -6.5t51.5 -9.5t82.5 -14v-691q0 -33 2 -67.5t9 -66t20 -56t36 -35.5l7 -5l-79 -26l-54.5 31l-54.5 33l-64 38l7 2q23 5 35 20t17.5 35t6 45.5
t0.5 51.5v386q0 65 -3 107.5t-8.5 69t-13 40.5t-16.5 21z" />
    <glyph glyph-name="circumflex" unicode="&#x2c6;" horiz-adv-x="710" 
d="M273 1655q-101 -93 -183 -201l-90 79q81 117 305 320q98 -59 158 -125q32 -37 69 -75.5l78 -78.5l-120 -125q-146 166 -217 206z" />
    <glyph glyph-name="caron" unicode="&#x2c7;" horiz-adv-x="710" 
d="M337 1647q101 93 183 201l90 -79q-81 -117 -305 -320q-98 59 -158 125q-32 37 -69 75.5l-78 78.5l120 125q146 -166 217 -206z" />
    <glyph glyph-name="uni02C9" unicode="&#x2c9;" horiz-adv-x="552" 
d="M0 1046v109h452v-109h-452z" />
    <glyph glyph-name="breve" unicode="&#x2d8;" horiz-adv-x="611" 
d="M0 1180h44q15 -63 66 -93t146 -30t145 29.5t65 93.5h45q-18 -116 -82.5 -176t-172.5 -60q-107 0 -172.5 60.5t-83.5 175.5z" />
    <glyph glyph-name="dotaccent" unicode="&#x2d9;" horiz-adv-x="319" 
d="M0 1509v128l109 63l110 -63v-128l-110 -64z" />
    <glyph glyph-name="ring" unicode="&#x2da;" horiz-adv-x="535" 
d="M371.5 1793.5q63.5 -60.5 63.5 -146.5q0 -85 -63.5 -145.5t-153.5 -60.5t-154 60.5t-64 145.5q0 86 64 146.5t154 60.5t153.5 -60.5zM188 1771q-43 0 -73 -38t-30 -91t30 -91t73 -38t73 38t30 91t-30 91t-73 38z" />
    <glyph glyph-name="ogonek" unicode="&#x2db;" horiz-adv-x="422" 
d="M237 0q-62 -54 -96.5 -104.5t-34.5 -98.5q0 -41 23.5 -65.5t63.5 -24.5q35 0 61 13.5t43 42.5l25 -14q-32 -55 -79.5 -85t-104.5 -30q-61 0 -99.5 31t-38.5 80q0 66 53 136.5t141 118.5h43z" />
    <glyph glyph-name="tilde" unicode="&#x2dc;" horiz-adv-x="874" 
d="M592 1519q-104 -27 -137 -27q-39 0 -104.5 35t-110.5 35q-60 -5 -240 -86l183 183q124 55 185 55q41 0 103.5 -38.5t105.5 -38.5q54 0 197 53z" />
    <glyph glyph-name="hungarumlaut" unicode="&#x2dd;" horiz-adv-x="615" 
d="M0 944l126 239q21 39 40 55.5t40 16.5q25 0 42.5 -17.5t17.5 -41.5q0 -14 -9 -30.5t-27 -35.5l-179 -186h-51zM249 944l126 239q21 39 40 55.5t41 16.5q24 0 41.5 -17.5t17.5 -41.5q0 -14 -9 -30.5t-27 -35.5l-179 -186h-51z" />
    <glyph glyph-name="endash" unicode="&#x2013;" horiz-adv-x="1087" 
d="M417 732h263q40 0 82 1.5t79.5 9.5t67 22.5t45.5 39.5l33 -88l-120 -168q-7 22 -25 35t-43 19t-55.5 7t-63.5 1h-349v1h-23q-40 0 -82 -1.5t-79.5 -9.5t-67 -22.5t-45.5 -39.5l-33 88l120 168q7 -22 25 -35t43 -19t55.5 -7t63.5 -1h109v-1z" />
    <glyph glyph-name="emdash" unicode="&#x2014;" horiz-adv-x="1287" 
d="M417 732h463q40 0 82 1.5t79.5 9.5t67 22.5t45.5 39.5l33 -88l-120 -168q-7 22 -25 35t-43 19t-55.5 7t-63.5 1h-549v1h-23q-40 0 -82 -1.5t-79.5 -9.5t-67 -22.5t-45.5 -39.5l-33 88l120 168q7 -22 25 -35t43 -19t55.5 -7t63.5 -1h109v-1z" />
    <glyph glyph-name="quoteleft" unicode="&#x2018;" horiz-adv-x="330" 
d="M230 1341l-95 -280l81 -47v-125l-110 -65l-109 65v152z" />
    <glyph glyph-name="quoteright" unicode="&#x2019;" horiz-adv-x="320" 
d="M-13 824l95 280l-81 47v125l110 65l109 -65v-152z" />
    <glyph glyph-name="quotesinglbase" unicode="&#x201a;" horiz-adv-x="320" 
d="M-13 -296l93 282l-79 45v127l109 61l110 -61v-154z" />
    <glyph glyph-name="quotedblleft" unicode="&#x201c;" horiz-adv-x="674" 
d="M341 1041l233 300l-93 -280l78 -47v-125l-109 -65l-109 65v152zM2 1041l234 300l-96 -280l81 -47v-125l-110 -65l-109 65v152z" />
    <glyph glyph-name="quotedblright" unicode="&#x201d;" horiz-adv-x="672" 
d="M233 1124l-233 -300l93 280l-78 47v125l109 65l109 -65v-152zM572 1124l-234 -300l96 280l-81 47v125l110 65l109 -65v-152z" />
    <glyph glyph-name="quotedblbase" unicode="&#x201e;" horiz-adv-x="658" 
d="M219 31l-233 -300l93 280l-78 47v125l109 65l109 -65v-152zM558 31l-234 -300l96 280l-81 47v125l110 65l109 -65v-152z" />
    <glyph glyph-name="dagger" unicode="&#x2020;" horiz-adv-x="864" 
d="M363 894q-7 85 -47 156q-50 88 -50 113q0 43 31.5 68.5t84.5 25.5q50 0 82.5 -24t32.5 -62q0 -28 -48 -120q-40 -74 -48 -157q84 7 155 48q88 49 113 49q43 0 69 -31.5t26 -83.5q0 -50 -24 -83t-63 -33q-28 0 -119 49q-75 40 -157 49q7 -154 96 -242q-93 -402 -98 -852
h-33q-5 450 -100 852q89 88 97 242q-84 -8 -155 -48q-89 -50 -113 -50q-43 0 -69 31.5t-26 84.5q0 50 24 82.5t63 32.5q28 0 120 -49q74 -40 156 -48z" />
    <glyph glyph-name="daggerdbl" unicode="&#x2021;" horiz-adv-x="864" 
d="M401 163q82 9 157 50q91 48 119 48q39 0 63 -33t24 -83q0 -52 -26 -83.5t-69 -31.5q-25 0 -113 50q-71 40 -155 47q8 -82 48 -157q48 -92 48 -120q0 -38 -32.5 -62t-82.5 -24q-53 0 -84.5 25.5t-31.5 68.5q0 25 50 113q40 71 47 156q-82 -8 -156 -48q-92 -49 -120 -49
q-39 0 -63 32.5t-24 82.5q0 53 26 84.5t69 31.5q24 0 113 -50q71 -39 155 -48q-7 198 -97 348q90 150 97 347q-84 -8 -155 -48q-89 -50 -113 -50q-43 0 -69 31.5t-26 84.5q0 50 24 82.5t63 32.5q28 0 120 -49q74 -40 156 -48q-7 85 -47 156q-50 88 -50 113q0 43 31.5 68.5
t84.5 25.5q50 0 82.5 -24t32.5 -62q0 -28 -48 -120q-40 -74 -48 -157q84 7 155 48q88 49 113 49q43 0 69 -31.5t26 -83.5q0 -50 -24 -83t-63 -33q-28 0 -119 49q-75 40 -157 49q7 -197 96 -347q-89 -150 -96 -348z" />
    <glyph glyph-name="bullet" unicode="&#x2022;" horiz-adv-x="618" 
d="M0 628q0 108 76 183t184 75q107 0 182.5 -75.5t75.5 -182.5q0 -106 -76.5 -183t-183.5 -77t-182.5 76.5t-75.5 183.5z" />
    <glyph glyph-name="ellipsis" unicode="&#x2026;" horiz-adv-x="919" 
d="M0 45v127l109 63l110 -63v-127l-110 -65zM300 44v128l109 63l110 -63v-128l-110 -64zM600 44v128l109 63l110 -63v-128l-110 -64z" />
    <glyph glyph-name="guilsinglleft" unicode="&#x2039;" horiz-adv-x="808" 
d="M173 844l375 296h160q-185 -124 -260 -182l-198 -167l-49 -51l72 -72l67.5 -67.5l75.5 -76.5q102 -99 127 -120q37 -42 149 -137l-178 -89q-53 58 -138 128l-159 162l-54 57.5l-49 50.5t-35 37t-16 18q-62 65 -62 66q171 148 172 147z" />
    <glyph glyph-name="guilsinglright" unicode="&#x203a;" horiz-adv-x="808" 
d="M708 697q0 -1 -62 -66q-3 -3 -16 -18t-35 -37l-49 -50.5l-55 -57.5l-159 -162q-85 -70 -138 -128l-177 89q112 95 149 137q25 21 126 120l76 76.5l67 67.5l72 72l-48 51l-198 167q-75 58 -260 182h159l375 -296q2 1 173 -147z" />
    <glyph glyph-name="fraction" unicode="&#x2044;" horiz-adv-x="1054" 
d="M528 872l314 508h112l-96 -133l-142 -229l-52.5 -85l-45.5 -75.5t-33 -53.5q-12 -26 -130 -205l-185 -304l-183 -305l-42.5 52.5l-41.5 50.5l14 15l11.5 9.5t7.5 5.5l29 33.5t43.5 57l66 96.5l97.5 149q38 63 70 111q12 22 25 41.5t22.5 35.5t17 26t7.5 11
q113 190 114 188z" />
    <glyph glyph-name="fraction" unicode="&#x2215;" horiz-adv-x="1054" 
d="M528 872l314 508h112l-96 -133l-142 -229l-52.5 -85l-45.5 -75.5t-33 -53.5q-12 -26 -130 -205l-185 -304l-183 -305l-42.5 52.5l-41.5 50.5l14 15l11.5 9.5t7.5 5.5l29 33.5t43.5 57l66 96.5l97.5 149q38 63 70 111q12 22 25 41.5t22.5 35.5t17 26t7.5 11
q113 190 114 188z" />
    <glyph glyph-name="franc" unicode="&#x20a3;" horiz-adv-x="1164" 
d="M205 333v775q-10 65 -29 109.5t-50 60.5q-23 8 -48 8q-9 0 -21.5 -1.5t-25.5 -3.5q-14 -3 -31 -5l55 104q84 -11 152 -18q29 -4 56.5 -6.5t49 -5t35 -4.5t15.5 -2l335 52l113 -43q75 -29 138 -75.5t115 -92.5l-130 -135q-31 50 -75.5 95t-92.5 78.5t-98.5 52t-96.5 18.5
h-7q-65 -3 -117 -35.5t-86 -95.5v-430h109q40 0 82 2t79.5 9t67 21.5t45.5 39.5l33 -88l-120 -168q-7 22 -25 35t-43 19t-55.5 7t-63.5 1h-109v-283h55v-1h23q40 0 82 1.5t79.5 9.5t67 22.5t45.5 39.5l33 -88l-120 -168q-7 22 -25 35t-43 19t-55.5 7t-63.5 1h-78v-53
q0 -47 3.5 -95t13.5 -92t29 -78.5t49 -51.5l11 -7l-113 -38l-246 146q8 0 11 1q30 9 48 29.5t26.5 50.5t10 64.5t1.5 70.5v51q-31 -2 -59 -8q-38 -8 -67.5 -22.5t-45.5 -39.5l-33 88l120 168q7 -22 25 -35t43 -19q8 -2 17 -3z" />
    <glyph glyph-name="lira" unicode="&#x20a4;" horiz-adv-x="1118" 
d="M363 441v-79q0 -50 4.5 -141.5t54.5 -95.5h137q56 0 117.5 11t116 49.5t96 112t57.5 198.5l35.5 -51.5t36.5 -51.5q-27 -97 -57.5 -196.5l-59.5 -196.5h-733l-165 149q49 10 116 30.5t76 49.5t10.5 63t1.5 70v78q-32 -3 -61 -9q-38 -8 -67.5 -22.5t-45.5 -39.5l-33 88
l120 168q7 -22 25 -35t43 -19q9 -2 19 -4v204q-32 -3 -61 -9q-38 -8 -67.5 -22.5t-45.5 -39.5l-33 88l120 168q7 -22 25 -35t43 -19q9 -2 19 -4v140q0 14 1.5 32t5.5 36q9 50 64 97.5t121 87t127.5 67t88.5 38.5l265 -115q4 -36 7 -72t7 -71q3 -20 5 -40.5t3 -40.5l-50 -32
q-16 57 -34 105t-47.5 80.5t-75.5 50.5t-116 18q-28 0 -66 -7.5t-71.5 -29t-57 -58.5t-23.5 -95l1 -195h54v-1h23q40 0 82 1.5t79.5 9.5t67 22.5t45.5 39.5l33 -88l-120 -168q-7 22 -25 35t-43 19t-55.5 7t-63.5 1h-77v-209h54v-1h23q40 0 82 1.5t79.5 9.5t67 22.5
t45.5 39.5l33 -88l-120 -168q-7 22 -25 35t-43 19t-55.5 7t-63.5 1h-76z" />
    <glyph glyph-name="peseta" unicode="&#x20a7;" horiz-adv-x="1080" 
d="M640 1278q-19 8 -40.5 11t-41.5 3q-45 0 -84.5 -13.5t-74.5 -38.5v-443q7 -3 45.5 -23l81 -43l77 -42.5t34.5 -21.5q25 10 57 37.5t61 68.5t48.5 96.5t19.5 123.5v9q0 32 -13.5 71.5t-37 79t-57.5 72.5t-75 53zM243 329v571q0 93 -7.5 156.5t-17 104t-22.5 60t-23 28.5
q-15 11 -31 11q-20 0 -35 -14q-13 -13 -13 -31v-4q2 -16 13.5 -24.5t24.5 -8.5q12 0 22 5l26 -118l-180 108l108 207q72 -14 142 -20.5t142 -15.5q85 11 135.5 21t166.5 31q13 -4 45 -22.5t70.5 -50.5t77 -75.5t63.5 -95.5q20 -41 25 -87.5t5 -82.5q0 -68 -18.5 -121.5
t-49.5 -93.5q-28 -35 -64 -66.5t-71.5 -56t-67 -38t-52.5 -14.5l-258 116v-380h17v-1h23q40 0 82 1.5t79.5 9.5t67 22.5t45.5 39.5l33 -88l-120 -168q-7 22 -25 35t-43 19t-55.5 7t-63.5 1h-40v-53q0 -47 3.5 -95t14 -93t31.5 -81t56 -55l-112 -38l-246 146q36 8 55.5 31.5
t28 55t11 65.5t2.5 64v53h-18q-42 -2 -79.5 -10t-67 -22.5t-45.5 -39.5l-33 88l120 168q7 -22 25 -35t43 -19t55 -7z" />
    <glyph glyph-name="Euro" unicode="&#x20ac;" horiz-adv-x="1276" 
d="M253 916q15 -9 35 -14q25 -6 55.5 -7t63.5 -1h109v-1h23q40 0 82 1.5t79.5 9.5t67 22.5t45.5 39.5l33 -88l-120 -168q-7 22 -25 35t-43 19t-55.5 7t-63.5 1h-109v1h-23q-40 0 -82 -1.5t-79 -9.5l-16 -4q-3 -43 -3 -74q4 -64 17 -128l1 -1q18 -13 43 -19t55.5 -7t63.5 -1
h109v-1h23q40 0 82 1.5t79.5 9.5t67 22.5t45.5 39.5l33 -88l-120 -168q-7 22 -25 35t-43 19t-55.5 7t-63.5 1h-109v1h-23q-40 0 -82 -1q-18 -1 -36 -3q31 -75 79 -138q66 -89 168.5 -144.5t249.5 -55.5q76 0 139.5 39.5t112 88.5t78 94t34.5 55q7 -25 12.5 -41.5l13.5 -42.5
l-38.5 -94.5l-37.5 -95.5q-39 -25 -97.5 -41t-122 -24t-125 -10.5t-108.5 -2.5q-126 0 -244 49.5t-210 143.5q-91 91 -142 210.5t-51 240.5q0 115 46.5 213.5t118.5 180.5t158.5 146t168.5 111t146 74.5t91 36.5l364 -211q-14 -45 -30.5 -85.5l-32.5 -83.5l-52 -137l-19 15
q-19 16 -47 34q11 16 29.5 55.5t18.5 84.5q0 35 -20 64q-19 27 -55.5 44.5t-82.5 26t-98 12.5t-102 4q-158 0 -251 -94q-39 -41 -63 -101q-22 -53 -35 -108z" />
    <glyph glyph-name="uni2116" unicode="&#x2116;" horiz-adv-x="1292" 
d="M618 1047q0 -32 6 -68.5t18 -72.5t31.5 -69.5t47 -59t63.5 -41t81 -15.5q88 0 144 56q22 23 38 52.5t25.5 60.5t13.5 61t4 56q0 65 -19 125.5t-53 106.5t-81.5 73.5t-104.5 27.5q-60 0 -100.5 -27.5t-66 -70t-36.5 -94.5t-11 -101zM596 802q2 -10 5 -21q5 -22 15.5 -40
t28.5 -28l-56 -19l-109 73q35 9 43 41l-158 201l-58.5 74.5l-52.5 65.5l-38 48t-16 22v-344q0 -23 1.5 -47t7 -46.5t16 -40.5t28.5 -28q-10 -2 -28.5 -8t-27.5 -10l-122 72q17 2 26.5 13t13.5 27t5.5 34.5t1.5 33.5v273q0 46 -4 78.5t-8.5 52.5t-11 30.5t-11.5 13.5
q-8 6 -16 6q-10 0 -17 -7t-7 -16v-2q1 -8 7 -12t12 -4t11 2l13 -59l-90 54l59 112q25 -5 44.5 -8.5t35.5 -6t30.5 -6t30.5 -5.5v-57q0 -4 17.5 -28.5l56 -76l100.5 -132.5l152 -195v378q0 13 -2.5 28.5t-9 29t-16.5 22t-25 8.5q-8 0 -17.5 -0.5t-20.5 -2.5q-2 0 -3 -0.5
t-2 -0.5l13.5 30.5t11.5 22.5q5 -1 8 -2t8 -2q32 -7 64 -12.5l67 -11.5q-5 -21 -7 -43t-2 -42v-42q1 1 2 3q37 44 94 76t140 52q6 2 21.5 5.5t35 7t39 6.5l33.5 5q6 -3 23 -15t40.5 -31.5t49 -45.5t48.5 -56t40.5 -63t23.5 -67q5 -21 7 -43t2 -39q0 -30 -6 -66.5t-21 -75.5
t-39.5 -74.5t-62 -64t-89.5 -45.5t-120 -17q-77 0 -138 23.5t-103 66.5q-9 9 -17 18z" />
    <glyph glyph-name="trademark" unicode="&#x2122;" horiz-adv-x="1378" 
d="M591 1269l-64 -38l13 59q3 -2 13 -2q8 0 12 7q2 7 2 12v3q-1 16 -12 20q-8 4 -17 4q-5 0 -11 -1l-148 -26q-7 -3 -13 -7.5t-10.5 -17t-6.5 -36t-2 -61.5v-308q0 -24 1 -48.5t6.5 -46.5t15 -39.5t26.5 -26.5l5 -3l-58 -19q-19 10 -36.5 21.5l-37.5 23.5q-11 7 -24 13.5
t-25 14.5l6 1q16 4 24.5 14.5t12.5 25t4.5 32.5t0.5 37v308q0 38 -2 61.5t-6.5 36t-11 17.5t-16.5 7l-142 26q-6 1 -11 1q-9 0 -16 -4q-11 -4 -13 -20v-3q0 -5 3 -12t12 -7t12 2l13 -59l-90 54l59 111l249 -26l251 26l32 -62l33 62l34.5 -7t34.5 -6l73 -13v-66l91 -124
l33.5 -47l29.5 -40.5l21.5 -29t9.5 -12.5l21.5 29.5l38.5 51.5l46 60.5l44 58l33 44.5t13 19v74h90l-8 -61l-3 -27q-1 -6 -1 -10v-413q0 -24 2 -48.5t7 -47t15.5 -41t28.5 -27.5l-57 -19q-23 14 -47 30.5l-62 43.5q17 4 26 14t13 25t5 33t1 37v343l-206 -260l-88 111
l-33 41.5l-29.5 37.5l-22.5 28t-12 14v-315q0 -24 2 -48.5t8 -47t16.5 -40.5t28.5 -28l-57 -19q-13 6 -24.5 13l-25.5 15.5l-32 19l-42 25.5q17 2 27 14t14 28t5.5 33.5t1.5 30.5v279q0 49 -4 80t-9 49.5t-11.5 27.5t-11.5 14q-8 5 -16 5q-10 0 -17 -7q-7 -6 -7 -15v-2
q1 -8 7 -12.5t12 -4.5t11 3l13 -59z" />
    <glyph glyph-name="partialdiff" unicode="&#x2202;" 
d="M0 200v1100q0 200 200 200h1100q200 0 200 -200v-1100q0 -200 -200 -200h-1100q-200 0 -200 200zM1475 201v1099q0 175 -175 175h-1100q-174 0 -175 -175v-1100q1 -175 175 -175h1101q174 0 174 176z" />
    <glyph glyph-name="Delta" unicode="&#x2206;" 
d="M0 200v1100q0 200 200 200h1100q200 0 200 -200v-1100q0 -200 -200 -200h-1100q-200 0 -200 200zM1475 201v1099q0 175 -175 175h-1100q-174 0 -175 -175v-1100q1 -175 175 -175h1101q174 0 174 176z" />
    <glyph glyph-name="product" unicode="&#x220f;" 
d="M0 200v1100q0 200 200 200h1100q200 0 200 -200v-1100q0 -200 -200 -200h-1100q-200 0 -200 200zM1475 201v1099q0 175 -175 175h-1100q-174 0 -175 -175v-1100q1 -175 175 -175h1101q174 0 174 176z" />
    <glyph glyph-name="summation" unicode="&#x2211;" 
d="M0 200v1100q0 200 200 200h1100q200 0 200 -200v-1100q0 -200 -200 -200h-1100q-200 0 -200 200zM1475 201v1099q0 175 -175 175h-1100q-174 0 -175 -175v-1100q1 -175 175 -175h1101q174 0 174 176z" />
    <glyph glyph-name="minus" unicode="&#x2212;" horiz-adv-x="1087" 
d="M417 732h263q40 0 82 1.5t79.5 9.5t67 22.5t45.5 39.5l33 -88l-120 -168q-7 22 -25 35t-43 19t-55.5 7t-63.5 1h-349v1h-23q-40 0 -82 -1.5t-79.5 -9.5t-67 -22.5t-45.5 -39.5l-33 88l120 168q7 -22 25 -35t43 -19t55.5 -7t63.5 -1h109v-1z" />
    <glyph glyph-name="approxequal" unicode="&#x2248;" 
d="M0 200v1100q0 200 200 200h1100q200 0 200 -200v-1100q0 -200 -200 -200h-1100q-200 0 -200 200zM1475 201v1099q0 175 -175 175h-1100q-174 0 -175 -175v-1100q1 -175 175 -175h1101q174 0 174 176z" />
    <glyph glyph-name="lessequal" unicode="&#x2264;" 
d="M0 200v1100q0 200 200 200h1100q200 0 200 -200v-1100q0 -200 -200 -200h-1100q-200 0 -200 200zM1475 201v1099q0 175 -175 175h-1100q-174 0 -175 -175v-1100q1 -175 175 -175h1101q174 0 174 176z" />
    <glyph glyph-name="greaterequal" unicode="&#x2265;" 
d="M0 200v1100q0 200 200 200h1100q200 0 200 -200v-1100q0 -200 -200 -200h-1100q-200 0 -200 200zM1475 201v1099q0 175 -175 175h-1100q-174 0 -175 -175v-1100q1 -175 175 -175h1101q174 0 174 176z" />
    <glyph glyph-name="uniF001" unicode="&#xf001;" horiz-adv-x="100" 
 />
    <glyph glyph-name="uniF001" unicode="&#xfb01;" horiz-adv-x="100" 
 />
    <glyph glyph-name="uniF002" unicode="&#xf002;" horiz-adv-x="100" 
 />
    <glyph glyph-name="uniF002" unicode="&#xfb02;" horiz-adv-x="100" 
 />
    <glyph glyph-name="OE" unicode="&#x152;" horiz-adv-x="2173" 
d="M183 696q0 -63 11.5 -136t35.5 -145.5t63.5 -139.5t94 -118t126.5 -81.5t163 -30.5q176 0 287 111q45 46 76.5 105.5t51 121.5t27.5 121.5t8 112.5q0 130 -38.5 251t-106.5 213t-163 147t-208 55q-120 0 -201.5 -55t-132 -140.5t-72.5 -189.5t-22 -202zM1102 138l-28 -23
q-76 -57 -180 -91t-240 -34q-154 0 -276 47t-206 134t-128 209.5t-44 271.5q0 133 32 243t105 197.5t187.5 151.5t280.5 105q12 4 43 10.5t69.5 13.5t78 13t67.5 11q12 -7 46 -31q32 -23 77 -60l39 74l150 -18l104.5 -12.5t51.5 -5.5l337 52l114 -45q76 -31 138 -75.5
t114 -90.5l-130 -135q-31 50 -75.5 95t-92.5 78.5t-98.5 52t-96.5 18.5h-7q-65 -3 -117 -35.5t-86 -95.5v-431h109q40 0 82 1.5t79.5 9.5t67 22.5t45.5 39.5l33 -88l-120 -168q-7 22 -25 35t-43 19t-55.5 7t-63.5 1h-109v-387q0 -34 32.5 -60.5t76 -44.5t91.5 -28t78 -10
q95 0 178.5 58t138.5 160l147 -152q-43 -29 -100.5 -57.5t-119.5 -51t-124.5 -35.5t-115.5 -13zM1012 1283q36 -31 75 -70q47 -47 89 -102q-11 63 -30 107t-50 60q-23 8 -48 8h-19q-9 -1 -17 -3z" />
    <glyph glyph-name="oe" unicode="&#x153;" horiz-adv-x="1551" 
d="M128 487q0 -44 8 -95t25 -102t44.5 -97.5t65.5 -82.5t88.5 -57t114.5 -21q123 0 201 77q31 32 53 74t36 85.5t19.5 85t5.5 78.5q0 91 -27 175.5t-74.5 149t-114 103t-145.5 38.5q-84 0 -141 -38.5t-92.5 -98.5t-51 -132.5t-15.5 -141.5zM771 96q-9 -8 -20 -15
q-52 -40 -125 -64t-168 -24q-108 0 -193.5 33t-144 94t-89.5 146.5t-31 189.5q0 94 22.5 171t73.5 138t131 106t197 73q8 3 29.5 7.5t48.5 9.5t55 9t47 8q9 -5 32 -22q23 -16 54 -42l28 52l105 -13q39 -4 72.5 -8t36.5 -4l236 36l79 -31q54 -22 97 -53t80 -63l-91 -95
q-22 35 -53 66.5t-64.5 55t-69 36.5t-67.5 13h-5q-46 -2 -82 -25t-60 -67v-302h76q28 0 57.5 1.5t55.5 7t47 15.5t32 28l23 -62l-84 -118q-5 16 -17.5 25t-30 13t-39 5t-44.5 1h-76v-271q0 -24 22.5 -42.5t53 -31t64 -19.5t54.5 -7q67 0 125.5 40.5t96.5 111.5l103 -106
q-30 -20 -70 -40t-83.5 -36t-87.5 -25t-81 -9zM708 898q26 -22 53 -49q32 -33 62 -71q-8 44 -21 74q-13 31 -35 43q-16 5 -33 5h-14q-6 0 -12 -2z" />
    <glyph glyph-name="perthousand" unicode="&#x2030;" horiz-adv-x="1607" 
d="M159 1026q0 -27 4 -58.5t11.5 -63t19.5 -60.5t29 -51.5t40 -35.5t51 -13q55 0 90 48q14 20 24 46t16 52.5t8.5 52.5t2.5 49q0 56 -12 108.5t-33.5 92.5t-51 64t-65.5 24q-37 0 -62.5 -24t-41.5 -61t-23 -82t-7 -88zM568 376q0 -27 4 -58.5t11.5 -63t19.5 -60.5t29 -51.5
t40 -35.5t51 -13q55 0 90 48q14 20 24 46t16 52.5t8.5 52.5t2.5 49q0 56 -12 108.5t-33.5 92.5t-51 64t-65.5 24q-37 0 -62.5 -24t-41.5 -61t-23 -82t-7 -88zM1038 376q0 -27 4 -58.5t11.5 -63t19.5 -60.5t29 -51.5t40 -35.5t51 -13q55 0 90 48q14 20 24 46t16 52.5
t8.5 52.5t2.5 49q0 56 -12 108.5t-33.5 92.5t-51 64t-65.5 24q-37 0 -62.5 -24t-41.5 -61t-23 -82t-7 -88zM511 762q-2 -1 -4 -3q-36 -27 -85 -43t-113 -16q-73 0 -130.5 22t-97 63t-60.5 99t-21 128q0 63 15 115t49.5 93.5t88.5 71.5t132 49q6 2 20.5 5t33 6.5t37 6.5
l31.5 5q6 -3 21.5 -14.5t38 -30t46.5 -42.5t46 -52.5t38.5 -60t22.5 -62.5q4 -20 6 -41t2 -37q0 -28 -6 -63q-2 -14 -6 -27l276 446h112l-96 -133l-142 -229l-52.5 -85l-45.5 -75.5t-33 -53.5q-12 -25 -125 -197q23 19 52 35q54 30 132 49q6 2 20.5 5t33 6.5t37 6.5l31.5 5
q6 -3 21.5 -14.5t38 -30t46.5 -42.5q19 -19 36 -40q31 31 74 55q54 30 132 49q6 2 20.5 5t33 6.5t37 6.5l31.5 5q6 -3 21.5 -14.5t38 -30t46.5 -42.5t46 -52.5t38.5 -60t22.5 -62.5q4 -20 6 -41t2 -37q0 -28 -6 -63t-20 -71.5t-37 -70t-58.5 -60.5t-84.5 -43t-113 -16
q-73 0 -130.5 22t-96.5 63l-8 8q-17 -18 -37 -34q-36 -27 -85 -43t-113 -16q-73 0 -130.5 22t-97 63t-60.5 99t-21 128q0 54 11 99l-100 -166l-183 -305l-42.5 52.5l-41.5 50.5l14 15l11.5 9.5t7.5 5.5l29 33.5t43.5 57l66 96.5l97.5 149q38 63 70 111q12 22 25 41.5
t22.5 35.5t17 26t7.5 11z" />
    </font>
</defs>
</svg>
