<?xml version="1.0" standalone="no"?>
<!DOCTYPE svg PUBLIC "-//W3C//DTD SVG 20010904//EN"
 "http://www.w3.org/TR/2001/REC-SVG-20010904/DTD/svg10.dtd">
<svg version="1.0" xmlns="http://www.w3.org/2000/svg"
 width="186.000000pt" height="186.000000pt" viewBox="0 0 186.000000 186.000000"
 preserveAspectRatio="xMidYMid meet">
<metadata>
Created by potrace 1.11, written by Peter Selinger 2001-2013
</metadata>
<g transform="translate(0.000000,186.000000) scale(0.100000,-0.100000)"
fill="#000000" stroke="none">
<path d="M870 1727 c-30 -16 -51 -35 -63 -60 -10 -20 -22 -37 -27 -37 -13 0
-52 -69 -47 -83 6 -16 -12 -41 -51 -70 -17 -12 -50 -36 -74 -53 -51 -37 -264
-149 -310 -163 -85 -26 -163 -60 -166 -73 -4 -18 103 -68 146 -68 32 0 112 22
144 40 24 13 25 13 31 -9 9 -38 -69 -85 -183 -110 -30 -7 -62 -15 -70 -18 -8
-3 -19 -7 -25 -7 -45 -5 -148 -109 -144 -144 1 -9 -1 -30 -6 -45 -8 -31 8 -72
31 -81 7 -3 37 -1 66 4 42 6 59 5 80 -8 30 -17 58 -67 58 -101 0 -26 12 -27
35 -1 10 11 24 20 31 20 8 0 28 9 46 20 18 11 41 20 51 20 9 0 17 5 17 10 0 6
22 10 48 10 39 0 53 5 72 25 16 17 34 25 57 25 31 0 33 -2 33 -34 0 -34 12
-78 36 -133 18 -40 35 -174 25 -188 -5 -5 -11 -38 -14 -73 -3 -34 -11 -69 -17
-77 -7 -8 -14 -36 -16 -62 -1 -27 -6 -62 -9 -80 -6 -26 -4 -32 13 -37 11 -4
32 -4 46 0 22 5 25 10 19 33 -3 14 -10 29 -16 32 -5 4 -5 40 1 98 8 73 15 99
36 130 15 21 24 44 21 52 -11 30 97 199 127 199 19 0 138 -56 138 -65 0 -5
-16 -26 -36 -46 -42 -44 -39 -58 28 -111 53 -41 85 -77 94 -103 4 -11 12 -23
18 -27 8 -5 8 -13 -1 -27 -14 -23 -2 -71 18 -71 21 0 49 42 49 74 0 26 -13 45
-70 101 -80 80 -88 105 -38 131 44 23 64 43 81 86 9 21 20 38 25 38 5 0 36 18
70 40 51 33 66 38 89 31 15 -5 47 -14 70 -20 36 -10 43 -16 48 -44 4 -20 -2
-53 -13 -87 -15 -43 -27 -58 -51 -69 -28 -13 -31 -19 -31 -63 0 -28 5 -48 11
-48 21 0 69 34 69 49 0 8 10 25 22 38 15 16 24 42 29 84 4 33 14 68 23 78 28
31 19 54 -41 101 -32 24 -68 53 -80 64 l-21 20 20 29 c19 26 25 28 59 23 32
-5 51 1 118 35 44 22 88 39 97 37 30 -6 55 -52 61 -114 3 -32 11 -65 16 -72 8
-11 5 -18 -12 -32 -28 -20 -24 -52 9 -91 19 -23 21 -23 34 -7 7 10 16 52 19
93 4 62 2 82 -14 115 -11 23 -23 64 -26 93 -10 79 -33 97 -131 97 -84 0 -102
9 -102 47 0 28 -22 74 -44 92 -21 17 -21 100 -1 127 14 18 14 18 15 -7 0 -15
10 -39 22 -55 16 -20 23 -44 25 -83 2 -54 12 -71 44 -71 33 0 56 35 73 110 22
101 28 108 57 81 12 -11 28 -21 34 -21 24 0 23 13 -2 33 -26 20 -26 21 -4 29
21 7 21 8 -10 38 -30 28 -31 33 -25 80 7 49 6 51 -14 40 -11 -6 -20 -16 -20
-22 0 -6 -9 1 -20 15 -11 14 -20 32 -20 41 0 9 -3 15 -7 15 -21 -3 -31 3 -36
23 -4 12 -9 19 -13 15 -4 -3 -16 -1 -28 5 -11 7 -23 13 -26 14 -3 0 -12 3 -20
7 -35 13 -78 15 -118 5 -32 -8 -46 -8 -55 1 -16 16 -29 13 -25 -6 4 -21 -43
-46 -68 -36 -8 3 -14 2 -13 -3 4 -21 -2 -25 -18 -13 -12 10 -17 11 -20 2 -2
-7 -11 -9 -19 -6 -20 7 -17 -14 4 -26 15 -8 14 -11 -12 -21 -25 -9 -33 -7 -62
15 -18 14 -46 25 -63 25 -24 0 -31 4 -31 19 0 11 -5 23 -11 27 -8 5 -9 33 -5
93 l7 86 -30 23 c-38 28 -64 27 -121 -1z"/>
</g>
</svg>
